<svg viewBox="0 0 596 61" fill="none" xmlns="http://www.w3.org/2000/svg">
<path d="M580.165 59.5716C580.165 59.5716 585.471 50.0984 587.872 45.6906C590.594 40.6946 594.731 33.3418 595.242 26.502C595.859 18.2559 593.283 11.5594 589.527 6.98682C585.771 2.41423 580.218 0.12793 572.951 0.12793C566.745 0.12793 561.601 2.00596 557.682 5.68037C553.681 9.43642 551.721 14.0907 551.721 19.6431C551.721 25.1955 553.518 29.7681 557.274 33.3609C561.03 36.9536 565.847 38.6684 571.89 38.6684C577.687 38.6684 580.79 36.7537 583.459 34.284C581.136 41.4828 568.919 59.5716 568.919 59.5716C568.919 59.5716 566.476 59.5716 580.165 59.5716ZM573.196 29.8498C570.175 29.8498 567.562 28.9516 565.439 26.9919C563.234 25.1139 562.173 22.5826 562.173 19.3981C562.173 16.2953 563.234 13.7641 565.439 11.8044C567.562 9.92634 570.175 8.94651 573.196 8.94651C576.136 8.94651 578.667 9.92634 580.79 11.8044C582.913 13.7641 583.974 16.2953 583.974 19.3981C583.974 22.5826 582.913 25.1139 580.79 26.9919C578.667 28.9516 576.136 29.8498 573.196 29.8498Z" fill="white"/>
<path d="M0.408264 58.9998H11.9214L17.6371 44.0572H39.6836L45.3993 58.9998H56.9124L33.8045 1.84237H23.5162L0.408264 58.9998ZM26.5374 20.7043L27.1906 18.9079L28.6604 14.4987L30.1301 18.9079L30.7833 20.7043L36.0092 34.4221H21.3115L26.5374 20.7043Z" fill="white"/>
<path d="M61.938 58.9998H85.8624C91.5782 58.9998 96.3141 57.53 100.233 54.4272C104.153 51.3244 106.112 47.16 106.112 41.8526C106.112 35.4019 102.683 30.7477 95.8241 27.9715C98.0288 26.9916 99.9068 25.3586 101.458 23.2356C102.928 21.1126 103.745 18.5813 103.745 15.8051C103.745 11.3958 102.111 7.96638 99.0086 5.51677C95.8241 3.06717 91.3332 1.84237 85.4542 1.84237H61.938V58.9998ZM72.7162 33.5239H85.2092C91.9048 33.5239 95.3342 36.2185 95.3342 41.4443C95.3342 46.7518 91.9048 49.3647 85.2092 49.3647H72.7162V33.5239ZM72.7162 11.3142H84.6376C87.6588 11.3142 89.8634 11.8857 91.2515 12.8656C92.558 13.9271 93.2929 15.5601 93.2929 17.6831C93.2929 19.8878 92.558 21.5208 91.2515 22.5007C89.8634 23.5622 87.6588 24.0521 84.6376 24.0521H72.7162V11.3142Z" fill="white"/>
<path d="M171.391 30.4211C171.391 21.9291 168.533 14.9069 162.981 9.19118C157.347 3.55709 150.325 0.699219 141.996 0.699219C133.586 0.699219 126.563 3.55709 121.011 9.19118C115.377 14.9069 112.601 21.9291 112.601 30.4211C112.601 38.913 115.377 46.0169 121.011 51.651C126.563 57.3667 133.586 60.1429 141.996 60.1429C150.325 60.1429 157.347 57.3667 162.981 51.651C168.533 46.0169 171.391 38.913 171.391 30.4211ZM141.996 50.1812C136.607 50.1812 132.198 48.4665 128.768 44.8737C125.257 41.281 123.542 36.4634 123.542 30.4211C123.542 24.3787 125.257 19.6428 128.768 16.0501C132.198 12.4573 136.607 10.6609 141.996 10.6609C147.303 10.6609 151.713 12.4573 155.224 16.0501C158.653 19.6428 160.45 24.3787 160.45 30.4211C160.45 36.4634 158.653 41.281 155.224 44.8737C151.713 48.4665 147.303 50.1812 141.996 50.1812Z" fill="white"/>
<path d="M226.324 1.84237H215.546V36.3001C215.546 40.7094 214.403 44.1389 212.198 46.5885C209.912 49.0381 206.809 50.1812 202.89 50.1812C198.889 50.1812 195.786 49.0381 193.581 46.5885C191.295 44.1389 190.233 40.7094 190.233 36.3001V1.84237H179.455V37.3616C179.455 44.5471 181.578 50.0996 185.987 54.1006C190.315 58.1832 195.949 60.1429 202.89 60.1429C209.749 60.1429 215.383 58.1832 219.792 54.1006C224.12 50.0996 226.324 44.5471 226.324 37.3616V1.84237Z" fill="white"/>
<path d="M232.791 11.8041H250.265V58.9998H261.043V11.8041H278.517V1.84237H232.791V11.8041Z" fill="white"/>
<path d="M318.785 16.1317C318.785 14.172 319.683 12.7023 321.48 11.7224C323.276 10.7426 325.562 10.171 328.339 10.171C335.034 10.171 339.525 13.6005 341.811 20.296L350.303 15.3968C346.711 5.59843 339.525 0.699219 328.584 0.699219C322.541 0.699219 317.724 2.16898 314.049 5.02685C310.293 7.88472 308.497 11.6408 308.497 16.3767C308.497 21.0309 310.048 24.787 313.314 27.6449C316.581 30.5844 320.908 32.5441 326.379 33.5239C331.278 34.5037 334.789 35.7286 337.076 37.1167C339.362 38.5864 340.505 40.5461 340.505 42.9957C340.505 45.282 339.525 47.16 337.647 48.5481C335.688 50.0179 333.156 50.6711 329.89 50.6711C325.644 50.6711 322.378 49.528 320.092 47.2417C317.805 44.9554 316.254 41.5259 315.437 37.035L305.966 41.8526C307.109 47.405 309.64 51.8959 313.723 55.1621C317.724 58.5099 323.113 60.1429 329.972 60.1429C336.341 60.1429 341.485 58.5099 345.404 55.0804C349.324 51.651 351.283 47.4866 351.283 42.5874C351.283 37.8515 349.732 34.0138 346.711 31.2376C343.608 28.4614 338.954 26.3384 332.585 25.0319C327.685 24.0521 324.174 22.909 322.051 21.5208C319.847 20.2144 318.785 18.418 318.785 16.1317Z" fill="white"/>
<path d="M354.314 11.8041H371.788V58.9998H382.566V11.8041H400.04V1.84237H354.314V11.8041Z" fill="white"/>
<path d="M392.648 58.9998H404.161L409.877 44.0572H431.923L437.639 58.9998H449.152L426.044 1.84237H415.756L392.648 58.9998ZM418.777 20.7043L419.43 18.9079L420.9 14.4987L422.37 18.9079L423.023 20.7043L428.249 34.4221H413.551L418.777 20.7043Z" fill="white"/>
<path d="M487.329 58.9998H499.658L485.859 34.8304C494.514 31.7275 498.924 26.0934 498.924 18.0097C498.924 13.1105 497.046 9.19118 493.453 6.25165C489.778 3.31213 484.798 1.84237 478.592 1.84237H454.177V58.9998H464.956V35.8102H474.101L487.329 58.9998ZM464.956 11.3142H478.592C484.961 11.3142 488.145 13.8454 488.145 18.8263C488.145 23.8888 484.961 26.3384 478.592 26.3384H464.956V11.3142Z" fill="white"/>
<path d="M503.587 11.8041H521.061V58.9998H531.839V11.8041H549.313V1.84237H503.587V11.8041Z" fill="white"/>
</svg>
