<svg width="155" height="73" viewBox="0 0 155 73" fill="none" xmlns="http://www.w3.org/2000/svg">
<path d="M0.986001 59V1.6H41.576V11.276H11.81V26.118H39.116V35.794H11.81V59H0.986001ZM37.9315 59L61.1375 1.6H71.4695L94.6755 59H83.1135L77.3735 43.994H55.2335L49.4935 59H37.9315ZM64.1715 20.542L58.9235 34.318H73.6835L68.4355 20.542L67.7795 18.738L66.3035 14.31L64.8275 18.738L64.1715 20.542ZM154.466 30.3C154.466 36.696 152.854 42.354 149.628 47.274C146.403 52.1393 142.057 55.6927 136.59 57.934C137.957 60.1753 140.308 62.772 143.642 65.724L135.852 72.694C132.08 68.922 128.855 64.74 126.176 60.148H124.946C116.528 60.148 109.503 57.3053 103.872 51.62C98.2416 45.9347 95.4263 38.828 95.4263 30.3C95.4263 21.772 98.2416 14.6653 103.872 8.98C109.503 3.29466 116.528 0.451996 124.946 0.451996C133.365 0.451996 140.39 3.29466 146.02 8.98C151.651 14.6653 154.466 21.772 154.466 30.3ZM111.662 44.814C115.161 48.3673 119.589 50.144 124.946 50.144C130.304 50.144 134.732 48.3673 138.23 44.814C141.729 41.206 143.478 36.368 143.478 30.3C143.478 24.232 141.729 19.4213 138.23 15.868C134.732 12.26 130.304 10.456 124.946 10.456C119.589 10.456 115.161 12.26 111.662 15.868C108.164 19.4213 106.414 24.232 106.414 30.3C106.414 36.368 108.164 41.206 111.662 44.814Z" fill="white"/>
</svg>
