<svg width="100%" height="100%" viewBox="0 0 1346 801" fill="none" xmlns="http://www.w3.org/2000/svg">
<path d="M536.556 358.287C528.107 373.578 547.164 383.411 554.964 369.054C558.27 362.969 659.599 120.535 671.879 91.9803L790.04 368.157C797.886 384.907 817.501 372.643 810.259 356.791L683.686 68.3606C677.546 55.2533 664.795 55.2533 659.127 68.8287C658.655 69.765 541.421 349.482 536.556 358.287Z" fill="#F0F0F0"/>
<path d="M514.343 335.046C491.206 305.724 476.821 270.563 472.82 233.551C468.818 196.538 475.36 159.155 491.703 125.64C508.047 92.1248 533.538 63.8192 565.286 43.933C597.034 24.0467 633.768 13.3755 671.324 13.1294C708.879 12.8832 745.753 23.072 777.764 42.5404C809.774 62.0088 835.64 89.9777 852.43 123.276C869.219 156.573 876.259 193.868 872.751 230.93C869.244 267.991 855.329 303.337 832.586 332.96L832.196 332.666C854.884 303.116 868.765 267.856 872.264 230.884C875.763 193.913 868.74 156.709 851.992 123.493C835.243 90.2758 809.44 62.375 777.507 42.9541C745.575 23.5331 708.791 13.3692 671.327 13.6147C633.863 13.8602 597.218 24.5055 565.547 44.3433C533.877 64.1811 508.448 92.4176 492.144 125.851C475.841 159.284 469.315 196.577 473.307 233.499C477.299 270.421 491.648 305.496 514.729 334.747L514.343 335.046Z" stroke="#F0F0F0" stroke-width="20.3518" stroke-linejoin="round"/>
<path d="M582.727 390.589C610.92 404.394 641.692 411.782 673.138 411.52C704.583 411.257 735.53 404.264 763.485 389.991L763.485 389.393C735.598 403.631 704.502 410.773 673.133 411.034C641.765 411.296 610.851 403.762 582.727 389.991L582.727 390.589Z" stroke="#F0F0F0" stroke-width="20.3518" stroke-linejoin="round"/>
<g clip-path="url(#clip0_1264_1638)">
<path d="M1188.53 629.018C1188.53 589.266 1220.06 556.988 1258.89 556.988C1297.39 556.988 1328.93 589.266 1328.93 629.018C1328.93 668.77 1295.74 700.708 1258.89 700.708C1220.06 700.708 1188.53 668.431 1188.53 629.018ZM1171.94 629.018C1171.94 677.944 1210.77 718.036 1258.89 718.036C1266.86 718.036 1274.49 716.677 1281.8 714.638L1225.47 786.602C1218.5 795.776 1229.2 806.396 1236.17 797.563L1326.6 684.739C1340.54 663.334 1345.85 646.686 1345.85 629.018C1345.85 579.752 1306.69 540 1258.89 540C1210.77 540 1171.94 579.752 1171.94 629.018Z" fill="#FF4961"/>
<path d="M63.6863 680.493C54.9252 680.493 46.6134 678.808 38.7509 675.438C31.1131 672.069 24.3738 667.576 18.5331 661.96C12.917 656.119 8.42412 649.38 5.05447 641.742C1.68483 633.879 0 625.568 0 616.806C0 608.045 1.68483 599.734 5.05447 591.871C8.42412 584.009 12.917 577.269 18.5331 571.653C24.3738 565.812 31.1131 561.207 38.7509 557.838C46.6134 554.468 54.9252 552.783 63.6863 552.783H137.145C140.29 552.783 142.648 553.794 144.221 555.816C145.793 557.838 146.58 560.084 146.58 562.555C146.58 564.802 145.793 566.936 144.221 568.957C142.648 570.755 140.29 571.653 137.145 571.653H63.6863C57.3963 571.653 51.5556 572.889 46.1642 575.36C40.7727 577.606 36.0552 580.751 32.0116 584.795C27.9681 588.838 24.7107 593.668 22.2397 599.284C19.9932 604.676 18.87 610.516 18.87 616.806C18.87 623.096 19.9932 628.937 22.2397 634.329C24.7107 639.72 27.9681 644.438 32.0116 648.481C36.0552 652.525 40.7727 655.782 46.1642 658.253C51.5556 660.5 57.3963 661.623 63.6863 661.623H91.9914C100.752 661.623 109.064 663.308 116.927 666.677C124.789 670.047 131.529 674.652 137.145 680.493C142.985 686.109 147.591 692.848 150.96 700.711C154.33 708.573 156.015 716.885 156.015 725.646C156.015 734.407 154.33 742.719 150.96 750.581C147.591 758.444 142.985 765.296 137.145 771.136C131.529 776.752 124.789 781.245 116.927 784.615C109.064 787.985 100.752 789.669 91.9914 789.669H18.87C15.725 789.669 13.2539 788.771 11.4568 786.974C9.8843 784.952 9.09805 782.818 9.09805 780.571C9.09805 778.1 9.8843 775.854 11.4568 773.832C13.2539 771.81 15.725 770.799 18.87 770.799H91.9914C98.2814 770.799 104.122 769.676 109.514 767.43C115.13 764.959 119.959 761.701 124.003 757.658C128.047 753.614 131.192 748.897 133.438 743.505C135.909 737.889 137.145 731.936 137.145 725.646C137.145 719.356 135.909 713.515 133.438 708.124C131.192 702.508 128.047 697.678 124.003 693.634C119.959 689.591 115.13 686.446 109.514 684.199C104.122 681.728 98.2814 680.493 91.9914 680.493H63.6863Z" fill="#F0F0F0"/>
<path d="M311.708 789.669C308.788 789.669 306.429 788.771 304.632 786.974C302.835 785.176 301.936 782.818 301.936 779.897V571.653H226.456C223.536 571.653 221.177 570.755 219.38 568.957C217.583 567.16 216.684 564.802 216.684 561.881C216.684 559.185 217.583 556.939 219.38 555.142C221.402 553.12 223.76 552.109 226.456 552.109H396.623C399.319 552.109 401.678 553.12 403.7 555.142C405.721 556.939 406.732 559.185 406.732 561.881C406.732 564.802 405.721 567.16 403.7 568.957C401.678 570.755 399.319 571.653 396.623 571.653H321.48V779.897C321.48 782.818 320.582 785.176 318.784 786.974C316.987 788.771 314.629 789.669 311.708 789.669Z" fill="#F0F0F0"/>
<path d="M418.271 775.854C418.72 774.955 420.405 771.136 423.325 764.397C426.245 757.658 429.84 749.121 434.108 738.788C438.601 728.229 443.543 716.323 448.934 703.069C454.326 689.815 459.83 676.449 465.446 662.971C471.062 649.267 476.565 635.901 481.957 622.872C487.348 609.843 492.066 598.273 496.109 588.164C500.378 578.055 503.747 569.856 506.218 563.566C508.914 557.276 510.262 554.131 510.262 554.131C512.284 549.189 515.092 546.718 518.686 546.718C522.505 546.718 525.538 549.077 527.784 553.794L624.156 776.865C625.504 779.785 625.504 782.368 624.156 784.615C623.033 786.861 621.348 788.546 619.102 789.669C616.855 790.568 614.496 790.68 612.025 790.006C609.779 789.332 607.982 787.535 606.634 784.615L519.36 582.436C518.237 584.907 516.215 589.737 513.295 596.926C510.374 603.889 506.892 612.314 502.849 622.198C498.805 632.082 494.312 642.865 489.37 654.547C484.428 666.228 479.486 678.134 474.544 690.265C469.602 702.171 464.772 713.74 460.054 724.972C455.561 736.204 451.405 746.201 447.587 754.962C443.992 763.723 440.96 770.912 438.488 776.528C436.242 782.144 435.006 785.176 434.782 785.626C433.209 788.321 431.075 789.782 428.38 790.006C425.908 790.456 423.662 790.119 421.64 788.995C419.618 787.872 418.158 786.075 417.26 783.604C416.361 781.133 416.698 778.55 418.271 775.854Z" fill="#F0F0F0"/>
<path d="M705.801 571.653V779.223C705.801 781.919 704.791 784.278 702.769 786.3C700.747 788.097 698.388 788.995 695.692 788.995C693.221 788.995 690.975 787.985 688.953 785.963C686.931 783.941 685.921 781.695 685.921 779.223V565.588C685.921 561.544 687.493 558.399 690.638 556.153C693.783 553.906 697.153 552.783 700.747 552.783H776.564C785.325 552.783 793.525 554.468 801.162 557.838C809.025 561.207 815.764 565.812 821.38 571.653C827.221 577.269 831.826 584.009 835.196 591.871C838.566 599.734 840.25 608.045 840.25 616.806C840.25 625.568 838.566 633.879 835.196 641.742C831.826 649.38 827.221 656.119 821.38 661.96C815.764 667.576 809.025 672.069 801.162 675.438C793.525 678.808 785.325 680.493 776.564 680.493H753.987L849.685 773.158C852.381 774.955 853.841 777.089 854.066 779.56C854.291 782.031 853.729 784.278 852.381 786.3C851.033 788.097 849.124 789.445 846.653 790.343C844.406 791.242 841.935 790.793 839.239 788.995L726.356 679.145C723.885 677.572 722.2 675.775 721.302 673.753C720.628 671.732 720.516 669.822 720.965 668.025C721.639 666.228 722.874 664.768 724.671 663.645C726.469 662.297 728.827 661.623 731.748 661.623H776.564C782.854 661.623 788.695 660.5 794.086 658.253C799.702 655.782 804.532 652.525 808.576 648.481C812.619 644.438 815.764 639.72 818.011 634.329C820.482 628.937 821.717 623.096 821.717 616.806C821.717 610.516 820.482 604.676 818.011 599.284C815.764 593.668 812.619 588.838 808.576 584.795C804.532 580.751 799.702 577.606 794.086 575.36C788.695 572.889 782.854 571.653 776.564 571.653H705.801Z" fill="#F0F0F0"/>
<path d="M1009.8 789.669C1006.88 789.669 1004.53 788.771 1002.73 786.974C1000.93 785.176 1000.03 782.818 1000.03 779.897V571.653H924.552C921.632 571.653 919.273 570.755 917.476 568.957C915.679 567.16 914.78 564.802 914.78 561.881C914.78 559.185 915.679 556.939 917.476 555.142C919.498 553.12 921.856 552.109 924.552 552.109H1094.72C1097.42 552.109 1099.77 553.12 1101.8 555.142C1103.82 556.939 1104.83 559.185 1104.83 561.881C1104.83 564.802 1103.82 567.16 1101.8 568.957C1099.77 570.755 1097.42 571.653 1094.72 571.653H1019.58V779.897C1019.58 782.818 1018.68 785.176 1016.88 786.974C1015.08 788.771 1012.72 789.669 1009.8 789.669Z" fill="#F0F0F0"/>
</g>
<defs>
<clipPath id="clip0_1264_1638">
<rect width="1345.85" height="260.876" fill="white" transform="translate(0 540)"/>
</clipPath>
</defs>
</svg>
