<svg width="518" height="61" viewBox="0 0 518 61" fill="none" xmlns="http://www.w3.org/2000/svg">
<path d="M47.7663 38.6642L56.2123 44.7322C52.5497 50.2535 48.805 54.2168 44.9783 56.6222C41.2063 58.9728 36.3137 60.1482 30.3003 60.1482C21.7723 60.1482 14.7477 57.3875 9.22634 51.8662C3.705 46.3448 0.944336 39.1562 0.944336 30.3002C0.944336 21.4442 3.75967 14.2555 9.39034 8.73415C15.0757 3.21282 22.1823 0.452148 30.7103 0.452148C36.6143 0.452148 41.7803 1.81882 46.2083 4.55215C50.6363 7.28548 53.8617 10.9208 55.8843 15.4582L47.1103 21.7722C43.4477 14.2282 37.8717 10.4562 30.3823 10.4562C25.189 10.4562 20.8157 12.2875 17.2623 15.9501C13.709 19.6128 11.9323 24.3962 11.9323 30.3002C11.9323 36.0948 13.709 40.8508 17.2623 44.5681C20.8157 48.2855 25.189 50.1442 30.3823 50.1442C37.8717 50.1442 43.6663 46.3175 47.7663 38.6642Z" fill="white"/>
<path d="M114.919 8.98015C120.549 14.6655 123.365 21.7722 123.365 30.3002C123.365 38.8282 120.549 45.9348 114.919 51.6202C109.288 57.3055 102.263 60.1482 93.8446 60.1482C85.4259 60.1482 78.4012 57.3055 72.7706 51.6202C67.1399 45.9348 64.3246 38.8282 64.3246 30.3002C64.3246 21.7722 67.1399 14.6655 72.7706 8.98015C78.4012 3.29482 85.4259 0.452148 93.8446 0.452148C102.263 0.452148 109.288 3.29482 114.919 8.98015ZM80.5606 44.8142C84.0592 48.3675 88.4872 50.1442 93.8446 50.1442C99.2019 50.1442 103.63 48.3675 107.129 44.8142C110.627 41.2062 112.377 36.3682 112.377 30.3002C112.377 24.2322 110.627 19.4215 107.129 15.8682C103.63 12.2602 99.2019 10.4562 93.8446 10.4562C88.4872 10.4562 84.0592 12.2602 80.5606 15.8682C77.0619 19.4215 75.3126 24.2322 75.3126 30.3002C75.3126 36.3682 77.0619 41.2062 80.5606 44.8142Z" fill="white"/>
<path d="M133.682 59.0002V1.60015H145.08L163.366 47.1922L181.652 1.60015H193.05V59.0002H182.554V23.9042L180.996 28.8242L179.766 32.6782L168.532 59.0002H158.2L146.966 32.6782L145.736 28.8242L144.178 23.9042V59.0002H133.682Z" fill="white"/>
<path d="M205.871 59.0002V1.60015H217.269L235.555 47.1922L253.841 1.60015H265.239V59.0002H254.743V23.9042L253.185 28.8242L251.955 32.6782L240.721 59.0002H230.389L219.155 32.6782L217.925 28.8242L216.367 23.9042V59.0002H205.871Z" fill="white"/>
<path d="M324.468 1.60015V37.2702C324.468 44.4315 322.282 50.0348 317.908 54.0802C313.535 58.1255 307.877 60.1482 300.934 60.1482C293.992 60.1482 288.334 58.1255 283.96 54.0802C279.587 50.0348 277.4 44.4315 277.4 37.2702V1.60015H288.224V36.2042C288.224 40.6322 289.345 44.0762 291.586 46.5362C293.828 48.9415 296.944 50.1442 300.934 50.1442C304.925 50.1442 308.041 48.9415 310.282 46.5362C312.524 44.0762 313.644 40.6322 313.644 36.2042V1.60015H324.468Z" fill="white"/>
<path d="M336.636 59.0002V1.60015H347.624L371.568 38.0901C371.677 38.2542 372.032 38.8555 372.634 39.8942C373.235 40.8782 373.7 41.7802 374.028 42.6002V1.60015H384.524V59.0002H373.536L349.592 22.2642C349.482 22.1001 349.127 21.4988 348.526 20.4601C347.815 19.2575 347.35 18.3555 347.132 17.7542V59.0002H336.636Z" fill="white"/>
<path d="M397.373 59.0002V1.60015H408.197V59.0002H397.373Z" fill="white"/>
<path d="M417.162 11.6042V1.60015H463.082V11.6042H445.534V59.0002H434.71V11.6042H417.162Z" fill="white"/>
<path d="M498.593 36.5322V59.0002H487.769V36.5322L468.827 1.60015H480.717L491.377 22.0182C491.487 22.1822 491.596 22.4282 491.705 22.7561C491.869 23.0841 491.979 23.3028 492.033 23.4122L493.181 26.2002C493.291 25.8175 493.482 25.3255 493.755 24.7242C494.029 24.1228 494.22 23.6855 494.329 23.4122C494.384 23.3028 494.466 23.0841 494.575 22.7561C494.739 22.4282 494.876 22.1822 494.985 22.0182L505.645 1.60015H517.535L498.593 36.5322Z" fill="white"/>
</svg>
