<svg width="514" height="61" viewBox="0 0 514 61" fill="none" xmlns="http://www.w3.org/2000/svg">
<path d="M47.594 38.664L56.04 44.732C52.3773 50.2533 48.6327 54.2167 44.806 56.622C41.034 58.9727 36.1413 60.148 30.128 60.148C21.6 60.148 14.5753 57.3873 9.054 51.866C3.53267 46.3447 0.772 39.156 0.772 30.3C0.772 21.444 3.58733 14.2553 9.218 8.734C14.9033 3.21266 22.01 0.451996 30.538 0.451996C36.442 0.451996 41.608 1.81866 46.036 4.552C50.464 7.28533 53.6893 10.9207 55.712 15.458L46.938 21.772C43.2753 14.228 37.6993 10.456 30.21 10.456C25.0167 10.456 20.6433 12.2873 17.09 15.95C13.5367 19.6127 11.76 24.396 11.76 30.3C11.76 36.0947 13.5367 40.8507 17.09 44.568C20.6433 48.2853 25.0167 50.144 30.21 50.144C37.6993 50.144 43.494 46.3173 47.594 38.664ZM113.106 8.98C118.737 14.6653 121.552 21.772 121.552 30.3C121.552 38.828 118.737 45.9347 113.106 51.62C107.476 57.3053 100.451 60.148 92.0322 60.148C83.6136 60.148 76.5889 57.3053 70.9582 51.62C65.3276 45.9347 62.5122 38.828 62.5122 30.3C62.5122 21.772 65.3276 14.6653 70.9582 8.98C76.5889 3.29466 83.6136 0.451996 92.0322 0.451996C100.451 0.451996 107.476 3.29466 113.106 8.98ZM78.7482 44.814C82.2469 48.3673 86.6749 50.144 92.0322 50.144C97.3896 50.144 101.818 48.3673 105.316 44.814C108.815 41.206 110.564 36.368 110.564 30.3C110.564 24.232 108.815 19.4213 105.316 15.868C101.818 12.26 97.3896 10.456 92.0322 10.456C86.6749 10.456 82.2469 12.26 78.7482 15.868C75.2496 19.4213 73.5002 24.232 73.5002 30.3C73.5002 36.368 75.2496 41.206 78.7482 44.814ZM130.23 59V1.6H141.218L165.162 38.09C165.271 38.254 165.627 38.8553 166.228 39.894C166.829 40.878 167.294 41.78 167.622 42.6V1.6H178.118V59H167.13L143.186 22.264C143.077 22.1 142.721 21.4987 142.12 20.46C141.409 19.2573 140.945 18.3553 140.726 17.754V59H130.23ZM185.455 11.604V1.6H231.375V11.604H213.827V59H203.003V11.604H185.455ZM271.948 59L258.664 35.712H249.48V59H238.656V1.6H263.174C269.461 1.6 274.435 3.076 278.098 6.028C281.761 8.92533 283.592 12.8613 283.592 17.836C283.592 25.9267 279.219 31.5573 270.472 34.728L284.33 59H271.948ZM249.48 11.112V26.2H263.174C269.57 26.2 272.768 23.6853 272.768 18.656C272.768 13.6267 269.57 11.112 263.174 11.112H249.48ZM292.468 59V1.6H303.292V59H292.468ZM314.49 59V1.6H338.106C344.01 1.6 348.547 2.83 351.718 5.29C354.889 7.75 356.474 11.194 356.474 15.622C356.474 18.41 355.709 20.8973 354.178 23.084C352.647 25.216 350.761 26.8013 348.52 27.84C355.408 30.628 358.852 35.2747 358.852 41.78C358.852 47.0827 356.884 51.292 352.948 54.408C349.067 57.4693 344.256 59 338.516 59H314.49ZM325.314 33.416V49.324H337.86C344.639 49.324 348.028 46.6727 348.028 41.37C348.028 36.0673 344.639 33.416 337.86 33.416H325.314ZM325.314 11.112V23.904H337.286C340.347 23.904 342.561 23.3847 343.928 22.346C345.295 21.3073 345.978 19.6947 345.978 17.508C345.978 15.3213 345.295 13.7087 343.928 12.67C342.561 11.6313 340.347 11.112 337.286 11.112H325.314ZM413.75 1.6V37.27C413.75 44.4313 411.563 50.0347 407.19 54.08C402.816 58.1253 397.158 60.148 390.216 60.148C383.273 60.148 377.615 58.1253 373.242 54.08C368.868 50.0347 366.682 44.4313 366.682 37.27V1.6H377.506V36.204C377.506 40.632 378.626 44.076 380.868 46.536C383.109 48.9413 386.225 50.144 390.216 50.144C394.206 50.144 397.322 48.9413 399.564 46.536C401.805 44.076 402.926 40.632 402.926 36.204V1.6H413.75ZM420.244 11.604V1.6H466.164V11.604H448.616V59H437.792V11.604H420.244ZM473.445 59V1.6H513.051V11.276H484.269V24.478H510.755V34.154H484.269V49.324H513.297V59H473.445Z" fill="white"/>
</svg>
