<svg viewBox="0 0 694 407" fill="none" xmlns="http://www.w3.org/2000/svg">
<path d="M161.95 111.558L162.62 107.963C163.103 108.178 163.515 108.285 163.854 108.285C164.516 108.285 164.963 107.946 165.196 107.266L165.598 106.193L159.992 92.9149H164.552L167.637 100.667L170.48 92.9149H174.96L168.871 108.151C168.334 109.528 167.699 110.494 166.966 111.048C166.251 111.603 165.303 111.88 164.123 111.88C163.139 111.88 162.415 111.773 161.95 111.558ZM188.176 94.3902C189.624 95.6242 190.349 97.3499 190.349 99.5674C190.349 101.785 189.624 103.511 188.176 104.744C186.727 105.978 184.993 106.595 182.972 106.595C180.951 106.595 179.216 105.978 177.768 104.744C176.319 103.511 175.595 101.785 175.595 99.5674C175.595 97.3499 176.319 95.6242 177.768 94.3902C179.216 93.1563 180.951 92.5393 182.972 92.5393C184.993 92.5393 186.727 93.1563 188.176 94.3902ZM180.638 101.928C181.282 102.5 182.06 102.786 182.972 102.786C183.884 102.786 184.662 102.5 185.306 101.928C185.949 101.338 186.271 100.551 186.271 99.5674C186.271 98.5838 185.949 97.8059 185.306 97.2336C184.662 96.6435 183.884 96.3484 182.972 96.3484C182.06 96.3484 181.282 96.6435 180.638 97.2336C179.994 97.8059 179.672 98.5838 179.672 99.5674C179.672 100.551 179.994 101.338 180.638 101.928ZM192.533 100.962V92.9149H196.557V100.077C196.557 100.935 196.754 101.606 197.147 102.089C197.558 102.554 198.149 102.786 198.918 102.786C199.776 102.786 200.438 102.464 200.903 101.821C201.368 101.177 201.6 100.345 201.6 99.3259V92.9149H205.624V106.22H201.6V104.288C200.724 105.826 199.347 106.595 197.469 106.595C196.056 106.595 194.876 106.095 193.928 105.093C192.998 104.092 192.533 102.715 192.533 100.962ZM119.003 166.027V162.915H120.881V161.198C120.881 159.553 121.364 158.292 122.33 157.416C123.295 156.54 124.52 156.101 126.005 156.101C126.63 156.101 127.265 156.227 127.909 156.477L127.158 159.964C126.836 159.857 126.523 159.803 126.219 159.803C125.808 159.803 125.486 159.937 125.253 160.206C125.021 160.474 124.905 160.832 124.905 161.279V162.915H127.748V166.027H124.905V176.22H120.881V166.027H119.003ZM138.571 162.727L137.9 166.509C137.507 166.402 137.14 166.348 136.801 166.348C135.799 166.348 135.012 166.697 134.44 167.395C133.886 168.092 133.608 169.022 133.608 170.184V176.22H129.585V162.915H133.608V164.605C134.449 163.228 135.683 162.539 137.31 162.539C137.739 162.539 138.16 162.602 138.571 162.727ZM140.404 176.22V162.915H144.427V176.22H140.404ZM140.243 161.359V157.067H144.588V161.359H140.243ZM160.329 170.56H150.484C150.591 171.382 150.94 172.026 151.53 172.491C152.12 172.938 152.836 173.162 153.676 173.162C154.445 173.162 155.089 173.001 155.607 172.679C156.144 172.357 156.627 171.821 157.056 171.07L159.953 172.706C158.701 175.299 156.555 176.595 153.515 176.595C151.655 176.595 150.046 175.934 148.687 174.61C147.346 173.287 146.675 171.606 146.675 169.567C146.675 167.493 147.346 165.803 148.687 164.498C150.028 163.192 151.727 162.539 153.783 162.539C155.733 162.539 157.306 163.174 158.505 164.444C159.721 165.714 160.329 167.296 160.329 169.192V170.56ZM153.703 165.651C152.165 165.651 151.146 166.348 150.645 167.743H156.707C156.546 167.082 156.198 166.572 155.661 166.214C155.125 165.839 154.472 165.651 153.703 165.651ZM175.813 167.153V176.22H171.789V168.977C171.789 167.225 171.002 166.348 169.429 166.348C168.606 166.348 167.953 166.661 167.47 167.287C166.988 167.913 166.746 168.754 166.746 169.809V176.22H162.722V162.915H166.746V164.819C167.819 163.299 169.259 162.539 171.065 162.539C172.549 162.539 173.712 162.969 174.552 163.827C175.393 164.667 175.813 165.776 175.813 167.153ZM192.57 157.443V176.22H188.547V174.664C187.581 175.952 186.168 176.595 184.308 176.595C182.645 176.595 181.179 175.952 179.909 174.664C178.657 173.359 178.031 171.66 178.031 169.567C178.031 167.457 178.684 165.758 179.989 164.471C181.295 163.183 182.851 162.539 184.657 162.539C186.445 162.539 187.742 163.129 188.547 164.31V157.443H192.57ZM183.047 171.955C183.691 172.581 184.487 172.894 185.435 172.894C186.383 172.894 187.17 172.581 187.795 171.955C188.439 171.329 188.761 170.533 188.761 169.567C188.761 168.62 188.439 167.833 187.795 167.207C187.17 166.563 186.383 166.241 185.435 166.241C184.487 166.241 183.691 166.563 183.047 167.207C182.422 167.833 182.109 168.62 182.109 169.567C182.109 170.533 182.422 171.329 183.047 171.955ZM198.86 166.295C198.86 166.635 199.092 166.912 199.557 167.126C200.022 167.341 200.737 167.564 201.703 167.797C203.313 168.155 204.466 168.664 205.163 169.326C205.879 169.988 206.236 170.9 206.236 172.062C206.236 173.368 205.727 174.449 204.707 175.308C203.706 176.166 202.401 176.595 200.791 176.595C197.715 176.595 195.587 175.209 194.407 172.438L197.492 170.533C198.207 172.393 199.325 173.323 200.845 173.323C201.345 173.323 201.748 173.233 202.052 173.055C202.374 172.858 202.535 172.599 202.535 172.277C202.535 171.883 202.338 171.579 201.945 171.365C201.551 171.132 200.898 170.926 199.986 170.748C198.609 170.479 197.483 169.988 196.606 169.272C195.748 168.557 195.319 167.627 195.319 166.483C195.319 165.284 195.802 164.328 196.767 163.612C197.733 162.897 198.931 162.539 200.362 162.539C201.828 162.539 202.991 162.817 203.849 163.371C204.707 163.907 205.441 164.766 206.049 165.946L203.152 167.636C202.633 166.134 201.721 165.383 200.416 165.383C199.378 165.383 198.86 165.687 198.86 166.295ZM55.6987 240.587L59.0249 242.733C57.7553 245.308 55.6361 246.595 52.6675 246.595C50.6289 246.595 48.93 245.952 47.5709 244.664C46.2297 243.359 45.559 241.66 45.559 239.567C45.559 237.511 46.2565 235.83 47.6514 234.524C49.0462 233.201 50.7183 232.539 52.6675 232.539C55.6004 232.539 57.6658 233.746 58.864 236.161L55.6182 238.333C54.9923 236.939 54.0088 236.241 52.6675 236.241C51.7734 236.241 51.0402 236.545 50.4679 237.153C49.9136 237.761 49.6364 238.566 49.6364 239.567C49.6364 240.587 49.9046 241.4 50.4411 242.008C50.9955 242.599 51.7287 242.894 52.6407 242.894C53.9998 242.894 55.0192 242.125 55.6987 240.587ZM72.9404 234.39C74.3889 235.624 75.1132 237.35 75.1132 239.567C75.1132 241.785 74.3889 243.511 72.9404 244.744C71.4919 245.978 69.7572 246.595 67.7364 246.595C65.7156 246.595 63.981 245.978 62.5325 244.744C61.0839 243.511 60.3597 241.785 60.3597 239.567C60.3597 237.35 61.0839 235.624 62.5325 234.39C63.981 233.156 65.7156 232.539 67.7364 232.539C69.7572 232.539 71.4919 233.156 72.9404 234.39ZM65.4027 241.928C66.0465 242.5 66.8244 242.786 67.7364 242.786C68.6485 242.786 69.4264 242.5 70.0702 241.928C70.7139 241.338 71.0358 240.551 71.0358 239.567C71.0358 238.584 70.7139 237.806 70.0702 237.234C69.4264 236.643 68.6485 236.348 67.7364 236.348C66.8244 236.348 66.0465 236.643 65.4027 237.234C64.7589 237.806 64.437 238.584 64.437 239.567C64.437 240.551 64.7589 241.338 65.4027 241.928ZM97.5735 237.368V246.22H93.5498V238.172C93.5498 236.813 92.9149 236.134 91.6452 236.134C91.0372 236.134 90.5276 236.357 90.1162 236.804C89.7228 237.234 89.5261 237.86 89.5261 238.682V246.22H85.5024V238.253C85.5024 237.627 85.3415 237.117 85.0196 236.724C84.6977 236.331 84.2238 236.134 83.5979 236.134C83.0256 236.134 82.5249 236.357 82.0957 236.804C81.6844 237.252 81.4787 237.877 81.4787 238.682V246.22H77.4551V232.915H81.4787V234.39C82.4802 233.156 83.7767 232.539 85.3683 232.539C87.0135 232.539 88.2385 233.21 89.0433 234.551C90.0089 233.21 91.4038 232.539 93.2279 232.539C94.5691 232.539 95.6242 232.977 96.3932 233.854C97.18 234.73 97.5735 235.901 97.5735 237.368ZM120.704 237.368V246.22H116.681V238.172C116.681 236.813 116.046 236.134 114.776 236.134C114.168 236.134 113.658 236.357 113.247 236.804C112.854 237.234 112.657 237.86 112.657 238.682V246.22H108.633V238.253C108.633 237.627 108.472 237.117 108.15 236.724C107.829 236.331 107.355 236.134 106.729 236.134C106.157 236.134 105.656 236.357 105.227 236.804C104.815 237.252 104.61 237.877 104.61 238.682V246.22H100.586V232.915H104.61V234.39C105.611 233.156 106.908 232.539 108.499 232.539C110.144 232.539 111.369 233.21 112.174 234.551C113.14 233.21 114.535 232.539 116.359 232.539C117.7 232.539 118.755 232.977 119.524 233.854C120.311 234.73 120.704 235.901 120.704 237.368ZM123.507 240.962V232.915H127.531V240.077C127.531 240.935 127.728 241.606 128.121 242.089C128.532 242.554 129.123 242.786 129.892 242.786C130.75 242.786 131.412 242.464 131.877 241.821C132.342 241.177 132.574 240.345 132.574 239.326V232.915H136.598V246.22H132.574V244.288C131.698 245.826 130.321 246.595 128.443 246.595C127.03 246.595 125.85 246.095 124.902 245.093C123.972 244.092 123.507 242.715 123.507 240.962ZM152.603 237.153V246.22H148.58V238.977C148.58 237.225 147.793 236.348 146.219 236.348C145.396 236.348 144.744 236.661 144.261 237.287C143.778 237.913 143.537 238.754 143.537 239.809V246.22H139.513V232.915H143.537V234.819C144.61 233.299 146.049 232.539 147.855 232.539C149.34 232.539 150.502 232.969 151.343 233.827C152.183 234.667 152.603 235.776 152.603 237.153ZM155.597 246.22V232.915H159.621V246.22H155.597ZM155.436 231.359V227.067H159.782V231.359H155.436ZM161.706 236.027V232.915H163.637V229.32H167.661V232.915H170.424V236.027H167.661V241.284C167.661 241.821 167.795 242.241 168.063 242.545C168.331 242.849 168.689 243.001 169.136 243.001C169.583 243.001 170.003 242.929 170.397 242.786L170.772 246.139C170.021 246.443 169.127 246.595 168.09 246.595C166.856 246.595 165.801 246.238 164.925 245.522C164.066 244.807 163.637 243.663 163.637 242.089V236.027H161.706ZM172.991 246.22V232.915H177.015V246.22H172.991ZM172.83 231.359V227.067H177.176V231.359H172.83ZM192.916 240.56H183.072C183.179 241.382 183.528 242.026 184.118 242.491C184.708 242.938 185.423 243.162 186.264 243.162C187.033 243.162 187.676 243.001 188.195 242.679C188.732 242.357 189.214 241.821 189.644 241.07L192.541 242.706C191.289 245.299 189.143 246.595 186.103 246.595C184.243 246.595 182.633 245.934 181.274 244.61C179.933 243.287 179.262 241.606 179.262 239.567C179.262 237.493 179.933 235.803 181.274 234.498C182.616 233.192 184.314 232.539 186.371 232.539C188.32 232.539 189.894 233.174 191.092 234.444C192.308 235.714 192.916 237.296 192.916 239.192V240.56ZM186.291 235.651C184.753 235.651 183.733 236.348 183.233 237.743H189.295C189.134 237.082 188.785 236.572 188.249 236.214C187.712 235.839 187.059 235.651 186.291 235.651ZM198.86 236.295C198.86 236.635 199.092 236.912 199.557 237.126C200.022 237.341 200.737 237.564 201.703 237.797C203.313 238.155 204.466 238.664 205.163 239.326C205.879 239.988 206.236 240.9 206.236 242.062C206.236 243.368 205.727 244.449 204.707 245.308C203.706 246.166 202.401 246.595 200.791 246.595C197.715 246.595 195.587 245.209 194.407 242.438L197.492 240.533C198.207 242.393 199.325 243.323 200.845 243.323C201.345 243.323 201.748 243.233 202.052 243.055C202.374 242.858 202.535 242.599 202.535 242.277C202.535 241.883 202.338 241.579 201.945 241.365C201.551 241.132 200.898 240.926 199.986 240.748C198.609 240.479 197.483 239.988 196.606 239.272C195.748 238.557 195.319 237.627 195.319 236.483C195.319 235.284 195.802 234.328 196.767 233.612C197.733 232.897 198.931 232.539 200.362 232.539C201.828 232.539 202.991 232.817 203.849 233.371C204.707 233.907 205.441 234.766 206.049 235.946L203.152 237.636C202.633 236.134 201.721 235.383 200.416 235.383C199.378 235.383 198.86 235.687 198.86 236.295ZM69.3868 316.22V297.443H73.4104V304.39C74.5549 303.156 76.0303 302.539 77.8365 302.539C79.4281 302.539 80.8408 303.165 82.0748 304.417C83.3087 305.669 83.9256 307.386 83.9256 309.567C83.9256 311.767 83.2997 313.493 82.0479 314.744C80.814 315.978 79.3565 316.595 77.6755 316.595C75.8693 316.595 74.4476 315.961 73.4104 314.691V316.22H69.3868ZM74.1615 311.982C74.8053 312.59 75.5922 312.894 76.5221 312.894C77.452 312.894 78.2388 312.59 78.8826 311.982C79.5264 311.356 79.8483 310.551 79.8483 309.567C79.8483 308.584 79.5264 307.788 78.8826 307.18C78.2388 306.554 77.452 306.241 76.5221 306.241C75.5922 306.241 74.8053 306.554 74.1615 307.18C73.5177 307.788 73.1958 308.584 73.1958 309.567C73.1958 310.551 73.5177 311.356 74.1615 311.982ZM86.0997 310.962V302.915H90.1234V310.077C90.1234 310.935 90.3201 311.606 90.7135 312.089C91.1248 312.554 91.715 312.786 92.4839 312.786C93.3423 312.786 94.004 312.464 94.4689 311.821C94.9339 311.177 95.1664 310.345 95.1664 309.326V302.915H99.1901V316.22H95.1664V314.288C94.2901 315.826 92.9131 316.595 91.0354 316.595C89.6226 316.595 88.4424 316.095 87.4946 315.093C86.5647 314.092 86.0997 312.715 86.0997 310.962ZM102.184 316.22V302.915H106.208V316.22H102.184ZM102.023 301.359V297.067H106.369V301.359H102.023ZM112.413 306.295C112.413 306.635 112.646 306.912 113.111 307.126C113.576 307.341 114.291 307.564 115.257 307.797C116.866 308.155 118.02 308.664 118.717 309.326C119.433 309.988 119.79 310.9 119.79 312.062C119.79 313.368 119.281 314.449 118.261 315.308C117.26 316.166 115.954 316.595 114.345 316.595C111.269 316.595 109.141 315.209 107.961 312.438L111.045 310.533C111.761 312.393 112.878 313.323 114.399 313.323C114.899 313.323 115.302 313.233 115.606 313.055C115.928 312.858 116.088 312.599 116.088 312.277C116.088 311.883 115.892 311.579 115.498 311.365C115.105 311.132 114.452 310.926 113.54 310.748C112.163 310.479 111.037 309.988 110.16 309.272C109.302 308.557 108.873 307.627 108.873 306.483C108.873 305.284 109.355 304.328 110.321 303.612C111.287 302.897 112.485 302.539 113.916 302.539C115.382 302.539 116.544 302.817 117.403 303.371C118.261 303.907 118.994 304.766 119.602 305.946L116.705 307.636C116.187 306.134 115.275 305.383 113.969 305.383C112.932 305.383 112.413 305.687 112.413 306.295ZM135.052 307.153V316.22H131.028V308.977C131.028 307.225 130.242 306.348 128.668 306.348C127.845 306.348 127.193 306.661 126.71 307.287C126.227 307.913 125.985 308.754 125.985 309.809V316.22H121.962V302.915H125.985V304.819C127.058 303.299 128.498 302.539 130.304 302.539C131.788 302.539 132.951 302.969 133.791 303.827C134.632 304.667 135.052 305.776 135.052 307.153ZM150.924 310.56H141.08C141.187 311.382 141.536 312.026 142.126 312.491C142.716 312.938 143.431 313.162 144.272 313.162C145.041 313.162 145.685 313.001 146.203 312.679C146.74 312.357 147.222 311.821 147.652 311.07L150.549 312.706C149.297 315.299 147.151 316.595 144.111 316.595C142.251 316.595 140.642 315.934 139.282 314.61C137.941 313.287 137.271 311.606 137.271 309.567C137.271 307.493 137.941 305.803 139.282 304.498C140.624 303.192 142.323 302.539 144.379 302.539C146.328 302.539 147.902 303.174 149.1 304.444C150.316 305.714 150.924 307.296 150.924 309.192V310.56ZM144.299 305.651C142.761 305.651 141.741 306.348 141.241 307.743H147.303C147.142 307.082 146.793 306.572 146.257 306.214C145.72 305.839 145.068 305.651 144.299 305.651ZM156.868 306.295C156.868 306.635 157.1 306.912 157.565 307.126C158.03 307.341 158.746 307.564 159.711 307.797C161.321 308.155 162.474 308.664 163.172 309.326C163.887 309.988 164.245 310.9 164.245 312.062C164.245 313.368 163.735 314.449 162.716 315.308C161.714 316.166 160.409 316.595 158.799 316.595C155.723 316.595 153.595 315.209 152.415 312.438L155.5 310.533C156.215 312.393 157.333 313.323 158.853 313.323C159.354 313.323 159.756 313.233 160.06 313.055C160.382 312.858 160.543 312.599 160.543 312.277C160.543 311.883 160.346 311.579 159.953 311.365C159.559 311.132 158.906 310.926 157.994 310.748C156.617 310.479 155.491 309.988 154.615 309.272C153.756 308.557 153.327 307.627 153.327 306.483C153.327 305.284 153.81 304.328 154.775 303.612C155.741 302.897 156.939 302.539 158.37 302.539C159.836 302.539 160.999 302.817 161.857 303.371C162.716 303.907 163.449 304.766 164.057 305.946L161.16 307.636C160.641 306.134 159.729 305.383 158.424 305.383C157.386 305.383 156.868 305.687 156.868 306.295ZM170.28 306.295C170.28 306.635 170.513 306.912 170.978 307.126C171.442 307.341 172.158 307.564 173.123 307.797C174.733 308.155 175.886 308.664 176.584 309.326C177.299 309.988 177.657 310.9 177.657 312.062C177.657 313.368 177.147 314.449 176.128 315.308C175.126 316.166 173.821 316.595 172.211 316.595C169.136 316.595 167.007 315.209 165.827 312.438L168.912 310.533C169.627 312.393 170.745 313.323 172.265 313.323C172.766 313.323 173.168 313.233 173.472 313.055C173.794 312.858 173.955 312.599 173.955 312.277C173.955 311.883 173.758 311.579 173.365 311.365C172.971 311.132 172.319 310.926 171.407 310.748C170.03 310.479 168.903 309.988 168.027 309.272C167.168 308.557 166.739 307.627 166.739 306.483C166.739 305.284 167.222 304.328 168.188 303.612C169.153 302.897 170.352 302.539 171.782 302.539C173.249 302.539 174.411 302.817 175.269 303.371C176.128 303.907 176.861 304.766 177.469 305.946L174.572 307.636C174.053 306.134 173.141 305.383 171.836 305.383C170.799 305.383 170.28 305.687 170.28 306.295ZM192.916 310.56H183.072C183.179 311.382 183.528 312.026 184.118 312.491C184.708 312.938 185.423 313.162 186.264 313.162C187.033 313.162 187.676 313.001 188.195 312.679C188.732 312.357 189.214 311.821 189.644 311.07L192.541 312.706C191.289 315.299 189.143 316.595 186.103 316.595C184.243 316.595 182.633 315.934 181.274 314.61C179.933 313.287 179.262 311.606 179.262 309.567C179.262 307.493 179.933 305.803 181.274 304.498C182.616 303.192 184.314 302.539 186.371 302.539C188.32 302.539 189.894 303.174 191.092 304.444C192.308 305.714 192.916 307.296 192.916 309.192V310.56ZM186.291 305.651C184.753 305.651 183.733 306.348 183.233 307.743H189.295C189.134 307.082 188.785 306.572 188.249 306.214C187.712 305.839 187.059 305.651 186.291 305.651ZM198.86 306.295C198.86 306.635 199.092 306.912 199.557 307.126C200.022 307.341 200.737 307.564 201.703 307.797C203.313 308.155 204.466 308.664 205.163 309.326C205.879 309.988 206.236 310.9 206.236 312.062C206.236 313.368 205.727 314.449 204.707 315.308C203.706 316.166 202.401 316.595 200.791 316.595C197.715 316.595 195.587 315.209 194.407 312.438L197.492 310.533C198.207 312.393 199.325 313.323 200.845 313.323C201.345 313.323 201.748 313.233 202.052 313.055C202.374 312.858 202.535 312.599 202.535 312.277C202.535 311.883 202.338 311.579 201.945 311.365C201.551 311.132 200.898 310.926 199.986 310.748C198.609 310.479 197.483 309.988 196.606 309.272C195.748 308.557 195.319 307.627 195.319 306.483C195.319 305.284 195.802 304.328 196.767 303.612C197.733 302.897 198.931 302.539 200.362 302.539C201.828 302.539 202.991 302.817 203.849 303.371C204.707 303.907 205.441 304.766 206.049 305.946L203.152 307.636C202.633 306.134 201.721 305.383 200.416 305.383C199.378 305.383 198.86 305.687 198.86 306.295Z"class="svg-primary"/>
<path d="M508.912 35.0884C508.912 33.0038 509.625 30.9192 509.625 28.1398C509.625 12.8526 496.8 0.344971 481.124 0.344971C469.724 0.344971 460.462 6.5988 455.474 15.6321C454.049 14.9372 451.199 14.2424 449.061 14.2424C439.086 14.2424 431.248 21.8859 431.248 31.6141C431.248 33.0038 431.248 34.3936 431.961 35.0884C419.136 37.1731 409.873 46.9012 409.873 59.4089C409.873 72.6114 421.273 83.7293 434.811 83.7293H506.062C519.6 83.7293 531 72.6114 531 59.4089C531 46.9012 521.738 36.4782 508.912 35.0884Z"class="svg-primary"/>
<path d="M479.812 38.0137H477.95V32.5878C477.95 28.6088 474.598 25.3533 470.501 25.3533C466.404 25.3533 463.052 28.6088 463.052 32.5878V38.0137H461.19C460.259 38.0137 459.328 38.918 459.328 39.8223V52.4827C459.328 53.387 460.259 54.2913 461.19 54.2913H479.812C480.743 54.2913 481.674 53.387 481.674 52.4827V39.8223C481.674 38.918 480.743 38.0137 479.812 38.0137ZM472.363 50.674H468.639L469.384 46.6951C468.453 46.3333 467.708 45.2482 467.708 44.3438C467.708 42.8969 469.011 41.6309 470.501 41.6309C471.991 41.6309 473.294 42.8969 473.294 44.3438C473.294 45.429 472.736 46.3333 471.619 46.6951L472.363 50.674ZM474.226 38.0137H466.777V32.5878C466.777 30.5983 468.453 28.9705 470.501 28.9705C472.55 28.9705 474.226 30.5983 474.226 32.5878V38.0137Z"class="svg-secondary"/>
<path d="M439.358 73.9993V64.8672H446.024V66.7197H441.471V68.3765H445.659V70.1768H441.471V72.1468H446.063V73.9993H439.358ZM447.371 73.9993V64.8672H449.654L452.355 71.5336L455.055 64.8672H457.338V73.9993H455.277V69.0027L455.029 69.7724C454.96 69.9725 454.894 70.1725 454.834 70.3725L453.307 73.9993H451.402L449.876 70.3725C449.815 70.1725 449.75 69.9725 449.68 69.7724L449.433 69.0027V73.9993H447.371ZM459.028 73.9993V64.8672H462.942C463.881 64.8672 464.621 65.0672 465.16 65.4673C465.708 65.8587 465.982 66.4066 465.982 67.1111C465.982 67.5546 465.877 67.9243 465.669 68.22C465.469 68.507 465.177 68.7723 464.795 69.0158C465.247 69.2071 465.621 69.4898 465.917 69.8637C466.212 70.229 466.36 70.6943 466.36 71.2596C466.36 72.1033 466.043 72.773 465.408 73.2687C464.782 73.7557 464.003 73.9993 463.073 73.9993H459.028ZM461.142 70.0333V72.2511H463.007C463.895 72.2511 464.338 71.8858 464.338 71.1553C464.338 70.4073 463.895 70.0333 463.007 70.0333H461.142ZM461.142 66.511V68.3113H462.903C463.26 68.3113 463.534 68.233 463.725 68.0765C463.925 67.9112 464.025 67.6851 464.025 67.3981C464.025 67.1198 463.929 66.9024 463.738 66.7458C463.547 66.5893 463.268 66.511 462.903 66.511H461.142ZM466.68 73.9993L470.398 64.8672H472.381L476.099 73.9993H473.803L472.981 71.7945H469.798L468.976 73.9993H466.68ZM471.011 68.507L470.463 69.9942H472.315L471.767 68.507L471.637 68.1678C471.559 67.9852 471.476 67.7373 471.389 67.4242C471.372 67.4851 471.346 67.572 471.311 67.6851C471.276 67.7895 471.246 67.8808 471.22 67.9591C471.193 68.0373 471.167 68.1069 471.141 68.1678L471.011 68.507ZM478.733 67.2676C478.733 67.5199 478.894 67.7416 479.216 67.933C479.538 68.1156 480.099 68.2939 480.899 68.4678C481.917 68.6766 482.656 69.0027 483.117 69.4463C483.586 69.8898 483.821 70.4899 483.821 71.2466C483.821 72.0728 483.517 72.7686 482.908 73.3339C482.299 73.8992 481.46 74.1819 480.39 74.1819C478.251 74.1819 476.916 73.1948 476.385 71.2205L478.172 70.3595C478.346 71.0205 478.603 71.5162 478.942 71.8467C479.29 72.1685 479.773 72.3294 480.39 72.3294C480.799 72.3294 481.125 72.2424 481.369 72.0685C481.621 71.8858 481.747 71.6597 481.747 71.3901C481.747 71.0422 481.582 70.7683 481.251 70.5682C480.921 70.3595 480.403 70.1855 479.699 70.0464C477.785 69.6811 476.829 68.7679 476.829 67.3068C476.829 66.5153 477.129 65.8804 477.729 65.4021C478.329 64.9237 479.125 64.6846 480.116 64.6846C481.012 64.6846 481.747 64.8803 482.321 65.2716C482.895 65.663 483.343 66.2631 483.665 67.0719L482.086 68.0112C481.73 66.9415 481.06 66.4066 480.077 66.4066C479.686 66.4066 479.364 66.4849 479.112 66.6414C478.86 66.798 478.733 67.0067 478.733 67.2676ZM487.104 67.2676C487.104 67.5199 487.265 67.7416 487.586 67.933C487.908 68.1156 488.469 68.2939 489.269 68.4678C490.287 68.6766 491.026 69.0027 491.487 69.4463C491.957 69.8898 492.191 70.4899 492.191 71.2466C492.191 72.0728 491.887 72.7686 491.278 73.3339C490.669 73.8992 489.83 74.1819 488.76 74.1819C486.621 74.1819 485.286 73.1948 484.755 71.2205L486.543 70.3595C486.717 71.0205 486.973 71.5162 487.312 71.8467C487.66 72.1685 488.143 72.3294 488.76 72.3294C489.169 72.3294 489.495 72.2424 489.739 72.0685C489.991 71.8858 490.117 71.6597 490.117 71.3901C490.117 71.0422 489.952 70.7683 489.621 70.5682C489.291 70.3595 488.773 70.1855 488.069 70.0464C486.156 69.6811 485.199 68.7679 485.199 67.3068C485.199 66.5153 485.499 65.8804 486.099 65.4021C486.699 64.9237 487.495 64.6846 488.486 64.6846C489.382 64.6846 490.117 64.8803 490.691 65.2716C491.265 65.663 491.713 66.2631 492.035 67.0719L490.456 68.0112C490.1 66.9415 489.43 66.4066 488.447 66.4066C488.056 66.4066 487.734 66.4849 487.482 66.6414C487.23 66.798 487.104 67.0067 487.104 67.2676ZM497.427 70.5291V73.9993H495.313V70.5291L492.274 64.8672H494.648L496.109 67.7764L496.201 67.9982C496.296 68.2591 496.353 68.4113 496.37 68.4548L496.54 67.9982L496.631 67.7764L498.092 64.8672H500.453L497.427 70.5291Z"class="svg-secondary"/>
<path d="M508.912 138.871C508.912 136.787 509.625 134.702 509.625 131.922C509.625 116.635 496.8 104.128 481.124 104.128C469.724 104.128 460.462 110.382 455.474 119.415C454.049 118.72 451.199 118.025 449.061 118.025C439.086 118.025 431.248 125.669 431.248 135.397C431.248 136.787 431.248 138.176 431.961 138.871C419.136 140.956 409.873 150.684 409.873 163.192C409.873 176.394 421.273 187.512 434.811 187.512H506.062C519.6 187.512 531 176.394 531 163.192C531 150.684 521.738 140.261 508.912 138.871Z"class="svg-primary"/>
<path d="M479.812 141.796H477.95V136.37C477.95 132.392 474.598 129.136 470.501 129.136C466.404 129.136 463.052 132.392 463.052 136.37V141.796H461.19C460.259 141.796 459.328 142.701 459.328 143.605V156.265C459.328 157.17 460.259 158.074 461.19 158.074H479.812C480.743 158.074 481.674 157.17 481.674 156.265V143.605C481.674 142.701 480.743 141.796 479.812 141.796ZM472.363 154.457H468.639L469.384 150.478C468.453 150.116 467.708 149.031 467.708 148.127C467.708 146.68 469.011 145.414 470.501 145.414C471.991 145.414 473.294 146.68 473.294 148.127C473.294 149.212 472.736 150.116 471.619 150.478L472.363 154.457ZM474.226 141.796H466.777V136.37C466.777 134.381 468.453 132.753 470.501 132.753C472.55 132.753 474.226 134.381 474.226 136.37V141.796Z"class="svg-secondary"/>
<path d="M439.358 175.001V165.869H446.024V167.721H441.471V169.378H445.659V171.178H441.471V173.148H446.063V175.001H439.358ZM447.371 175.001V165.869H449.654L452.355 172.535L455.055 165.869H457.338V175.001H455.277V170.004L455.029 170.774C454.96 170.974 454.894 171.174 454.834 171.374L453.307 175.001H451.402L449.876 171.374C449.815 171.174 449.75 170.974 449.68 170.774L449.433 170.004V175.001H447.371ZM459.028 175.001V165.869H462.942C463.881 165.869 464.621 166.069 465.16 166.469C465.708 166.86 465.982 167.408 465.982 168.113C465.982 168.556 465.877 168.926 465.669 169.221C465.469 169.508 465.177 169.774 464.795 170.017C465.247 170.209 465.621 170.491 465.917 170.865C466.212 171.23 466.36 171.696 466.36 172.261C466.36 173.105 466.043 173.774 465.408 174.27C464.782 174.757 464.003 175.001 463.073 175.001H459.028ZM461.142 171.035V173.253H463.007C463.895 173.253 464.338 172.887 464.338 172.157C464.338 171.409 463.895 171.035 463.007 171.035H461.142ZM461.142 167.512V169.313H462.903C463.26 169.313 463.534 169.234 463.725 169.078C463.925 168.913 464.025 168.687 464.025 168.4C464.025 168.121 463.929 167.904 463.738 167.747C463.547 167.591 463.268 167.512 462.903 167.512H461.142ZM466.68 175.001L470.398 165.869H472.381L476.099 175.001H473.803L472.981 172.796H469.798L468.976 175.001H466.68ZM471.011 169.508L470.463 170.996H472.315L471.767 169.508L471.637 169.169C471.559 168.987 471.476 168.739 471.389 168.426C471.372 168.487 471.346 168.574 471.311 168.687C471.276 168.791 471.246 168.882 471.22 168.961C471.193 169.039 471.167 169.108 471.141 169.169L471.011 169.508ZM478.733 168.269C478.733 168.521 478.894 168.743 479.216 168.934C479.538 169.117 480.099 169.295 480.899 169.469C481.917 169.678 482.656 170.004 483.117 170.448C483.586 170.891 483.821 171.491 483.821 172.248C483.821 173.074 483.517 173.77 482.908 174.335C482.299 174.901 481.46 175.183 480.39 175.183C478.251 175.183 476.916 174.196 476.385 172.222L478.172 171.361C478.346 172.022 478.603 172.518 478.942 172.848C479.29 173.17 479.773 173.331 480.39 173.331C480.799 173.331 481.125 173.244 481.369 173.07C481.621 172.887 481.747 172.661 481.747 172.392C481.747 172.044 481.582 171.77 481.251 171.57C480.921 171.361 480.403 171.187 479.699 171.048C477.785 170.683 476.829 169.769 476.829 168.308C476.829 167.517 477.129 166.882 477.729 166.404C478.329 165.925 479.125 165.686 480.116 165.686C481.012 165.686 481.747 165.882 482.321 166.273C482.895 166.664 483.343 167.265 483.665 168.073L482.086 169.013C481.73 167.943 481.06 167.408 480.077 167.408C479.686 167.408 479.364 167.486 479.112 167.643C478.86 167.799 478.733 168.008 478.733 168.269ZM487.104 168.269C487.104 168.521 487.265 168.743 487.586 168.934C487.908 169.117 488.469 169.295 489.269 169.469C490.287 169.678 491.026 170.004 491.487 170.448C491.957 170.891 492.191 171.491 492.191 172.248C492.191 173.074 491.887 173.77 491.278 174.335C490.669 174.901 489.83 175.183 488.76 175.183C486.621 175.183 485.286 174.196 484.755 172.222L486.543 171.361C486.717 172.022 486.973 172.518 487.312 172.848C487.66 173.17 488.143 173.331 488.76 173.331C489.169 173.331 489.495 173.244 489.739 173.07C489.991 172.887 490.117 172.661 490.117 172.392C490.117 172.044 489.952 171.77 489.621 171.57C489.291 171.361 488.773 171.187 488.069 171.048C486.156 170.683 485.199 169.769 485.199 168.308C485.199 167.517 485.499 166.882 486.099 166.404C486.699 165.925 487.495 165.686 488.486 165.686C489.382 165.686 490.117 165.882 490.691 166.273C491.265 166.664 491.713 167.265 492.035 168.073L490.456 169.013C490.1 167.943 489.43 167.408 488.447 167.408C488.056 167.408 487.734 167.486 487.482 167.643C487.23 167.799 487.104 168.008 487.104 168.269ZM497.427 171.531V175.001H495.313V171.531L492.274 165.869H494.648L496.109 168.778L496.201 169C496.296 169.261 496.353 169.413 496.37 169.456L496.54 169L496.631 168.778L498.092 165.869H500.453L497.427 171.531Z"class="svg-secondary"/>
<path d="M508.912 248.536C508.912 246.452 509.625 244.367 509.625 241.588C509.625 226.3 496.8 213.793 481.124 213.793C469.724 213.793 460.462 220.047 455.474 229.08C454.049 228.385 451.199 227.69 449.061 227.69C439.086 227.69 431.248 235.334 431.248 245.062C431.248 246.452 431.248 247.841 431.961 248.536C419.136 250.621 409.873 260.349 409.873 272.857C409.873 286.059 421.273 297.177 434.811 297.177H506.062C519.6 297.177 531 286.059 531 272.857C531 260.349 521.738 249.926 508.912 248.536Z"class="svg-primary"/>
<path d="M479.812 251.461H477.95V246.036C477.95 242.057 474.598 238.801 470.501 238.801C466.404 238.801 463.052 242.057 463.052 246.036V251.461H461.19C460.259 251.461 459.328 252.366 459.328 253.27V265.93C459.328 266.835 460.259 267.739 461.19 267.739H479.812C480.743 267.739 481.674 266.835 481.674 265.93V253.27C481.674 252.366 480.743 251.461 479.812 251.461ZM472.363 264.122H468.639L469.384 260.143C468.453 259.781 467.708 258.696 467.708 257.792C467.708 256.345 469.011 255.079 470.501 255.079C471.991 255.079 473.294 256.345 473.294 257.792C473.294 258.877 472.736 259.781 471.619 260.143L472.363 264.122ZM474.226 251.461H466.777V246.036C466.777 244.046 468.453 242.418 470.501 242.418C472.55 242.418 474.226 244.046 474.226 246.036V251.461Z"class="svg-secondary"/>
<path d="M439.358 286V276.868H446.024V278.72H441.471V280.377H445.659V282.177H441.471V284.147H446.063V286H439.358ZM447.371 286V276.868H449.654L452.355 283.534L455.055 276.868H457.338V286H455.277V281.003L455.029 281.773C454.96 281.973 454.894 282.173 454.834 282.373L453.307 286H451.402L449.876 282.373C449.815 282.173 449.75 281.973 449.68 281.773L449.433 281.003V286H447.371ZM459.028 286V276.868H462.942C463.881 276.868 464.621 277.068 465.16 277.468C465.708 277.859 465.982 278.407 465.982 279.112C465.982 279.555 465.877 279.925 465.669 280.22C465.469 280.507 465.177 280.773 464.795 281.016C465.247 281.208 465.621 281.49 465.917 281.864C466.212 282.23 466.36 282.695 466.36 283.26C466.36 284.104 466.043 284.773 465.408 285.269C464.782 285.756 464.003 286 463.073 286H459.028ZM461.142 282.034V284.252H463.007C463.895 284.252 464.338 283.886 464.338 283.156C464.338 282.408 463.895 282.034 463.007 282.034H461.142ZM461.142 278.511V280.312H462.903C463.26 280.312 463.534 280.234 463.725 280.077C463.925 279.912 464.025 279.686 464.025 279.399C464.025 279.12 463.929 278.903 463.738 278.746C463.547 278.59 463.268 278.511 462.903 278.511H461.142ZM466.68 286L470.398 276.868H472.381L476.099 286H473.803L472.981 283.795H469.798L468.976 286H466.68ZM471.011 280.507L470.463 281.995H472.315L471.767 280.507L471.637 280.168C471.559 279.986 471.476 279.738 471.389 279.425C471.372 279.486 471.346 279.573 471.311 279.686C471.276 279.79 471.246 279.881 471.22 279.96C471.193 280.038 471.167 280.107 471.141 280.168L471.011 280.507ZM478.733 279.268C478.733 279.52 478.894 279.742 479.216 279.933C479.538 280.116 480.099 280.294 480.899 280.468C481.917 280.677 482.656 281.003 483.117 281.447C483.586 281.89 483.821 282.49 483.821 283.247C483.821 284.073 483.517 284.769 482.908 285.334C482.299 285.9 481.46 286.182 480.39 286.182C478.251 286.182 476.916 285.195 476.385 283.221L478.172 282.36C478.346 283.021 478.603 283.517 478.942 283.847C479.29 284.169 479.773 284.33 480.39 284.33C480.799 284.33 481.125 284.243 481.369 284.069C481.621 283.886 481.747 283.66 481.747 283.391C481.747 283.043 481.582 282.769 481.251 282.569C480.921 282.36 480.403 282.186 479.699 282.047C477.785 281.682 476.829 280.768 476.829 279.307C476.829 278.516 477.129 277.881 477.729 277.403C478.329 276.924 479.125 276.685 480.116 276.685C481.012 276.685 481.747 276.881 482.321 277.272C482.895 277.663 483.343 278.264 483.665 279.072L482.086 280.012C481.73 278.942 481.06 278.407 480.077 278.407C479.686 278.407 479.364 278.485 479.112 278.642C478.86 278.798 478.733 279.007 478.733 279.268ZM487.104 279.268C487.104 279.52 487.265 279.742 487.586 279.933C487.908 280.116 488.469 280.294 489.269 280.468C490.287 280.677 491.026 281.003 491.487 281.447C491.957 281.89 492.191 282.49 492.191 283.247C492.191 284.073 491.887 284.769 491.278 285.334C490.669 285.9 489.83 286.182 488.76 286.182C486.621 286.182 485.286 285.195 484.755 283.221L486.543 282.36C486.717 283.021 486.973 283.517 487.312 283.847C487.66 284.169 488.143 284.33 488.76 284.33C489.169 284.33 489.495 284.243 489.739 284.069C489.991 283.886 490.117 283.66 490.117 283.391C490.117 283.043 489.952 282.769 489.621 282.569C489.291 282.36 488.773 282.186 488.069 282.047C486.156 281.682 485.199 280.768 485.199 279.307C485.199 278.516 485.499 277.881 486.099 277.403C486.699 276.924 487.495 276.685 488.486 276.685C489.382 276.685 490.117 276.881 490.691 277.272C491.265 277.663 491.713 278.264 492.035 279.072L490.456 280.012C490.1 278.942 489.43 278.407 488.447 278.407C488.056 278.407 487.734 278.485 487.482 278.642C487.23 278.798 487.104 279.007 487.104 279.268ZM497.427 282.53V286H495.313V282.53L492.274 276.868H494.648L496.109 279.777L496.201 279.999C496.296 280.26 496.353 280.412 496.37 280.455L496.54 279.999L496.631 279.777L498.092 276.868H500.453L497.427 282.53Z"class="svg-secondary"/>
<path d="M508.912 358.209C508.912 356.124 509.625 354.04 509.625 351.26C509.625 335.973 496.8 323.465 481.124 323.465C469.724 323.465 460.462 329.719 455.474 338.753C454.049 338.058 451.199 337.363 449.061 337.363C439.086 337.363 431.248 345.006 431.248 354.735C431.248 356.124 431.248 357.514 431.961 358.209C419.136 360.294 409.873 370.022 409.873 382.529C409.873 395.732 421.273 406.85 434.811 406.85H506.062C519.6 406.85 531 395.732 531 382.529C531 370.022 521.738 359.599 508.912 358.209Z"class="svg-primary"/>
<path d="M479.812 361.132H477.95V355.706C477.95 351.727 474.598 348.472 470.501 348.472C466.404 348.472 463.052 351.727 463.052 355.706V361.132H461.19C460.259 361.132 459.328 362.036 459.328 362.941V375.601C459.328 376.505 460.259 377.41 461.19 377.41H479.812C480.743 377.41 481.674 376.505 481.674 375.601V362.941C481.674 362.036 480.743 361.132 479.812 361.132ZM472.363 373.792H468.639L469.384 369.813C468.453 369.452 467.708 368.367 467.708 367.462C467.708 366.015 469.011 364.749 470.501 364.749C471.991 364.749 473.294 366.015 473.294 367.462C473.294 368.547 472.736 369.452 471.619 369.813L472.363 373.792ZM474.226 361.132H466.777V355.706C466.777 353.717 468.453 352.089 470.501 352.089C472.55 352.089 474.226 353.717 474.226 355.706V361.132Z"class="svg-secondary"/>
<path d="M439.358 396.001V386.869H446.024V388.721H441.471V390.378H445.659V392.178H441.471V394.148H446.063V396.001H439.358ZM447.371 396.001V386.869H449.654L452.355 393.535L455.055 386.869H457.338V396.001H455.277V391.004L455.029 391.774C454.96 391.974 454.894 392.174 454.834 392.374L453.307 396.001H451.402L449.876 392.374C449.815 392.174 449.75 391.974 449.68 391.774L449.433 391.004V396.001H447.371ZM459.028 396.001V386.869H462.942C463.881 386.869 464.621 387.069 465.16 387.469C465.708 387.86 465.982 388.408 465.982 389.112C465.982 389.556 465.877 389.926 465.669 390.221C465.469 390.508 465.177 390.774 464.795 391.017C465.247 391.208 465.621 391.491 465.917 391.865C466.212 392.23 466.36 392.696 466.36 393.261C466.36 394.105 466.043 394.774 465.408 395.27C464.782 395.757 464.003 396.001 463.073 396.001H459.028ZM461.142 392.035V394.252H463.007C463.895 394.252 464.338 393.887 464.338 393.157C464.338 392.409 463.895 392.035 463.007 392.035H461.142ZM461.142 388.512V390.313H462.903C463.26 390.313 463.534 390.234 463.725 390.078C463.925 389.913 464.025 389.686 464.025 389.399C464.025 389.121 463.929 388.904 463.738 388.747C463.547 388.591 463.268 388.512 462.903 388.512H461.142ZM466.68 396.001L470.398 386.869H472.381L476.099 396.001H473.803L472.981 393.796H469.798L468.976 396.001H466.68ZM471.011 390.508L470.463 391.996H472.315L471.767 390.508L471.637 390.169C471.559 389.986 471.476 389.739 471.389 389.426C471.372 389.486 471.346 389.573 471.311 389.686C471.276 389.791 471.246 389.882 471.22 389.96C471.193 390.039 471.167 390.108 471.141 390.169L471.011 390.508ZM478.733 389.269C478.733 389.521 478.894 389.743 479.216 389.934C479.538 390.117 480.099 390.295 480.899 390.469C481.917 390.678 482.656 391.004 483.117 391.448C483.586 391.891 483.821 392.491 483.821 393.248C483.821 394.074 483.517 394.77 482.908 395.335C482.299 395.901 481.46 396.183 480.39 396.183C478.251 396.183 476.916 395.196 476.385 393.222L478.172 392.361C478.346 393.022 478.603 393.518 478.942 393.848C479.29 394.17 479.773 394.331 480.39 394.331C480.799 394.331 481.125 394.244 481.369 394.07C481.621 393.887 481.747 393.661 481.747 393.391C481.747 393.044 481.582 392.77 481.251 392.57C480.921 392.361 480.403 392.187 479.699 392.048C477.785 391.682 476.829 390.769 476.829 389.308C476.829 388.517 477.129 387.882 477.729 387.403C478.329 386.925 479.125 386.686 480.116 386.686C481.012 386.686 481.747 386.882 482.321 387.273C482.895 387.664 483.343 388.264 483.665 389.073L482.086 390.013C481.73 388.943 481.06 388.408 480.077 388.408C479.686 388.408 479.364 388.486 479.112 388.643C478.86 388.799 478.733 389.008 478.733 389.269ZM487.104 389.269C487.104 389.521 487.265 389.743 487.586 389.934C487.908 390.117 488.469 390.295 489.269 390.469C490.287 390.678 491.026 391.004 491.487 391.448C491.957 391.891 492.191 392.491 492.191 393.248C492.191 394.074 491.887 394.77 491.278 395.335C490.669 395.901 489.83 396.183 488.76 396.183C486.621 396.183 485.286 395.196 484.755 393.222L486.543 392.361C486.717 393.022 486.973 393.518 487.312 393.848C487.66 394.17 488.143 394.331 488.76 394.331C489.169 394.331 489.495 394.244 489.739 394.07C489.991 393.887 490.117 393.661 490.117 393.391C490.117 393.044 489.952 392.77 489.621 392.57C489.291 392.361 488.773 392.187 488.069 392.048C486.156 391.682 485.199 390.769 485.199 389.308C485.199 388.517 485.499 387.882 486.099 387.403C486.699 386.925 487.495 386.686 488.486 386.686C489.382 386.686 490.117 386.882 490.691 387.273C491.265 387.664 491.713 388.264 492.035 389.073L490.456 390.013C490.1 388.943 489.43 388.408 488.447 388.408C488.056 388.408 487.734 388.486 487.482 388.643C487.23 388.799 487.104 389.008 487.104 389.269ZM497.427 392.53V396.001H495.313V392.53L492.274 386.869H494.648L496.109 389.778L496.201 390C496.296 390.26 496.353 390.413 496.37 390.456L496.54 390L496.631 389.778L498.092 386.869H500.453L497.427 392.53Z"class="svg-secondary"/>
<path d="M393.429 53.0452C393.871 52.2325 393.568 51.2098 392.753 50.7612L379.472 43.4492C378.657 43.0005 377.638 43.2957 377.196 44.1085C376.755 44.9212 377.057 45.9439 377.872 46.3925L389.678 52.892L383.28 64.6653C382.838 65.4781 383.141 66.5007 383.956 66.9494C384.771 67.3981 385.789 67.103 386.231 66.2902L393.429 53.0452ZM220.975 103.519L392.432 53.8479L391.476 50.6177L220.019 100.289L220.975 103.519Z"class="svg-primary"/>
<path d="M392.349 154.691C392.933 153.976 392.822 152.915 392.103 152.323L380.375 142.672C379.656 142.079 378.599 142.179 378.016 142.895C377.432 143.61 377.542 144.671 378.262 145.263L388.687 153.842L380.233 164.208C379.65 164.923 379.76 165.983 380.48 166.576C381.2 167.168 382.256 167.068 382.84 166.352L392.349 154.691ZM221.792 171.326L391.22 155.293L390.872 151.944L221.444 167.977L221.792 171.326Z"class="svg-primary"/>
<path d="M389.785 267.716C390.526 267.156 390.675 266.103 390.117 265.363L381.025 253.307C380.467 252.567 379.414 252.422 378.673 252.981C377.932 253.541 377.784 254.595 378.342 255.335L386.423 266.051L375.687 274.161C374.946 274.721 374.798 275.775 375.356 276.515C375.913 277.254 376.967 277.4 377.708 276.84L389.785 267.716ZM221.383 244.893L388.54 268.041L389.009 264.713L221.852 241.565L221.383 244.893Z"class="svg-primary"/>
<path d="M387.615 379.253C388.467 378.881 388.864 377.889 388.502 377.038L382.591 363.17C382.228 362.319 381.243 361.931 380.39 362.303C379.538 362.675 379.141 363.667 379.503 364.518L384.757 376.846L372.408 382.238C371.555 382.611 371.158 383.602 371.521 384.453C371.884 385.304 372.869 385.693 373.721 385.32L387.615 379.253ZM219.871 313.703L386.331 379.279L387.585 376.146L221.125 310.57L219.871 313.703Z"class="svg-primary"/>
<path d="M545.179 65.6793C544.527 66.3356 544.534 67.3997 545.194 68.056L555.948 78.751C556.608 79.4073 557.671 79.4073 558.322 78.7509C558.974 78.0946 558.967 77.0305 558.307 76.3742L548.748 66.8675L558.183 57.36C558.835 56.7037 558.828 55.6396 558.168 54.9833C557.508 54.327 556.445 54.327 555.794 54.9834L545.179 65.6793ZM539.58 140.43C538.928 141.086 538.935 142.15 539.595 142.807L550.348 153.502C551.008 154.158 552.071 154.158 552.723 153.502C553.374 152.846 553.367 151.781 552.707 151.125L543.149 141.618L552.584 132.111C553.236 131.455 553.229 130.391 552.569 129.734C551.909 129.078 550.846 129.078 550.195 129.734L539.58 140.43ZM546.385 68.5482C567 68.5474 578.708 86.1547 578.64 104.225C578.607 113.214 575.627 122.135 569.469 128.792C563.336 135.421 553.93 139.937 540.764 139.938L540.785 143.299C554.775 143.299 565.106 138.471 571.94 131.084C578.748 123.724 581.962 113.957 581.998 104.259C582.071 84.9535 569.422 65.186 546.363 65.187L546.385 68.5482Z"class="svg-primary"/>
<path d="M595.562 62.483C594.909 63.1379 594.913 64.202 595.572 64.8598L606.302 75.5788C606.96 76.2366 608.023 76.2389 608.676 75.584C609.329 74.9292 609.324 73.865 608.666 73.2073L599.128 63.6793L608.585 54.1932C609.238 53.5383 609.233 52.4742 608.575 51.8164C607.917 51.1586 606.854 51.1563 606.201 51.8112L595.562 62.483ZM581.31 252.742C580.657 253.397 580.662 254.461 581.32 255.119L592.05 265.838C592.708 266.496 593.771 266.498 594.424 265.843C595.077 265.188 595.073 264.124 594.414 263.466L584.877 253.938L594.334 244.452C594.987 243.797 594.982 242.733 594.324 242.076C593.665 241.418 592.602 241.415 591.95 242.07L581.31 252.742ZM596.761 65.3547C652.74 65.4782 684.208 112.095 684.127 159.003C684.087 182.423 676.155 205.76 659.559 223.211C642.984 240.639 617.639 252.331 582.495 252.252L582.509 255.614C618.446 255.694 644.711 243.713 661.998 225.537C679.262 207.384 687.443 183.184 687.485 159.031C687.568 110.793 655.082 62.1221 596.747 61.9934L596.761 65.3547Z"class="svg-primary"/>
<path d="M596.39 173.438C595.737 174.093 595.741 175.157 596.4 175.815L607.13 186.534C607.788 187.192 608.851 187.194 609.504 186.539C610.157 185.885 610.152 184.82 609.494 184.163L599.956 174.635L609.413 165.149C610.066 164.494 610.062 163.43 609.403 162.772C608.745 162.114 607.682 162.112 607.029 162.767L596.39 173.438ZM582.138 363.697C581.485 364.352 581.49 365.416 582.148 366.074L592.878 376.793C593.536 377.451 594.6 377.454 595.252 376.799C595.905 376.144 595.901 375.08 595.242 374.422L585.705 364.894L595.162 355.408C595.815 354.753 595.81 353.689 595.152 353.031C594.494 352.373 593.431 352.371 592.778 353.026L582.138 363.697ZM597.589 176.31C653.569 176.434 685.036 223.05 684.955 269.959C684.915 293.378 676.984 316.716 660.387 334.167C643.812 351.595 618.467 363.286 583.323 363.208L583.338 366.569C619.274 366.649 645.539 354.669 662.826 336.493C680.091 318.339 688.271 294.14 688.313 269.986C688.396 221.749 655.91 173.078 597.575 172.949L597.589 176.31Z"class="svg-primary"/>
<path d="M544.059 170.916C543.408 171.573 543.415 172.637 544.075 173.293L554.828 183.988C555.488 184.644 556.551 184.644 557.203 183.988C557.854 183.332 557.847 182.268 557.187 181.611L547.628 172.105L557.064 162.597C557.715 161.941 557.708 160.877 557.048 160.22C556.388 159.564 555.325 159.564 554.674 160.22L544.059 170.916ZM538.46 245.667C537.809 246.323 537.815 247.387 538.475 248.044L549.229 258.739C549.889 259.395 550.952 259.395 551.603 258.739C552.255 258.083 552.248 257.019 551.588 256.362L542.029 246.855L551.465 237.348C552.116 236.692 552.109 235.628 551.449 234.971C550.79 234.315 549.727 234.315 549.075 234.971L538.46 245.667ZM545.265 173.785C565.88 173.784 577.588 191.392 577.521 209.462C577.487 218.452 574.507 227.372 568.349 234.029C562.217 240.658 552.811 245.174 539.644 245.175L539.666 248.536C553.655 248.536 563.987 243.708 570.82 236.321C577.628 228.962 580.842 219.194 580.879 209.496C580.951 190.191 568.303 170.423 545.243 170.424L545.265 173.785Z"class="svg-primary"/>
<path d="M544.059 287.713C543.408 288.369 543.415 289.434 544.075 290.09L554.828 300.785C555.488 301.441 556.551 301.441 557.203 300.785C557.854 300.128 557.847 299.064 557.187 298.408L547.628 288.901L557.064 279.394C557.715 278.737 557.708 277.673 557.048 277.017C556.388 276.361 555.325 276.361 554.674 277.017L544.059 287.713ZM538.46 362.464C537.809 363.12 537.815 364.184 538.475 364.84L549.229 375.536C549.889 376.192 550.952 376.192 551.603 375.536C552.255 374.879 552.248 373.815 551.588 373.159L542.029 363.652L551.465 354.145C552.116 353.488 552.109 352.424 551.449 351.768C550.79 351.112 549.727 351.112 549.075 351.768L538.46 362.464ZM545.265 290.582C565.88 290.581 577.588 308.189 577.521 326.259C577.487 335.248 574.507 344.169 568.349 350.825C562.217 357.455 552.811 361.971 539.644 361.971L539.666 365.333C553.655 365.332 563.987 360.504 570.82 353.118C577.628 345.758 580.842 335.991 580.879 326.293C580.951 306.987 568.303 287.22 545.243 287.221L545.265 290.582Z"class="svg-primary"/>
</svg>
