<svg id="buy-real-lines" class="line-primary" viewBox="0 0 841 487" fill="none" xmlns="http://www.w3.org/2000/svg">
<path d="M9 121L382 3L396 1L791.5 60L802.5 62L523.5 238.5L28 126L1 129L22 296.5L28 305.5L505 474.5C531.894 484.886 553.5 488.5 572.5 483C591.5 477.5 599.719 471.462 611.5 457L642 426.5L643.284 407M652.433 268L655 229L621 256C595.56 266.005 580.979 270.486 554.5 266L490.5 248.5C512.378 249.661 519.869 248.255 528 243.5C557.706 253.952 571.855 254.075 592 243.5L800 97L823.5 79.5C824.114 74.6548 822.677 72.7187 818.5 70L831.5 76.5C839.873 83.811 841.196 85.0968 838 91.5L817.5 105L804 102.5L800.5 148L812.5 150L817.5 107.5L838 94L820 243.5L800 261.5M652.433 268L800 150.5L812 152.5L800 261.5M652.433 268L645.818 368.5M645.818 368.5L804 223L800 261.5M645.818 368.5L643.284 407M800 261.5L782.5 268L643.284 407" vector-effect="non-scaling-stroke"/>
</svg>
