<svg
   viewBox="18.569 27.955 462.42 139.615"
   version="1.1"
   id="svg920"
   xmlns="http://www.w3.org/2000/svg"
   xmlns:svg="http://www.w3.org/2000/svg">
  <g
     id="g1429"
     transform="matrix(1.198713,0,0,1.198713,-45.567837,-143.16227)">
    <path
       d="m 103.57005,186.55141 c 0,0.79293 0.23431,1.42389 0.70295,1.89253 0.50462,0.43227 1.08124,0.64859 1.7302,0.64859 0.72094,0 1.31555,-0.23431 1.78419,-0.70295 0.46863,-0.50462 0.70295,-1.22557 0.70295,-2.16247 v -13.68 c 0,-1.36991 -0.18033,-2.34317 -0.54062,-2.91978 -0.32467,-0.57661 -0.86529,-0.86492 -1.62222,-0.86492 -1.00926,0 -1.7302,0.41428 -2.16285,1.24357 -0.43264,0.82892 -0.64859,2.07249 -0.64859,3.73071 -1.69421,-1.87454 -3.947395,-3.17209 -6.758825,-3.89304 -2.77582,-0.72095 -5.74959,-1.08124 -8.92168,-1.08124 -3.4604,0 -6.6145,0.6486 -9.46233,1.94652 -2.81166,1.26157 -5.04656,3.13574 -6.70473,5.62324 -1.65815,2.48714 -2.48722,5.47891 -2.48722,8.97567 0,3.1361 0.64885,5.71322 1.94652,7.73209 1.33374,1.98251 3.06397,3.56838 5.19075,4.75796 2.12677,1.15359 4.88452,2.30717 8.27293,3.4604 l 8.86732,3.02812 c 2.91978,1.00925 5.24496,2.00051 6.975155,2.97377 1.76619,0.97326 3.1181,2.19883 4.05537,3.67672 0.9369,1.47789 1.40553,3.33443 1.40553,5.56925 0,4.36168 -1.35154,7.57013 -4.055,9.62463 -2.703825,2.0545 -6.200215,3.08211 -10.489905,3.08211 -2.91978,0 -5.78521,-0.48663 -8.59701,-1.45989 -2.77563,-0.97326 -5.0466,-2.21683 -6.8129,-3.73107 -1.76626,-1.54988 -2.64943,-3.08175 -2.64943,-4.596 v -6.43417 c 0,-0.82929 -0.25232,-1.47788 -0.75698,-1.94652 -0.4686,-0.46863 -1.04535,-0.70295 -1.73023,-0.70295 -0.68492,0 -1.26164,0.21632 -1.73028,0.64897 -0.43253,0.43227 -0.64881,1.06324 -0.64881,1.89216 v 16.97807 c 0,1.51424 0.19825,2.55949 0.59475,3.1361 0.39654,0.57698 1.06339,0.86528 2.00062,0.86528 0.82907,0 1.45989,-0.57661 1.89246,-1.7302 0.43253,-1.15359 0.64881,-2.77581 0.64881,-4.8663 1.9105,2.01851 4.55993,3.62273 7.94842,4.81231 3.38841,1.18922 6.6145,1.78419 9.67861,1.78419 3.67672,0 7.01115,-0.59497 10.002905,-1.78419 2.99177,-1.18958 5.38893,-3.1001 7.19148,-5.73158 1.80218,-2.63148 2.70346,-5.9839 2.70346,-10.05727 0,-2.99176 -0.63097,-5.51489 -1.89253,-7.56976 -1.26157,-2.09049 -3.08212,-3.83905 -5.46128,-5.24459 -2.3428,-1.44189 -5.406915,-2.8118 -9.191605,-4.10936 l -7.35381,-2.54149 c -3.60474,-1.26157 -6.19985,-2.27082 -7.78605,-3.02776 -1.58604,-0.75694 -2.82969,-1.80255 -3.73085,-3.1361 -0.8651,-1.33392 -1.29767,-3.20809 -1.29767,-5.62324 0,-3.60474 1.29767,-6.43454 3.89304,-8.48904 2.59534,-2.09085 6.20007,-3.1361 10.81406,-3.1361 2.23483,0 4.41566,0.3063 6.54251,0.91891 2.16284,0.61297 3.96503,1.55023 5.406915,2.8118 1.47789,1.22557 2.32518,2.72146 2.5415,4.48802 z m 61.45385,8.97566 c 0.68496,0 1.20758,-0.21632 1.56824,-0.64896 0.39665,-0.43265 0.59461,-0.95527 0.59461,-1.56787 0,-0.57698 -0.19796,-1.08161 -0.59461,-1.51425 -0.36066,-0.46826 -0.86528,-0.70258 -1.51388,-0.70258 h -20.11417 v -12.92306 c 0,-0.79293 -0.12634,-1.38754 -0.37865,-1.78419 -0.25231,-0.43264 -0.77494,-0.64896 -1.56787,-0.64896 -1.04561,0 -1.80255,0.46863 -2.27118,1.4059 -0.43228,0.90128 -0.70296,2.32517 -0.81093,4.27169 -0.10798,1.94652 -0.16233,5.17261 -0.16233,9.67862 h -7.94805 c -0.72095,0 -1.27993,0.21595 -1.67621,0.64859 -0.39665,0.39665 -0.59498,0.88328 -0.59498,1.45989 0,0.61297 0.21632,1.15359 0.64897,1.62223 0.43264,0.46863 1.04524,0.70295 1.83817,0.70295 h 7.7321 v 28.27853 c 0,1.76656 0.63096,3.42478 1.89253,4.97465 1.29756,1.54987 3.01013,2.79344 5.13661,3.73071 2.16284,0.90127 4.47002,1.35191 6.92116,1.35191 2.41516,0 4.84831,-0.2883 7.29946,-0.86528 2.45114,-0.54062 4.59599,-1.24357 6.43417,-2.10849 1.87453,-0.90127 3.19045,-1.80255 3.94739,-2.70382 0.17996,-0.25232 0.27031,-0.52263 0.27031,-0.81093 0,-0.6126 -0.25231,-1.22558 -0.75694,-1.83818 -0.50462,-0.61297 -1.00925,-0.91927 -1.51424,-0.91927 -0.25232,0 -0.45027,0.072 -0.59461,0.21632 -1.7302,1.29756 -3.96503,2.39716 -6.70485,3.29807 -2.70346,0.86528 -5.31694,1.29792 -7.84007,1.29792 -2.77544,0 -5.02863,-0.59497 -6.75883,-1.78455 -1.69421,-1.22558 -2.54113,-3.1361 -2.54113,-5.73122 v -26.38637 z m 60.37299,12.00342 -3.94739,0.27031 c -5.87556,0.39665 -10.56153,0.90127 -14.05829,1.51424 -3.4604,0.61261 -6.38018,1.87417 -8.75934,3.7847 -2.37917,1.91053 -3.56838,4.74033 -3.56838,8.48904 0,3.71307 1.13523,6.68684 3.40641,8.92167 2.27082,2.19883 5.42492,3.29843 9.4623,3.29843 3.7487,0 7.2091,-0.66695 10.38119,-2.00087 3.20846,-1.33355 5.6956,-2.99177 7.46179,-4.97428 0.43264,2.55912 1.27956,4.28969 2.54149,5.1906 1.26157,0.86528 2.81144,1.29792 4.64998,1.29792 1.62186,0 3.1721,-0.34266 4.64998,-1.02761 1.51388,-0.72095 2.8478,-1.69421 4.00102,-2.91978 0.36066,-0.36029 0.54099,-0.81093 0.54099,-1.35155 0,-0.57698 -0.19833,-1.0996 -0.59498,-1.56823 -0.39628,-0.46864 -0.86491,-0.70295 -1.4059,-0.70295 -0.46827,0 -0.90091,0.21632 -1.29756,0.64896 -0.6126,0.64896 -1.44189,1.26156 -2.48714,1.83854 -1.04524,0.54062 -2.03686,0.81093 -2.97376,0.81093 -0.86529,0 -1.55024,-0.21632 -2.05487,-0.64896 -0.50463,-0.46864 -0.75694,-1.33355 -0.75694,-2.59512 v -16.87009 c 0,-4.39767 -0.46863,-8.03839 -1.4059,-10.92218 -0.93727,-2.91978 -2.59512,-5.15461 -4.97428,-6.70485 -2.34317,-1.54987 -5.58725,-2.3248 -9.7326,-2.3248 -3.67709,0 -6.93916,0.48663 -9.78696,1.45989 -2.8478,0.97326 -5.06463,2.3248 -6.65049,4.05537 -1.58623,1.7302 -2.37916,3.67672 -2.37916,5.83956 0,1.15322 0.27031,2.09049 0.81093,2.81144 0.57697,0.72095 1.3879,1.0816 2.43315,1.0816 1.22557,0 2.09085,-0.70295 2.59548,-2.10885 0.50463,-1.4059 0.82892,-3.49639 0.97326,-6.2722 1.91053,-0.86492 3.80306,-1.47789 5.67723,-1.83818 1.91053,-0.39665 4.00138,-0.59497 6.2722,-0.59497 4.03738,0 6.86718,1.11759 8.48904,3.35242 1.65821,2.23482 2.4875,5.46091 2.4875,9.67861 z m 0,15.19388 c -1.94652,2.0545 -4.45202,3.69471 -7.51577,4.92029 -3.02813,1.18958 -6.14623,1.78455 -9.35432,1.78455 -2.48714,0 -4.48765,-0.61297 -6.00189,-1.83854 -1.47789,-1.26157 -2.21683,-3.26208 -2.21683,-6.00189 0,-2.52314 0.86528,-4.43366 2.59548,-5.73122 1.7302,-1.29793 4.05538,-2.19884 6.97516,-2.70346 2.95577,-0.54099 7.38943,-1.0996 13.30097,-1.67621 l 2.2172,-0.21632 z m 69.45626,-22.81763 c 0,0.90128 0.25232,1.60423 0.75694,2.10885 0.50463,0.46864 1.0996,0.70295 1.78456,0.70295 0.72094,0 1.33355,-0.25268 1.83817,-0.7573 0.54099,-0.54062 0.8113,-1.29756 0.8113,-2.27082 v -7.46179 c 0,-1.08123 -0.36066,-1.89253 -1.08161,-2.43315 -0.72094,-0.54061 -1.94652,-0.81092 -3.67672,-0.81092 -10.0209,0 -17.08604,3.15409 -21.1954,9.46229 l -0.21632,-5.62324 c -0.036,-1.00925 -0.19833,-1.76656 -0.48663,-2.27119 -0.25232,-0.50462 -0.77494,-0.75694 -1.56824,-0.75694 -0.36029,0 -0.77493,0.054 -1.24357,0.16234 l -9.24597,1.83817 c -0.50462,0.10835 -0.90127,0.36066 -1.18958,0.75731 -0.28831,0.36029 -0.43264,0.79293 -0.43264,1.29756 0,0.57661 0.18033,1.08123 0.54098,1.51388 0.39629,0.43264 0.93691,0.64896 1.62186,0.64896 0.28831,0 0.50463,-0.018 0.64896,-0.054 l 6.5965,-1.35191 v 33.90214 h -9.89493 c -0.72095,0 -1.27956,0.21632 -1.67621,0.64896 -0.39629,0.43228 -0.59461,0.9369 -0.59461,1.51388 0,0.61261 0.21632,1.15359 0.64896,1.62186 0.43228,0.43264 1.04525,0.64896 1.83818,0.64896 H 292.42 c 0.68496,0 1.22558,-0.21632 1.62222,-0.64896 0.39665,-0.46827 0.59461,-0.99126 0.59461,-1.56787 0,-0.61297 -0.19796,-1.13559 -0.59461,-1.56787 -0.36065,-0.43264 -0.88327,-0.64896 -1.56823,-0.64896 h -18.16728 v -24.00721 c 1.44189,-3.60473 4.01901,-6.34419 7.73173,-8.21872 3.71308,-1.91053 7.9844,-2.86579 12.81471,-2.86579 z m 61.34588,-4.37967 c 0.68496,0 1.20758,-0.21632 1.56824,-0.64896 0.39665,-0.43265 0.5946,-0.95527 0.5946,-1.56787 0,-0.57698 -0.19795,-1.08161 -0.5946,-1.51425 -0.36066,-0.46826 -0.86529,-0.70258 -1.51388,-0.70258 h -20.11417 v -12.92306 c 0,-0.79293 -0.12634,-1.38754 -0.37865,-1.78419 -0.25232,-0.43264 -0.77494,-0.64896 -1.56787,-0.64896 -1.04561,0 -1.80255,0.46863 -2.27119,1.4059 -0.43227,0.90128 -0.70295,2.32517 -0.81092,4.27169 -0.10798,1.94652 -0.16234,5.17261 -0.16234,9.67862 h -7.94804 c -0.72095,0 -1.27993,0.21595 -1.67621,0.64859 -0.39665,0.39665 -0.59498,0.88328 -0.59498,1.45989 0,0.61297 0.21632,1.15359 0.64896,1.62223 0.43265,0.46863 1.04525,0.70295 1.83818,0.70295 h 7.73209 v 28.27853 c 0,1.76656 0.63097,3.42478 1.89254,4.97465 1.29792,1.54987 3.01013,2.79344 5.13661,3.73071 2.16284,0.90127 4.47002,1.35191 6.92116,1.35191 2.41516,0 4.84831,-0.2883 7.29946,-0.86528 2.45114,-0.54062 4.59599,-1.24357 6.43416,-2.10849 1.87454,-0.90127 3.19046,-1.80255 3.9474,-2.70382 0.18033,-0.25232 0.27031,-0.52263 0.27031,-0.81093 0,-0.6126 -0.25231,-1.22558 -0.75694,-1.83818 -0.50463,-0.61297 -1.00925,-0.91927 -1.51388,-0.91927 -0.25268,0 -0.45064,0.072 -0.59497,0.21632 -1.7302,1.29756 -3.96503,2.39716 -6.70485,3.29807 -2.70346,0.86528 -5.31657,1.29792 -7.84007,1.29792 -2.77544,0 -5.02863,-0.59497 -6.75883,-1.78455 -1.69421,-1.22558 -2.54113,-3.1361 -2.54113,-5.73122 v -26.38637 z"
       fill="var(--c-text-primary)"
       id="path1006" />
    <path
       d="m 405.4875,209.74732 c 3.10011,0 6.14477,-0.68459 9.138,-2.0545 2.99323,-1.36991 5.47964,-3.38841 7.46289,-6.05588 -1.5866,11.10251 -8.11295,21.42972 -19.57465,30.98236 -0.43265,0.39629 -0.64897,0.82893 -0.64897,1.29756 0,0.61297 0.25232,1.17159 0.75694,1.67621 0.50463,0.54062 1.08161,0.81093 1.7302,0.81093 0.54099,0 1.04561,-0.21632 1.51425,-0.6486 4.39767,-3.96539 8.146,-7.93041 11.24574,-11.89544 3.13647,-3.96539 5.67797,-8.52502 7.62449,-13.68 1.98325,-5.1906 2.97487,-11.01216 2.97487,-17.4647 0,-7.42542 -1.78492,-13.26498 -5.35477,-17.51868 -3.53312,-4.28969 -8.79607,-6.43417 -15.78775,-6.43417 -4.03701,0 -7.60575,0.82892 -10.70586,2.48714 -3.09974,1.65822 -5.5149,4.01901 -7.24547,7.08313 -1.6942,3.02776 -2.54112,6.57851 -2.54112,10.65188 0,4.07337 0.77493,7.6781 2.32517,10.81384 1.54987,3.1361 3.7847,5.58761 6.70448,7.3538 2.91978,1.7302 6.38018,2.59512 10.38156,2.59512 z m 17.03059,-20.38448 c 0,2.8478 -0.70148,5.49727 -2.10812,7.94842 -1.36991,2.41515 -3.36785,4.36167 -6.00116,5.83956 -2.59658,1.44189 -5.62287,2.16284 -9.08364,2.16284 -3.17209,0 -5.82156,-0.75694 -7.94805,-2.27082 -2.09085,-1.55024 -3.64072,-3.56874 -4.65034,-6.05588 -0.97326,-2.48714 -1.45989,-5.20896 -1.45989,-8.16474 0,-2.84779 0.59497,-5.46091 1.78455,-7.84007 1.18958,-2.37916 2.93778,-4.27169 5.24459,-5.67759 2.34317,-1.40554 5.10062,-2.10849 8.27271,-2.10849 3.64073,0 6.65012,0.73894 9.03002,2.21683 2.3799,1.44189 4.12809,3.38842 5.24459,5.83956 1.11649,2.41516 1.67474,5.11862 1.67474,8.11038 z"
       fill="var(--c-text-accent)"
       id="path1008" />
  </g>
</svg>
