<svg width="100%" height="100%" viewBox="0 0 2372 583" fill="none" xmlns="http://www.w3.org/2000/svg">
<g clip-path="url(#clip0_1031_12390)" transform="matrix(1.198713,0,0,1.198713,-45.567837,-90.16227)">
<path d="M2041.09 222.63C2041.09 156.704 2093.38 103.174 2157.78 103.174C2221.64 103.174 2273.93 156.704 2273.93 222.63C2273.93 288.556 2218.88 341.523 2157.78 341.523C2093.38 341.523 2041.09 287.993 2041.09 222.63ZM2013.57 222.63C2013.57 303.77 2077.97 370.26 2157.78 370.26C2171 370.26 2183.66 368.006 2195.77 364.625L2102.35 483.972C2090.79 499.186 2108.55 516.799 2120.11 502.149L2270.07 315.04C2293.19 279.541 2302 251.931 2302 222.63C2302 140.926 2237.05 75 2157.78 75C2077.97 75 2013.57 140.926 2013.57 222.63Z" fill="#FF4961"/>
<path d="M175.619 307.997C161.09 307.997 147.305 305.203 134.266 299.615C121.599 294.026 110.422 286.575 100.736 277.261C91.4219 267.575 83.9708 256.398 78.3825 243.731C72.7942 230.692 70 216.907 70 202.378C70 187.848 72.7942 174.064 78.3825 161.024C83.9708 147.985 91.4219 136.808 100.736 127.494C110.422 117.808 121.599 110.171 134.266 104.582C147.305 98.9939 161.09 96.1997 175.619 96.1997H297.445C302.66 96.1997 306.572 97.8762 309.18 101.229C311.788 104.582 313.092 108.308 313.092 112.406C313.092 116.131 311.788 119.671 309.18 123.024C306.572 126.004 302.66 127.494 297.445 127.494H175.619C165.188 127.494 155.501 129.543 146.56 133.641C137.619 137.367 129.795 142.583 123.089 149.289C116.383 155.995 110.981 164.005 106.883 173.319C103.157 182.26 101.295 191.946 101.295 202.378C101.295 212.809 103.157 222.496 106.883 231.437C110.981 240.378 116.383 248.202 123.089 254.908C129.795 261.614 137.619 267.016 146.56 271.114C155.501 274.84 165.188 276.702 175.619 276.702H222.561C237.091 276.702 250.875 279.497 263.915 285.085C276.954 290.673 288.131 298.311 297.445 307.997C307.131 317.311 314.768 328.488 320.357 341.527C325.945 354.566 328.739 368.351 328.739 382.881C328.739 397.41 325.945 411.195 320.357 424.234C314.768 437.273 307.131 448.636 297.445 458.323C288.131 467.637 276.954 475.088 263.915 480.676C250.875 486.264 237.091 489.059 222.561 489.059H101.295C96.0788 489.059 91.9807 487.568 89.0003 484.588C86.3924 481.235 85.0885 477.696 85.0885 473.97C85.0885 469.872 86.3924 466.146 89.0003 462.793C91.9807 459.44 96.0788 457.764 101.295 457.764H222.561C232.993 457.764 242.679 455.901 251.62 452.176C260.934 448.078 268.944 442.676 275.65 435.97C282.356 429.264 287.572 421.44 291.297 412.499C295.396 403.185 297.445 393.312 297.445 382.881C297.445 372.449 295.396 362.763 291.297 353.821C287.572 344.507 282.356 336.497 275.65 329.791C268.944 323.085 260.934 317.87 251.62 314.144C242.679 310.046 232.993 307.997 222.561 307.997H175.619Z" fill="#F0F0F0"/>
<path d="M586.946 489.059C582.102 489.059 578.191 487.568 575.21 484.588C572.23 481.607 570.74 477.696 570.74 472.852V127.494H445.561C440.718 127.494 436.806 126.004 433.826 123.024C430.845 120.043 429.355 116.131 429.355 111.288C429.355 106.818 430.845 103.092 433.826 100.112C437.179 96.7586 441.091 95.0821 445.561 95.0821H727.771C732.242 95.0821 736.154 96.7586 739.507 100.112C742.86 103.092 744.536 106.818 744.536 111.288C744.536 116.131 742.86 120.043 739.507 123.024C736.154 126.004 732.242 127.494 727.771 127.494H603.152V472.852C603.152 477.696 601.662 481.607 598.681 484.588C595.701 487.568 591.789 489.059 586.946 489.059Z" fill="#F0F0F0"/>
<path d="M763.672 466.146C764.417 464.656 767.211 458.323 772.054 447.146C776.898 435.97 782.858 421.812 789.937 404.675C797.388 387.165 805.584 367.419 814.526 345.439C823.467 323.458 832.594 301.291 841.908 278.938C851.222 256.212 860.35 234.045 869.291 212.437C878.232 190.829 886.056 171.642 892.762 154.877C899.841 138.112 905.429 124.514 909.527 114.082C913.998 103.651 916.233 98.4351 916.233 98.4351C919.586 90.2388 924.243 86.1407 930.204 86.1407C936.537 86.1407 941.567 90.0526 945.292 97.8762L1105.12 467.823C1107.35 472.666 1107.35 476.951 1105.12 480.676C1103.26 484.402 1100.46 487.196 1096.74 489.059C1093.01 490.549 1089.1 490.735 1085 489.617C1081.27 488.5 1078.29 485.519 1076.06 480.676L931.321 145.377C929.459 149.475 926.106 157.485 921.262 169.407C916.419 180.956 910.645 194.927 903.939 211.319C897.233 227.712 889.782 245.594 881.585 264.967C873.389 284.34 865.193 304.085 856.997 324.203C848.801 343.949 840.791 363.135 832.967 381.763C825.516 400.391 818.624 416.969 812.29 431.499C806.329 446.028 801.3 457.95 797.202 467.264C793.476 476.578 791.427 481.607 791.055 482.353C788.447 486.823 784.907 489.245 780.437 489.617C776.339 490.362 772.613 489.804 769.26 487.941C765.907 486.078 763.486 483.098 761.995 479C760.505 474.901 761.064 470.617 763.672 466.146Z" fill="#F0F0F0"/>
<path d="M1240.52 127.494V471.735C1240.52 476.205 1238.84 480.117 1235.49 483.47C1232.14 486.451 1228.23 487.941 1223.76 487.941C1219.66 487.941 1215.93 486.264 1212.58 482.911C1209.23 479.558 1207.55 475.833 1207.55 471.735V117.435C1207.55 110.729 1210.16 105.514 1215.37 101.788C1220.59 98.0625 1226.18 96.1997 1232.14 96.1997H1357.88C1372.41 96.1997 1386 98.9939 1398.67 104.582C1411.71 110.171 1422.89 117.808 1432.2 127.494C1441.89 136.808 1449.52 147.985 1455.11 161.024C1460.7 174.064 1463.5 187.848 1463.5 202.378C1463.5 216.907 1460.7 230.692 1455.11 243.731C1449.52 256.398 1441.89 267.575 1432.2 277.261C1422.89 286.575 1411.71 294.026 1398.67 299.615C1386 305.203 1372.41 307.997 1357.88 307.997H1320.43L1479.14 461.676C1483.61 464.656 1486.03 468.195 1486.41 472.294C1486.78 476.392 1485.85 480.117 1483.61 483.47C1481.38 486.451 1478.21 488.686 1474.11 490.176C1470.39 491.666 1466.29 490.921 1461.82 487.941L1274.61 305.762C1270.51 303.154 1267.72 300.173 1266.23 296.82C1265.11 293.467 1264.92 290.301 1265.67 287.32C1266.79 284.34 1268.84 281.918 1271.82 280.055C1274.8 277.82 1278.71 276.702 1283.55 276.702H1357.88C1368.31 276.702 1377.99 274.84 1386.94 271.114C1396.25 267.016 1404.26 261.614 1410.96 254.908C1417.67 248.202 1422.89 240.378 1426.61 231.437C1430.71 222.496 1432.76 212.809 1432.76 202.378C1432.76 191.946 1430.71 182.26 1426.61 173.319C1422.89 164.005 1417.67 155.995 1410.96 149.289C1404.26 142.583 1396.25 137.367 1386.94 133.641C1377.99 129.543 1368.31 127.494 1357.88 127.494H1240.52Z" fill="#F0F0F0"/>
<path d="M1744.69 489.059C1739.84 489.059 1735.93 487.568 1732.95 484.588C1729.97 481.607 1728.48 477.696 1728.48 472.852V127.494H1603.3C1598.46 127.494 1594.55 126.004 1591.57 123.024C1588.59 120.043 1587.1 116.131 1587.1 111.288C1587.1 106.818 1588.59 103.092 1591.57 100.112C1594.92 96.7586 1598.83 95.0821 1603.3 95.0821H1885.51C1889.98 95.0821 1893.9 96.7586 1897.25 100.112C1900.6 103.092 1902.28 106.818 1902.28 111.288C1902.28 116.131 1900.6 120.043 1897.25 123.024C1893.9 126.004 1889.98 127.494 1885.51 127.494H1760.89V472.852C1760.89 477.696 1759.4 481.607 1756.42 484.588C1753.44 487.568 1749.53 489.059 1744.69 489.059Z" fill="#F0F0F0"/>
</g>
<defs>
<clipPath id="clip0_1031_12390">
<rect width="2232" height="432.644" fill="white" transform="translate(70 75)"/>
</clipPath>
</defs>
</svg>
