<svg width="82" height="82" viewBox="0 0 82 82" fill="none" xmlns="http://www.w3.org/2000/svg">
<path d="M2.16275 1.88588V80.1167H7.79256V82H0V0.00512468H7.79256V1.88844L2.16275 1.88588ZM26.2272 26.6816V30.6456H26.3323C27.317 29.1968 28.6227 27.9946 30.1478 27.1326C31.6315 26.305 33.3535 25.8924 35.2728 25.8924C37.1152 25.8924 38.8091 26.2537 40.3337 26.9609C41.8687 27.681 43.0167 28.9493 43.8162 30.7506C44.6849 29.4695 45.8739 28.3344 47.3524 27.3607C48.8361 26.387 50.5991 25.8924 52.6389 25.8924C54.0914 25.8778 55.5385 26.071 56.9362 26.4664C58.2712 26.8379 59.3936 27.4401 60.3392 28.2677C61.2745 29.1107 62.0074 30.1921 62.5429 31.527C63.0631 32.8595 63.3296 34.4763 63.3296 36.3724V55.9359H55.3116V39.3627C55.3139 38.4354 55.2729 37.5085 55.1886 36.5851C55.1398 35.7997 54.9314 35.0324 54.5761 34.3302C54.2416 33.6847 53.72 33.1551 53.0796 32.8108C52.4262 32.4213 51.5191 32.2368 50.3967 32.2368C49.2615 32.2368 48.3544 32.4495 47.6599 32.8748C46.9792 33.2987 46.4154 33.8863 46.0199 34.5839C45.6092 35.3187 45.3414 36.1247 45.2307 36.9592C45.1013 37.8487 45.0303 38.7457 45.018 39.6445V55.9384H36.9948V39.5369C36.9948 38.6683 36.982 37.815 36.9307 36.9746C36.9074 36.1689 36.7399 35.374 36.4362 34.6275C36.1687 33.9125 35.6711 33.3068 35.0217 32.9056C34.3682 32.4777 33.3919 32.2522 32.1107 32.2522C31.7238 32.2522 31.2189 32.3316 30.6039 32.5058C29.9889 32.6775 29.3765 32.9978 28.8025 33.4667C28.1532 34.0262 27.6375 34.724 27.2932 35.5089C26.8806 36.3878 26.6807 37.5485 26.6807 38.9911V55.9538H18.6576V26.6893L26.2272 26.6816ZM79.8372 80.1141V1.88332H74.2074V0H82V81.9949H74.2074V80.1116L79.8372 80.1141Z" fill="var(--c-text-primary)"/>
</svg>
