<svg viewBox="0 0 1085 273" fill="none" xmlns="http://www.w3.org/2000/svg">
<path d="M161.834 49.3381L162.505 45.7436C162.988 45.9582 163.399 46.0655 163.739 46.0655C164.401 46.0655 164.848 45.7257 165.08 45.0462L165.483 43.9732L159.876 30.695H164.436L167.521 38.4473L170.365 30.695H174.844L168.755 45.9314C168.219 47.3084 167.584 48.274 166.851 48.8284C166.135 49.3828 165.187 49.66 164.007 49.66C163.024 49.66 162.299 49.5527 161.834 49.3381ZM188.06 32.1704C189.509 33.4043 190.233 35.13 190.233 37.3475C190.233 39.565 189.509 41.2907 188.06 42.5247C186.612 43.7586 184.877 44.3755 182.856 44.3755C180.836 44.3755 179.101 43.7586 177.653 42.5247C176.204 41.2907 175.48 39.565 175.48 37.3475C175.48 35.13 176.204 33.4043 177.653 32.1704C179.101 30.9365 180.836 30.3195 182.856 30.3195C184.877 30.3195 186.612 30.9365 188.06 32.1704ZM180.523 39.7081C181.167 40.2803 181.944 40.5665 182.856 40.5665C183.769 40.5665 184.546 40.2803 185.19 39.7081C185.834 39.1179 186.156 38.3311 186.156 37.3475C186.156 36.364 185.834 35.586 185.19 35.0138C184.546 34.4236 183.769 34.1286 182.856 34.1286C181.944 34.1286 181.167 34.4236 180.523 35.0138C179.879 35.586 179.557 36.364 179.557 37.3475C179.557 38.3311 179.879 39.1179 180.523 39.7081ZM192.418 38.7424V30.695H196.442V37.8572C196.442 38.7156 196.638 39.3862 197.032 39.869C197.443 40.334 198.033 40.5665 198.802 40.5665C199.661 40.5665 200.322 40.2446 200.787 39.6008C201.252 38.957 201.485 38.1254 201.485 37.1061V30.695H205.508V44H201.485V42.0686C200.608 43.6066 199.231 44.3755 197.354 44.3755C195.941 44.3755 194.761 43.8748 193.813 42.8734C192.883 41.8719 192.418 40.4949 192.418 38.7424ZM118.888 106.807V103.695H120.766V101.978C120.766 100.333 121.249 99.0723 122.214 98.196C123.18 97.3197 124.405 96.8816 125.889 96.8816C126.515 96.8816 127.15 97.0068 127.794 97.2572L127.043 100.744C126.721 100.637 126.408 100.583 126.104 100.583C125.692 100.583 125.371 100.718 125.138 100.986C124.906 101.254 124.789 101.612 124.789 102.059V103.695H127.633V106.807H124.789V117H120.766V106.807H118.888ZM138.456 103.507L137.785 107.29C137.392 107.182 137.025 107.129 136.685 107.129C135.684 107.129 134.897 107.477 134.325 108.175C133.77 108.872 133.493 109.802 133.493 110.964V117H129.469V103.695H133.493V105.385C134.334 104.008 135.567 103.319 137.195 103.319C137.624 103.319 138.044 103.382 138.456 103.507ZM140.288 117V103.695H144.312V117H140.288ZM140.127 102.139V97.8473H144.473V102.139H140.127ZM160.213 111.34H150.369C150.476 112.163 150.825 112.806 151.415 113.271C152.005 113.718 152.72 113.942 153.561 113.942C154.33 113.942 154.973 113.781 155.492 113.459C156.029 113.137 156.511 112.601 156.941 111.85L159.838 113.486C158.586 116.079 156.44 117.376 153.4 117.376C151.54 117.376 149.93 116.714 148.571 115.391C147.23 114.067 146.56 112.386 146.56 110.348C146.56 108.273 147.23 106.583 148.571 105.278C149.913 103.972 151.611 103.319 153.668 103.319C155.617 103.319 157.191 103.954 158.389 105.224C159.605 106.494 160.213 108.076 160.213 109.972V111.34ZM153.588 106.431C152.05 106.431 151.03 107.129 150.53 108.523H156.592C156.431 107.862 156.082 107.352 155.546 106.994C155.009 106.619 154.357 106.431 153.588 106.431ZM175.697 107.933V117H171.674V109.757C171.674 108.005 170.887 107.129 169.313 107.129C168.491 107.129 167.838 107.442 167.355 108.067C166.872 108.693 166.631 109.534 166.631 110.589V117H162.607V103.695H166.631V105.6C167.704 104.08 169.143 103.319 170.95 103.319C172.434 103.319 173.596 103.749 174.437 104.607C175.277 105.448 175.697 106.556 175.697 107.933ZM192.455 98.2228V117H188.431V115.444C187.465 116.732 186.053 117.376 184.193 117.376C182.53 117.376 181.063 116.732 179.794 115.444C178.542 114.139 177.916 112.44 177.916 110.348C177.916 108.237 178.569 106.538 179.874 105.251C181.18 103.963 182.735 103.319 184.542 103.319C186.33 103.319 187.626 103.91 188.431 105.09V98.2228H192.455ZM182.932 112.735C183.576 113.361 184.372 113.674 185.32 113.674C186.267 113.674 187.054 113.361 187.68 112.735C188.324 112.109 188.646 111.313 188.646 110.348C188.646 109.4 188.324 108.613 187.68 107.987C187.054 107.343 186.267 107.021 185.32 107.021C184.372 107.021 183.576 107.343 182.932 107.987C182.306 108.613 181.993 109.4 181.993 110.348C181.993 111.313 182.306 112.109 182.932 112.735ZM198.744 107.075C198.744 107.415 198.977 107.692 199.442 107.906C199.907 108.121 200.622 108.345 201.588 108.577C203.197 108.935 204.351 109.444 205.048 110.106C205.763 110.768 206.121 111.68 206.121 112.842C206.121 114.148 205.611 115.23 204.592 116.088C203.591 116.946 202.285 117.376 200.676 117.376C197.6 117.376 195.472 115.99 194.291 113.218L197.376 111.313C198.092 113.173 199.209 114.103 200.729 114.103C201.23 114.103 201.632 114.014 201.936 113.835C202.258 113.638 202.419 113.379 202.419 113.057C202.419 112.663 202.223 112.359 201.829 112.145C201.436 111.912 200.783 111.707 199.871 111.528C198.494 111.26 197.367 110.768 196.491 110.052C195.633 109.337 195.203 108.407 195.203 107.263C195.203 106.065 195.686 105.108 196.652 104.392C197.618 103.677 198.816 103.319 200.247 103.319C201.713 103.319 202.875 103.597 203.734 104.151C204.592 104.688 205.325 105.546 205.933 106.726L203.036 108.416C202.518 106.914 201.606 106.163 200.3 106.163C199.263 106.163 198.744 106.467 198.744 107.075ZM55.5833 184.367L58.9096 186.513C57.6399 189.088 55.5207 190.376 52.5522 190.376C50.5135 190.376 48.8146 189.732 47.4555 188.444C46.1143 187.139 45.4437 185.44 45.4437 183.348C45.4437 181.291 46.1411 179.61 47.536 178.305C48.9309 176.981 50.6029 176.319 52.5522 176.319C55.485 176.319 57.5505 177.527 58.7486 179.941L55.5029 182.114C54.877 180.719 53.8934 180.021 52.5522 180.021C51.658 180.021 50.9248 180.325 50.3526 180.933C49.7982 181.541 49.521 182.346 49.521 183.348C49.521 184.367 49.7892 185.181 50.3257 185.789C50.8801 186.379 51.6133 186.674 52.5253 186.674C53.8844 186.674 54.9038 185.905 55.5833 184.367ZM72.825 178.17C74.2735 179.404 74.9978 181.13 74.9978 183.348C74.9978 185.565 74.2735 187.291 72.825 188.525C71.3765 189.759 69.6418 190.376 67.621 190.376C65.6003 190.376 63.8656 189.759 62.4171 188.525C60.9686 187.291 60.2443 185.565 60.2443 183.348C60.2443 181.13 60.9686 179.404 62.4171 178.17C63.8656 176.936 65.6003 176.319 67.621 176.319C69.6418 176.319 71.3765 176.936 72.825 178.17ZM65.2873 185.708C65.9311 186.28 66.709 186.566 67.621 186.566C68.5331 186.566 69.311 186.28 69.9548 185.708C70.5986 185.118 70.9205 184.331 70.9205 183.348C70.9205 182.364 70.5986 181.586 69.9548 181.014C69.311 180.424 68.5331 180.129 67.621 180.129C66.709 180.129 65.9311 180.424 65.2873 181.014C64.6435 181.586 64.3216 182.364 64.3216 183.348C64.3216 184.331 64.6435 185.118 65.2873 185.708ZM97.4581 181.148V190H93.4344V181.953C93.4344 180.594 92.7996 179.914 91.5299 179.914C90.9218 179.914 90.4122 180.138 90.0009 180.585C89.6074 181.014 89.4107 181.64 89.4107 182.462V190H85.3871V182.033C85.3871 181.407 85.2261 180.898 84.9042 180.504C84.5823 180.111 84.1084 179.914 83.4825 179.914C82.9103 179.914 82.4095 180.138 81.9803 180.585C81.569 181.032 81.3634 181.658 81.3634 182.462V190H77.3397V176.695H81.3634V178.17C82.3648 176.936 83.6613 176.319 85.2529 176.319C86.8982 176.319 88.1232 176.99 88.9279 178.331C89.8936 176.99 91.2884 176.319 93.1125 176.319C94.4537 176.319 95.5088 176.758 96.2778 177.634C97.0647 178.51 97.4581 179.682 97.4581 181.148ZM120.589 181.148V190H116.565V181.953C116.565 180.594 115.93 179.914 114.661 179.914C114.053 179.914 113.543 180.138 113.132 180.585C112.738 181.014 112.542 181.64 112.542 182.462V190H108.518V182.033C108.518 181.407 108.357 180.898 108.035 180.504C107.713 180.111 107.239 179.914 106.613 179.914C106.041 179.914 105.54 180.138 105.111 180.585C104.7 181.032 104.494 181.658 104.494 182.462V190H100.471V176.695H104.494V178.17C105.496 176.936 106.792 176.319 108.384 176.319C110.029 176.319 111.254 176.99 112.059 178.331C113.024 176.99 114.419 176.319 116.243 176.319C117.585 176.319 118.64 176.758 119.409 177.634C120.196 178.51 120.589 179.682 120.589 181.148ZM123.392 184.742V176.695H127.416V183.857C127.416 184.716 127.612 185.386 128.006 185.869C128.417 186.334 129.007 186.566 129.776 186.566C130.635 186.566 131.296 186.245 131.761 185.601C132.226 184.957 132.459 184.125 132.459 183.106V176.695H136.482V190H132.459V188.069C131.582 189.607 130.205 190.376 128.328 190.376C126.915 190.376 125.735 189.875 124.787 188.873C123.857 187.872 123.392 186.495 123.392 184.742ZM152.488 180.933V190H148.464V182.757C148.464 181.005 147.677 180.129 146.104 180.129C145.281 180.129 144.628 180.442 144.146 181.067C143.663 181.693 143.421 182.534 143.421 183.589V190H139.398V176.695H143.421V178.6C144.494 177.08 145.934 176.319 147.74 176.319C149.224 176.319 150.387 176.749 151.227 177.607C152.068 178.448 152.488 179.556 152.488 180.933ZM155.482 190V176.695H159.506V190H155.482ZM155.321 175.139V170.847H159.666V175.139H155.321ZM161.59 179.807V176.695H163.522V173.101H167.545V176.695H170.308V179.807H167.545V185.064C167.545 185.601 167.679 186.021 167.948 186.325C168.216 186.629 168.574 186.781 169.021 186.781C169.468 186.781 169.888 186.71 170.281 186.566L170.657 189.92C169.906 190.224 169.012 190.376 167.975 190.376C166.741 190.376 165.685 190.018 164.809 189.303C163.951 188.587 163.522 187.443 163.522 185.869V179.807H161.59ZM172.876 190V176.695H176.9V190H172.876ZM172.715 175.139V170.847H177.06V175.139H172.715ZM192.801 184.34H182.956C183.064 185.163 183.412 185.806 184.002 186.271C184.593 186.718 185.308 186.942 186.148 186.942C186.917 186.942 187.561 186.781 188.08 186.459C188.616 186.137 189.099 185.601 189.528 184.85L192.425 186.486C191.173 189.079 189.027 190.376 185.987 190.376C184.128 190.376 182.518 189.714 181.159 188.391C179.818 187.067 179.147 185.386 179.147 183.348C179.147 181.273 179.818 179.583 181.159 178.278C182.5 176.972 184.199 176.319 186.256 176.319C188.205 176.319 189.779 176.954 190.977 178.224C192.193 179.494 192.801 181.076 192.801 182.972V184.34ZM186.175 179.431C184.637 179.431 183.618 180.129 183.117 181.523H189.179C189.019 180.862 188.67 180.352 188.133 179.994C187.597 179.619 186.944 179.431 186.175 179.431ZM198.744 180.075C198.744 180.415 198.977 180.692 199.442 180.906C199.907 181.121 200.622 181.345 201.588 181.577C203.197 181.935 204.351 182.444 205.048 183.106C205.763 183.768 206.121 184.68 206.121 185.842C206.121 187.148 205.611 188.23 204.592 189.088C203.591 189.946 202.285 190.376 200.676 190.376C197.6 190.376 195.472 188.99 194.291 186.218L197.376 184.313C198.092 186.173 199.209 187.103 200.729 187.103C201.23 187.103 201.632 187.014 201.936 186.835C202.258 186.638 202.419 186.379 202.419 186.057C202.419 185.663 202.223 185.359 201.829 185.145C201.436 184.912 200.783 184.707 199.871 184.528C198.494 184.26 197.367 183.768 196.491 183.052C195.633 182.337 195.203 181.407 195.203 180.263C195.203 179.065 195.686 178.108 196.652 177.392C197.618 176.677 198.816 176.319 200.247 176.319C201.713 176.319 202.875 176.597 203.734 177.151C204.592 177.688 205.325 178.546 205.933 179.726L203.036 181.416C202.518 179.914 201.606 179.163 200.3 179.163C199.263 179.163 198.744 179.467 198.744 180.075ZM68.8261 263V244.223H72.8497V251.17C73.9942 249.936 75.4696 249.319 77.2758 249.319C78.8674 249.319 80.2801 249.945 81.5141 251.197C82.748 252.449 83.3649 254.166 83.3649 256.348C83.3649 258.547 82.739 260.273 81.4872 261.525C80.2533 262.759 78.7958 263.376 77.1148 263.376C75.3086 263.376 73.8869 262.741 72.8497 261.471V263H68.8261ZM73.6008 258.762C74.2446 259.37 75.0315 259.674 75.9614 259.674C76.8913 259.674 77.6781 259.37 78.3219 258.762C78.9657 258.136 79.2876 257.331 79.2876 256.348C79.2876 255.364 78.9657 254.568 78.3219 253.96C77.6781 253.334 76.8913 253.021 75.9614 253.021C75.0315 253.021 74.2446 253.334 73.6008 253.96C72.957 254.568 72.6351 255.364 72.6351 256.348C72.6351 257.331 72.957 258.136 73.6008 258.762ZM85.539 257.742V249.695H89.5627V256.857C89.5627 257.716 89.7594 258.386 90.1528 258.869C90.5641 259.334 91.1543 259.566 91.9232 259.566C92.7816 259.566 93.4433 259.245 93.9082 258.601C94.3732 257.957 94.6057 257.125 94.6057 256.106V249.695H98.6294V263H94.6057V261.069C93.7294 262.607 92.3524 263.376 90.4747 263.376C89.0619 263.376 87.8817 262.875 86.9339 261.873C86.004 260.872 85.539 259.495 85.539 257.742ZM105.068 253.075C105.068 253.415 105.301 253.692 105.766 253.906C106.23 254.121 106.946 254.345 107.911 254.577C109.521 254.935 110.674 255.444 111.372 256.106C112.087 256.768 112.445 257.68 112.445 258.842C112.445 260.148 111.935 261.23 110.916 262.088C109.914 262.946 108.609 263.376 106.999 263.376C103.924 263.376 101.795 261.99 100.615 259.218L103.7 257.313C104.415 259.173 105.533 260.103 107.053 260.103C107.554 260.103 107.956 260.014 108.26 259.835C108.582 259.638 108.743 259.379 108.743 259.057C108.743 258.663 108.546 258.359 108.153 258.145C107.759 257.912 107.107 257.707 106.195 257.528C104.818 257.26 103.691 256.768 102.815 256.052C101.956 255.337 101.527 254.407 101.527 253.263C101.527 252.065 102.01 251.108 102.976 250.392C103.941 249.677 105.14 249.319 106.57 249.319C108.037 249.319 109.199 249.597 110.057 250.151C110.916 250.688 111.649 251.546 112.257 252.726L109.36 254.416C108.841 252.914 107.929 252.163 106.624 252.163C105.587 252.163 105.068 252.467 105.068 253.075ZM114.826 263V249.695H118.85V263H114.826ZM114.665 248.139V243.847H119.011V248.139H114.665ZM134.937 253.933V263H130.913V255.757C130.913 254.005 130.126 253.129 128.553 253.129C127.73 253.129 127.077 253.442 126.594 254.067C126.111 254.693 125.87 255.534 125.87 256.589V263H121.846V249.695H125.87V251.6C126.943 250.08 128.383 249.319 130.189 249.319C131.673 249.319 132.836 249.749 133.676 250.607C134.517 251.448 134.937 252.556 134.937 253.933ZM150.809 257.34H140.964C141.072 258.163 141.42 258.806 142.01 259.271C142.601 259.718 143.316 259.942 144.156 259.942C144.925 259.942 145.569 259.781 146.088 259.459C146.624 259.137 147.107 258.601 147.536 257.85L150.433 259.486C149.182 262.079 147.036 263.376 143.995 263.376C142.136 263.376 140.526 262.714 139.167 261.391C137.826 260.067 137.155 258.386 137.155 256.348C137.155 254.273 137.826 252.583 139.167 251.278C140.508 249.972 142.207 249.319 144.264 249.319C146.213 249.319 147.787 249.954 148.985 251.224C150.201 252.494 150.809 254.076 150.809 255.972V257.34ZM144.183 252.431C142.645 252.431 141.626 253.129 141.125 254.523H147.188C147.027 253.862 146.678 253.352 146.141 252.994C145.605 252.619 144.952 252.431 144.183 252.431ZM156.752 253.075C156.752 253.415 156.985 253.692 157.45 253.906C157.915 254.121 158.63 254.345 159.596 254.577C161.205 254.935 162.359 255.444 163.056 256.106C163.772 256.768 164.129 257.68 164.129 258.842C164.129 260.148 163.62 261.23 162.6 262.088C161.599 262.946 160.293 263.376 158.684 263.376C155.608 263.376 153.48 261.99 152.3 259.218L155.384 257.313C156.1 259.173 157.217 260.103 158.737 260.103C159.238 260.103 159.641 260.014 159.945 259.835C160.266 259.638 160.427 259.379 160.427 259.057C160.427 258.663 160.231 258.359 159.837 258.145C159.444 257.912 158.791 257.707 157.879 257.528C156.502 257.26 155.375 256.768 154.499 256.052C153.641 255.337 153.212 254.407 153.212 253.263C153.212 252.065 153.694 251.108 154.66 250.392C155.626 249.677 156.824 249.319 158.255 249.319C159.721 249.319 160.883 249.597 161.742 250.151C162.6 250.688 163.333 251.546 163.941 252.726L161.044 254.416C160.526 252.914 159.614 252.163 158.308 252.163C157.271 252.163 156.752 252.467 156.752 253.075ZM170.165 253.075C170.165 253.415 170.397 253.692 170.862 253.906C171.327 254.121 172.042 254.345 173.008 254.577C174.618 254.935 175.771 255.444 176.468 256.106C177.184 256.768 177.541 257.68 177.541 258.842C177.541 260.148 177.032 261.23 176.012 262.088C175.011 262.946 173.706 263.376 172.096 263.376C169.02 263.376 166.892 261.99 165.712 259.218L168.797 257.313C169.512 259.173 170.63 260.103 172.15 260.103C172.65 260.103 173.053 260.014 173.357 259.835C173.679 259.638 173.84 259.379 173.84 259.057C173.84 258.663 173.643 258.359 173.25 258.145C172.856 257.912 172.203 257.707 171.291 257.528C169.914 257.26 168.788 256.768 167.911 256.052C167.053 255.337 166.624 254.407 166.624 253.263C166.624 252.065 167.107 251.108 168.072 250.392C169.038 249.677 170.236 249.319 171.667 249.319C173.133 249.319 174.296 249.597 175.154 250.151C176.012 250.688 176.746 251.546 177.354 252.726L174.457 254.416C173.938 252.914 173.026 252.163 171.721 252.163C170.683 252.163 170.165 252.467 170.165 253.075ZM192.801 257.34H182.956C183.064 258.163 183.412 258.806 184.002 259.271C184.593 259.718 185.308 259.942 186.148 259.942C186.917 259.942 187.561 259.781 188.08 259.459C188.616 259.137 189.099 258.601 189.528 257.85L192.425 259.486C191.173 262.079 189.028 263.376 185.987 263.376C184.128 263.376 182.518 262.714 181.159 261.391C179.818 260.067 179.147 258.386 179.147 256.348C179.147 254.273 179.818 252.583 181.159 251.278C182.5 249.972 184.199 249.319 186.256 249.319C188.205 249.319 189.779 249.954 190.977 251.224C192.193 252.494 192.801 254.076 192.801 255.972V257.34ZM186.175 252.431C184.637 252.431 183.618 253.129 183.117 254.523H189.18C189.019 253.862 188.67 253.352 188.133 252.994C187.597 252.619 186.944 252.431 186.175 252.431ZM198.744 253.075C198.744 253.415 198.977 253.692 199.442 253.906C199.907 254.121 200.622 254.345 201.588 254.577C203.197 254.935 204.351 255.444 205.048 256.106C205.763 256.768 206.121 257.68 206.121 258.842C206.121 260.148 205.611 261.23 204.592 262.088C203.591 262.946 202.285 263.376 200.676 263.376C197.6 263.376 195.472 261.99 194.291 259.218L197.376 257.313C198.092 259.173 199.209 260.103 200.729 260.103C201.23 260.103 201.632 260.014 201.936 259.835C202.258 259.638 202.419 259.379 202.419 259.057C202.419 258.663 202.223 258.359 201.829 258.145C201.436 257.912 200.783 257.707 199.871 257.528C198.494 257.26 197.367 256.768 196.491 256.052C195.633 255.337 195.203 254.407 195.203 253.263C195.203 252.065 195.686 251.108 196.652 250.392C197.618 249.677 198.816 249.319 200.247 249.319C201.713 249.319 202.875 249.597 203.734 250.151C204.592 250.688 205.325 251.546 205.933 252.726L203.036 254.416C202.518 252.914 201.606 252.163 200.3 252.163C199.263 252.163 198.744 252.467 198.744 253.075Z" class="svg-primary"/>
<path d="M892.805 34.2637V31.1521H894.682V29.4353C894.682 27.7901 895.165 26.5293 896.131 25.653C897.097 24.7768 898.322 24.3386 899.806 24.3386C900.432 24.3386 901.067 24.4638 901.71 24.7142L900.959 28.2014C900.637 28.0941 900.324 28.0404 900.02 28.0404C899.609 28.0404 899.287 28.1745 899.055 28.4428C898.822 28.711 898.706 29.0687 898.706 29.5158V31.1521H901.549V34.2637H898.706V44.457H894.682V34.2637H892.805ZM916.055 38.7971H906.21C906.318 39.6197 906.666 40.2635 907.256 40.7284C907.846 41.1755 908.562 41.399 909.402 41.399C910.171 41.399 910.815 41.2381 911.334 40.9162C911.87 40.5943 912.353 40.0578 912.782 39.3067L915.679 40.943C914.427 43.5361 912.281 44.8326 909.241 44.8326C907.382 44.8326 905.772 44.1709 904.413 42.8476C903.072 41.5242 902.401 39.8432 902.401 37.8045C902.401 35.7301 903.072 34.0402 904.413 32.7347C905.754 31.4293 907.453 30.7765 909.51 30.7765C911.459 30.7765 913.033 31.4114 914.231 32.6811C915.447 33.9508 916.055 35.5334 916.055 37.429V38.7971ZM909.429 33.8882C907.891 33.8882 906.872 34.5856 906.371 35.9805H912.433C912.273 35.3188 911.924 34.8091 911.387 34.4515C910.851 34.0759 910.198 33.8882 909.429 33.8882ZM931.432 38.7971H921.587C921.694 39.6197 922.043 40.2635 922.633 40.7284C923.223 41.1755 923.939 41.399 924.779 41.399C925.548 41.399 926.192 41.2381 926.711 40.9162C927.247 40.5943 927.73 40.0578 928.159 39.3067L931.056 40.943C929.804 43.5361 927.658 44.8326 924.618 44.8326C922.758 44.8326 921.149 44.1709 919.79 42.8476C918.449 41.5242 917.778 39.8432 917.778 37.8045C917.778 35.7301 918.449 34.0402 919.79 32.7347C921.131 31.4293 922.83 30.7765 924.887 30.7765C926.836 30.7765 928.41 31.4114 929.608 32.6811C930.824 33.9508 931.432 35.5334 931.432 37.429V38.7971ZM924.806 33.8882C923.268 33.8882 922.249 34.5856 921.748 35.9805H927.81C927.649 35.3188 927.301 34.8091 926.764 34.4515C926.228 34.0759 925.575 33.8882 924.806 33.8882ZM937.375 34.532C937.375 34.8717 937.608 35.1489 938.073 35.3635C938.538 35.5781 939.253 35.8017 940.219 36.0341C941.828 36.3918 942.982 36.9015 943.679 37.5631C944.394 38.2248 944.752 39.1368 944.752 40.2992C944.752 41.6047 944.242 42.6866 943.223 43.545C942.222 44.4034 940.916 44.8326 939.307 44.8326C936.231 44.8326 934.103 43.4466 932.922 40.6748L936.007 38.7702C936.723 40.6301 937.84 41.56 939.36 41.56C939.861 41.56 940.263 41.4706 940.567 41.2917C940.889 41.095 941.05 40.8357 941.05 40.5138C941.05 40.1204 940.854 39.8164 940.46 39.6018C940.067 39.3693 939.414 39.1637 938.502 38.9848C937.125 38.7166 935.998 38.2248 935.122 37.5095C934.264 36.7942 933.834 35.8642 933.834 34.7197C933.834 33.5216 934.317 32.5648 935.283 31.8495C936.249 31.1342 937.447 30.7765 938.877 30.7765C940.344 30.7765 941.506 31.0537 942.365 31.6081C943.223 32.1446 943.956 33.003 944.564 34.1832L941.667 35.8732C941.149 34.371 940.237 33.6199 938.931 33.6199C937.894 33.6199 937.375 33.9239 937.375 34.532ZM897.767 107.532C897.767 107.872 898 108.149 898.465 108.364C898.93 108.578 899.645 108.802 900.611 109.034C902.22 109.392 903.374 109.901 904.071 110.563C904.786 111.225 905.144 112.137 905.144 113.299C905.144 114.605 904.634 115.687 903.615 116.545C902.613 117.403 901.308 117.833 899.699 117.833C896.623 117.833 894.495 116.447 893.314 113.675L896.399 111.77C897.114 113.63 898.232 114.56 899.752 114.56C900.253 114.56 900.655 114.471 900.959 114.292C901.281 114.095 901.442 113.836 901.442 113.514C901.442 113.12 901.245 112.816 900.852 112.602C900.459 112.369 899.806 112.164 898.894 111.985C897.517 111.717 896.39 111.225 895.514 110.509C894.656 109.794 894.226 108.864 894.226 107.72C894.226 106.522 894.709 105.565 895.675 104.85C896.641 104.134 897.839 103.777 899.269 103.777C900.736 103.777 901.898 104.054 902.757 104.608C903.615 105.145 904.348 106.003 904.956 107.183L902.059 108.873C901.541 107.371 900.628 106.62 899.323 106.62C898.286 106.62 897.767 106.924 897.767 107.532ZM907.525 112.199V104.152H911.549V111.314C911.549 112.173 911.745 112.843 912.139 113.326C912.55 113.791 913.14 114.023 913.909 114.023C914.768 114.023 915.429 113.702 915.894 113.058C916.359 112.414 916.592 111.582 916.592 110.563V104.152H920.615V117.457H916.592V115.526C915.715 117.064 914.338 117.833 912.461 117.833C911.048 117.833 909.868 117.332 908.92 116.33C907.99 115.329 907.525 113.952 907.525 112.199ZM932.517 103.964L931.846 107.747C931.453 107.639 931.086 107.586 930.746 107.586C929.745 107.586 928.958 107.934 928.386 108.632C927.832 109.329 927.554 110.259 927.554 111.422V117.457H923.531V104.152H927.554V105.842C928.395 104.465 929.629 103.777 931.256 103.777C931.685 103.777 932.106 103.839 932.517 103.964ZM948.575 104.152L943.076 117.457H939.267L933.768 104.152H938.114L941.172 112.36L944.23 104.152H948.575ZM962.552 111.797H952.708C952.815 112.62 953.164 113.263 953.754 113.728C954.344 114.175 955.059 114.399 955.9 114.399C956.669 114.399 957.313 114.238 957.831 113.916C958.368 113.594 958.851 113.058 959.28 112.307L962.177 113.943C960.925 116.536 958.779 117.833 955.739 117.833C953.879 117.833 952.27 117.171 950.911 115.848C949.569 114.524 948.899 112.843 948.899 110.805C948.899 108.73 949.569 107.04 950.911 105.735C952.252 104.429 953.951 103.777 956.007 103.777C957.956 103.777 959.53 104.411 960.728 105.681C961.944 106.951 962.552 108.533 962.552 110.429V111.797ZM955.927 106.888C954.389 106.888 953.369 107.586 952.869 108.98H958.931C958.77 108.319 958.421 107.809 957.885 107.451C957.348 107.076 956.696 106.888 955.927 106.888ZM964.946 117.457V104.152H968.97V117.457H964.946ZM964.785 102.596V98.3043H969.131V102.596H964.785ZM971.967 117.457V98.6799H975.99V117.457H971.967ZM978.987 117.457V98.6799H983.011V117.457H978.987ZM998.808 117.457H994.731C994.391 117.117 994.176 116.545 994.087 115.74C993.103 117.135 991.744 117.833 990.01 117.833C988.543 117.833 987.39 117.439 986.549 116.652C985.727 115.865 985.315 114.837 985.315 113.567C985.315 112.316 985.789 111.332 986.737 110.617C987.685 109.884 988.946 109.401 990.519 109.168L993.899 108.632V108.39C993.899 107.103 993.211 106.459 991.834 106.459C991.226 106.459 990.734 106.566 990.358 106.781C989.983 106.995 989.795 107.291 989.795 107.666C989.795 107.773 989.804 107.854 989.822 107.908L986.174 109.141C986.031 108.623 985.959 108.194 985.959 107.854C985.959 106.656 986.513 105.681 987.622 104.93C988.749 104.161 990.153 103.777 991.834 103.777C995.893 103.777 997.923 105.458 997.923 108.82V114.158C997.923 115.499 998.218 116.599 998.808 117.457ZM990.841 114.721C991.753 114.721 992.486 114.399 993.041 113.755C993.613 113.094 993.899 112.334 993.899 111.475V111.234L991.056 111.717C989.84 111.949 989.232 112.486 989.232 113.326C989.232 113.719 989.375 114.05 989.661 114.319C989.947 114.587 990.34 114.721 990.841 114.721ZM1013.98 108.39V117.457H1009.95V110.214C1009.95 108.462 1009.17 107.586 1007.59 107.586C1006.77 107.586 1006.12 107.899 1005.63 108.524C1005.15 109.15 1004.91 109.991 1004.91 111.046V117.457H1000.89V104.152H1004.91V106.057C1005.98 104.537 1007.42 103.777 1009.23 103.777C1010.71 103.777 1011.88 104.206 1012.72 105.064C1013.56 105.905 1013.98 107.013 1013.98 108.39ZM1026.34 111.824L1029.66 113.97C1028.39 116.545 1026.27 117.833 1023.3 117.833C1021.27 117.833 1019.57 117.189 1018.21 115.901C1016.87 114.596 1016.2 112.897 1016.2 110.805C1016.2 108.748 1016.89 107.067 1018.29 105.762C1019.68 104.438 1021.36 103.777 1023.3 103.777C1026.24 103.777 1028.3 104.984 1029.5 107.398L1026.25 109.571C1025.63 108.176 1024.65 107.478 1023.3 107.478C1022.41 107.478 1021.68 107.782 1021.1 108.39C1020.55 108.998 1020.27 109.803 1020.27 110.805C1020.27 111.824 1020.54 112.638 1021.08 113.246C1021.63 113.836 1022.37 114.131 1023.28 114.131C1024.64 114.131 1025.66 113.362 1026.34 111.824ZM1044.65 111.797H1034.81C1034.91 112.62 1035.26 113.263 1035.85 113.728C1036.44 114.175 1037.16 114.399 1038 114.399C1038.77 114.399 1039.41 114.238 1039.93 113.916C1040.47 113.594 1040.95 113.058 1041.38 112.307L1044.27 113.943C1043.02 116.536 1040.88 117.833 1037.84 117.833C1035.98 117.833 1034.37 117.171 1033.01 115.848C1031.67 114.524 1031 112.843 1031 110.805C1031 108.73 1031.67 107.04 1033.01 105.735C1034.35 104.429 1036.05 103.777 1038.1 103.777C1040.05 103.777 1041.63 104.411 1042.83 105.681C1044.04 106.951 1044.65 108.533 1044.65 110.429V111.797ZM1038.02 106.888C1036.49 106.888 1035.47 107.586 1034.97 108.98H1041.03C1040.87 108.319 1040.52 107.809 1039.98 107.451C1039.45 107.076 1038.79 106.888 1038.02 106.888ZM903.32 184.824L906.646 186.97C905.376 189.545 903.257 190.833 900.289 190.833C898.25 190.833 896.551 190.189 895.192 188.901C893.851 187.596 893.18 185.897 893.18 183.805C893.18 181.748 893.878 180.067 895.273 178.762C896.667 177.438 898.339 176.777 900.289 176.777C903.222 176.777 905.287 177.984 906.485 180.398L903.239 182.571C902.613 181.176 901.63 180.478 900.289 180.478C899.395 180.478 898.661 180.782 898.089 181.39C897.535 181.998 897.258 182.803 897.258 183.805C897.258 184.824 897.526 185.638 898.062 186.246C898.617 186.836 899.35 187.131 900.262 187.131C901.621 187.131 902.64 186.362 903.32 184.824ZM921.635 184.797H911.79C911.897 185.62 912.246 186.263 912.836 186.728C913.426 187.175 914.142 187.399 914.982 187.399C915.751 187.399 916.395 187.238 916.913 186.916C917.45 186.594 917.933 186.058 918.362 185.307L921.259 186.943C920.007 189.536 917.861 190.833 914.821 190.833C912.961 190.833 911.352 190.171 909.993 188.848C908.651 187.524 907.981 185.843 907.981 183.805C907.981 181.73 908.651 180.04 909.993 178.735C911.334 177.429 913.033 176.777 915.089 176.777C917.039 176.777 918.612 177.411 919.81 178.681C921.026 179.951 921.635 181.533 921.635 183.429V184.797ZM915.009 179.888C913.471 179.888 912.452 180.586 911.951 181.98H918.013C917.852 181.319 917.504 180.809 916.967 180.451C916.431 180.076 915.778 179.888 915.009 179.888ZM937.119 181.39V190.457H933.095V183.214C933.095 181.462 932.308 180.586 930.735 180.586C929.912 180.586 929.259 180.899 928.776 181.524C928.293 182.15 928.052 182.991 928.052 184.046V190.457H924.028V177.152H928.052V179.057C929.125 177.537 930.565 176.777 932.371 176.777C933.855 176.777 935.018 177.206 935.858 178.064C936.699 178.905 937.119 180.013 937.119 181.39ZM943.374 180.532C943.374 180.872 943.607 181.149 944.072 181.364C944.537 181.578 945.252 181.802 946.218 182.034C947.827 182.392 948.98 182.901 949.678 183.563C950.393 184.225 950.751 185.137 950.751 186.299C950.751 187.605 950.241 188.687 949.222 189.545C948.22 190.403 946.915 190.833 945.305 190.833C942.23 190.833 940.102 189.447 938.921 186.675L942.006 184.77C942.721 186.63 943.839 187.56 945.359 187.56C945.86 187.56 946.262 187.471 946.566 187.292C946.888 187.095 947.049 186.836 947.049 186.514C947.049 186.12 946.852 185.816 946.459 185.602C946.066 185.369 945.413 185.164 944.501 184.985C943.124 184.717 941.997 184.225 941.121 183.509C940.262 182.794 939.833 181.864 939.833 180.72C939.833 179.522 940.316 178.565 941.282 177.85C942.247 177.134 943.446 176.777 944.876 176.777C946.343 176.777 947.505 177.054 948.363 177.608C949.222 178.145 949.955 179.003 950.563 180.183L947.666 181.873C947.147 180.371 946.235 179.62 944.93 179.62C943.893 179.62 943.374 179.924 943.374 180.532ZM964.937 178.627C966.386 179.861 967.11 181.587 967.11 183.805C967.11 186.022 966.386 187.748 964.937 188.982C963.489 190.216 961.754 190.833 959.733 190.833C957.713 190.833 955.978 190.216 954.529 188.982C953.081 187.748 952.357 186.022 952.357 183.805C952.357 181.587 953.081 179.861 954.529 178.627C955.978 177.393 957.713 176.777 959.733 176.777C961.754 176.777 963.489 177.393 964.937 178.627ZM957.4 186.165C958.043 186.737 958.821 187.023 959.733 187.023C960.645 187.023 961.423 186.737 962.067 186.165C962.711 185.575 963.033 184.788 963.033 183.805C963.033 182.821 962.711 182.043 962.067 181.471C961.423 180.881 960.645 180.586 959.733 180.586C958.821 180.586 958.043 180.881 957.4 181.471C956.756 182.043 956.434 182.821 956.434 183.805C956.434 184.788 956.756 185.575 957.4 186.165ZM978.438 176.964L977.768 180.747C977.374 180.639 977.008 180.586 976.668 180.586C975.666 180.586 974.879 180.934 974.307 181.632C973.753 182.329 973.476 183.259 973.476 184.422V190.457H969.452V177.152H973.476V178.842C974.316 177.465 975.55 176.777 977.177 176.777C977.607 176.777 978.027 176.839 978.438 176.964ZM983.27 180.532C983.27 180.872 983.503 181.149 983.968 181.364C984.433 181.578 985.148 181.802 986.114 182.034C987.723 182.392 988.877 182.901 989.574 183.563C990.289 184.225 990.647 185.137 990.647 186.299C990.647 187.605 990.137 188.687 989.118 189.545C988.117 190.403 986.811 190.833 985.202 190.833C982.126 190.833 979.998 189.447 978.817 186.675L981.902 184.77C982.618 186.63 983.735 187.56 985.255 187.56C985.756 187.56 986.158 187.471 986.462 187.292C986.784 187.095 986.945 186.836 986.945 186.514C986.945 186.12 986.749 185.816 986.355 185.602C985.962 185.369 985.309 185.164 984.397 184.985C983.02 184.717 981.893 184.225 981.017 183.509C980.159 182.794 979.73 181.864 979.73 180.72C979.73 179.522 980.212 178.565 981.178 177.85C982.144 177.134 983.342 176.777 984.773 176.777C986.239 176.777 987.401 177.054 988.26 177.608C989.118 178.145 989.851 179.003 990.459 180.183L987.562 181.873C987.044 180.371 986.132 179.62 984.826 179.62C983.789 179.62 983.27 179.924 983.27 180.532ZM1006.44 181.39V190.457H1002.42V183.349C1002.42 182.49 1002.2 181.82 1001.77 181.337C1001.34 180.836 1000.73 180.586 999.922 180.586C999.064 180.586 998.366 180.899 997.83 181.524C997.311 182.15 997.052 182.991 997.052 184.046V190.457H993.028V171.68H997.052V179.003C998.214 177.519 999.734 176.777 1001.61 176.777C1003.08 176.777 1004.25 177.197 1005.13 178.037C1006 178.86 1006.44 179.978 1006.44 181.39ZM1009.45 190.457V177.152H1013.48V190.457H1009.45ZM1009.29 175.596V171.304H1013.64V175.596H1009.29ZM1016.47 195.929V177.152H1020.5V178.681C1021.53 177.411 1023 176.777 1024.9 176.777C1026.52 176.777 1027.95 177.402 1029.16 178.654C1030.4 179.906 1031.01 181.623 1031.01 183.805C1031.01 185.986 1030.38 187.703 1029.11 188.955C1027.86 190.207 1026.43 190.833 1024.82 190.833C1023.03 190.833 1021.59 190.242 1020.5 189.062V195.929H1016.47ZM1025.97 181.417C1025.33 180.791 1024.54 180.478 1023.61 180.478C1022.68 180.478 1021.89 180.791 1021.25 181.417C1020.6 182.025 1020.28 182.821 1020.28 183.805C1020.28 184.788 1020.6 185.593 1021.25 186.219C1021.89 186.827 1022.68 187.131 1023.61 187.131C1024.54 187.131 1025.33 186.827 1025.97 186.219C1026.61 185.593 1026.94 184.788 1026.94 183.805C1026.94 182.821 1026.61 182.025 1025.97 181.417ZM907.263 254.39V263.457H903.239V256.349C903.239 255.49 903.025 254.82 902.596 254.337C902.166 253.836 901.549 253.586 900.745 253.586C899.886 253.586 899.189 253.899 898.652 254.524C898.134 255.15 897.874 255.991 897.874 257.046V263.457H893.851V244.68H897.874V252.003C899.037 250.519 900.557 249.777 902.435 249.777C903.901 249.777 905.072 250.197 905.949 251.037C906.825 251.86 907.263 252.978 907.263 254.39ZM922.997 263.457H918.92C918.58 263.117 918.366 262.545 918.276 261.74C917.293 263.135 915.934 263.833 914.199 263.833C912.732 263.833 911.579 263.439 910.739 262.652C909.916 261.865 909.505 260.837 909.505 259.567C909.505 258.316 909.978 257.332 910.926 256.617C911.874 255.884 913.135 255.401 914.709 255.168L918.088 254.632V254.39C918.088 253.103 917.4 252.459 916.023 252.459C915.415 252.459 914.923 252.566 914.548 252.781C914.172 252.995 913.984 253.291 913.984 253.666C913.984 253.773 913.993 253.854 914.011 253.908L910.363 255.141C910.22 254.623 910.148 254.194 910.148 253.854C910.148 252.656 910.703 251.681 911.811 250.93C912.938 250.161 914.342 249.777 916.023 249.777C920.082 249.777 922.112 251.458 922.112 254.82V260.158C922.112 261.499 922.407 262.599 922.997 263.457ZM915.03 260.721C915.942 260.721 916.676 260.399 917.23 259.755C917.802 259.094 918.088 258.334 918.088 257.475V257.234L915.245 257.717C914.029 257.949 913.421 258.486 913.421 259.326C913.421 259.719 913.564 260.05 913.85 260.319C914.136 260.587 914.53 260.721 915.03 260.721ZM934.571 257.824L937.898 259.97C936.628 262.545 934.509 263.833 931.54 263.833C929.502 263.833 927.803 263.189 926.444 261.901C925.102 260.596 924.432 258.897 924.432 256.805C924.432 254.748 925.129 253.067 926.524 251.762C927.919 250.438 929.591 249.777 931.54 249.777C934.473 249.777 936.539 250.984 937.737 253.398L934.491 255.571C933.865 254.176 932.882 253.478 931.54 253.478C930.646 253.478 929.913 253.782 929.341 254.39C928.786 254.998 928.509 255.803 928.509 256.805C928.509 257.824 928.777 258.638 929.314 259.246C929.868 259.836 930.601 260.131 931.513 260.131C932.873 260.131 933.892 259.362 934.571 257.824ZM943.953 244.68V253.666L947.494 250.152H952.456L947.655 254.846L953.181 263.457H948.433L944.758 257.69L943.953 258.494V263.457H939.929V244.68H943.953ZM966.613 257.797H956.768C956.875 258.62 957.224 259.263 957.814 259.728C958.404 260.175 959.12 260.399 959.96 260.399C960.729 260.399 961.373 260.238 961.892 259.916C962.428 259.594 962.911 259.058 963.34 258.307L966.237 259.943C964.985 262.536 962.839 263.833 959.799 263.833C957.939 263.833 956.33 263.171 954.971 261.848C953.63 260.524 952.959 258.843 952.959 256.805C952.959 254.73 953.63 253.04 954.971 251.735C956.312 250.429 958.011 249.777 960.068 249.777C962.017 249.777 963.591 250.411 964.789 251.681C966.005 252.951 966.613 254.533 966.613 256.429V257.797ZM959.987 252.888C958.449 252.888 957.43 253.586 956.929 254.98H962.991C962.83 254.319 962.482 253.809 961.945 253.451C961.409 253.076 960.756 252.888 959.987 252.888ZM977.993 249.964L977.322 253.747C976.929 253.639 976.562 253.586 976.222 253.586C975.221 253.586 974.434 253.934 973.862 254.632C973.307 255.329 973.03 256.259 973.03 257.422V263.457H969.007V250.152H973.03V251.842C973.871 250.465 975.105 249.777 976.732 249.777C977.161 249.777 977.582 249.839 977.993 249.964ZM982.825 253.532C982.825 253.872 983.057 254.149 983.522 254.364C983.987 254.578 984.703 254.802 985.668 255.034C987.278 255.392 988.431 255.901 989.129 256.563C989.844 257.225 990.202 258.137 990.202 259.299C990.202 260.605 989.692 261.687 988.673 262.545C987.671 263.403 986.366 263.833 984.756 263.833C981.681 263.833 979.552 262.447 978.372 259.675L981.457 257.77C982.172 259.63 983.29 260.56 984.81 260.56C985.311 260.56 985.713 260.471 986.017 260.292C986.339 260.095 986.5 259.836 986.5 259.514C986.5 259.12 986.303 258.816 985.91 258.602C985.516 258.369 984.864 258.164 983.952 257.985C982.575 257.717 981.448 257.225 980.572 256.509C979.713 255.794 979.284 254.864 979.284 253.72C979.284 252.522 979.767 251.565 980.733 250.85C981.698 250.134 982.897 249.777 984.327 249.777C985.794 249.777 986.956 250.054 987.814 250.608C988.673 251.145 989.406 252.003 990.014 253.183L987.117 254.873C986.598 253.371 985.686 252.62 984.381 252.62C983.344 252.62 982.825 252.924 982.825 253.532Z" fill="#FF0000"/>
<path d="M663.341 113.75C663.341 106.925 665.588 100.1 665.588 91C665.588 40.95 625.141 0 575.706 0C539.753 0 510.541 20.475 494.812 50.05C490.318 47.775 481.329 45.5 474.588 45.5C443.129 45.5 418.412 70.525 418.412 102.375C418.412 106.925 418.412 111.475 420.659 113.75C380.212 120.575 351 152.425 351 193.375C351 236.6 386.953 273 429.647 273H654.353C697.047 273 733 236.6 733 193.375C733 152.425 703.788 118.3 663.341 113.75Z" class="svg-primary"/>
<path d="M411.888 61.1221C412.6 60.5332 412.696 59.474 412.103 58.7562L402.431 47.0595C401.837 46.3417 400.779 46.2372 400.067 46.8261C399.355 47.4149 399.258 48.4741 399.852 49.1919L408.449 59.589L398.134 68.1186C397.422 68.7074 397.326 69.7667 397.919 70.4844C398.513 71.2022 399.571 71.3067 400.283 70.7179L411.888 61.1221ZM221.407 42.8077L410.661 61.4953L410.965 58.1495L221.71 39.4619L221.407 42.8077Z" class="svg-primary"/>
<path d="M358.131 127.7C358.845 127.114 358.944 126.055 358.352 125.335L348.713 113.609C348.122 112.89 347.063 112.782 346.35 113.369C345.636 113.955 345.537 115.014 346.128 115.734L354.696 126.157L344.358 134.656C343.644 135.242 343.545 136.301 344.136 137.021C344.728 137.74 345.786 137.848 346.5 137.261L358.131 127.7ZM222.463 114.385L356.903 128.07L357.216 124.725L222.776 111.04L222.463 114.385Z" class="svg-primary"/>
<path d="M336.483 181.129C337.126 180.459 337.104 179.396 336.435 178.754L325.53 168.303C324.861 167.662 323.797 167.685 323.155 168.356C322.512 169.026 322.534 170.089 323.203 170.731L332.896 180.021L323.59 189.731C322.947 190.402 322.969 191.465 323.638 192.106C324.307 192.748 325.371 192.724 326.013 192.054L336.483 181.129ZM222.712 184.14L335.306 181.648L335.237 178.289L222.644 180.781L222.712 184.14Z" class="svg-primary"/>
<path d="M347.182 236.045C347.754 235.308 347.626 234.252 346.897 233.686L335.015 224.468C334.286 223.902 333.231 224.041 332.66 224.778C332.088 225.514 332.216 226.57 332.945 227.136L343.507 235.33L335.226 246.003C334.655 246.74 334.782 247.796 335.512 248.361C336.241 248.927 337.295 248.788 337.867 248.052L347.182 236.045ZM221.76 253.04L346.064 236.688L345.66 233.353L221.357 249.704L221.76 253.04Z" class="svg-primary"/>
<path d="M878.917 42.7338C879.52 42.025 879.439 40.9646 878.735 40.3652L867.263 30.5976C866.559 29.9982 865.499 30.0868 864.895 30.7956C864.292 31.5043 864.373 32.5647 865.077 33.1641L875.275 41.8465L866.534 52.1127C865.931 52.8214 866.012 53.8819 866.716 54.4813C867.42 55.0807 868.48 54.992 869.084 54.2833L878.917 42.7338ZM685.171 59.4314L877.771 43.3233L877.514 39.9736L684.913 56.0818L685.171 59.4314Z" fill="#FF0000"/>
<path d="M878.796 112.988C879.47 112.352 879.499 111.289 878.861 110.613L868.47 99.6073C867.833 98.9319 866.77 98.9 866.096 99.5361C865.422 100.172 865.393 101.235 866.03 101.911L875.267 111.694L865.507 120.908C864.833 121.544 864.804 122.607 865.442 123.283C866.079 123.958 867.142 123.99 867.816 123.354L878.796 112.988ZM719.518 108.707L877.595 113.444L877.687 110.086L719.611 105.348L719.518 108.707Z" fill="#FF0000"/>
<path d="M878.921 180.202C879.607 179.579 879.655 178.517 879.03 177.829L868.844 166.616C868.219 165.928 867.157 165.875 866.472 166.498C865.787 167.12 865.738 168.183 866.363 168.871L875.417 178.837L865.49 187.855C864.805 188.478 864.756 189.54 865.381 190.228C866.006 190.916 867.068 190.969 867.754 190.347L878.921 180.202ZM746.742 174.085L877.712 180.634L877.867 177.278L746.896 170.729L746.742 174.085Z" fill="#FF0000"/>
<path d="M878.764 252.754C879.517 252.224 879.691 251.175 879.153 250.411L870.383 237.966C869.845 237.202 868.798 237.014 868.045 237.544C867.292 238.075 867.118 239.124 867.656 239.888L875.452 250.95L864.545 258.636C863.792 259.166 863.618 260.216 864.156 260.979C864.695 261.743 865.741 261.932 866.494 261.401L878.764 252.754ZM739.276 228.075L877.515 253.029L878.065 249.715L739.826 224.761L739.276 228.075Z" fill="#FF0000"/>
<path d="M455.199 151V95.014H479.193C484.951 95.014 489.483 96.2404 492.789 98.6931C496.148 101.092 497.828 104.452 497.828 108.771C497.828 111.49 497.188 113.756 495.909 115.569C494.682 117.328 492.896 118.955 490.55 120.448C493.323 121.621 495.615 123.354 497.428 125.646C499.241 127.886 500.147 130.738 500.147 134.204C500.147 139.376 498.201 143.482 494.309 146.521C490.47 149.507 485.698 151 479.993 151H455.199ZM468.155 126.686V140.283H479.593C485.031 140.283 487.751 138.043 487.751 133.564C487.751 128.979 485.031 126.686 479.593 126.686H468.155ZM468.155 105.091V116.129H478.953C481.139 116.129 482.818 115.649 483.992 114.689C485.218 113.676 485.831 112.29 485.831 110.53C485.831 108.824 485.245 107.491 484.071 106.531C482.898 105.571 481.192 105.091 478.953 105.091H468.155ZM507.529 151V95.014H520.486V151H507.529ZM575.443 151L573.204 144.202C569.418 149.48 563.793 152.12 556.328 152.12C548.276 152.12 541.611 149.4 536.333 143.962C531.107 138.47 528.495 131.485 528.495 123.007C528.495 114.582 531.347 107.624 537.053 102.132C542.758 96.6403 549.769 93.8943 558.087 93.8943C563.686 93.8943 568.698 95.1206 573.124 97.5734C577.549 100.026 580.828 103.359 582.961 107.571L573.044 114.769C569.311 108.424 564.246 105.251 557.847 105.251C553.209 105.251 549.316 106.931 546.17 110.29C543.024 113.596 541.452 117.835 541.452 123.007C541.452 128.126 542.998 132.365 546.09 135.724C549.183 139.083 552.862 140.763 557.128 140.763C560.913 140.763 564.033 139.776 566.485 137.803C568.938 135.83 570.431 133.351 570.964 130.365H554.008V120.608H583.681V151H575.443ZM451.12 171.371V160.014H497.188V171.371H480.632V216H467.676V171.371H451.12ZM503.468 216V160.014H544.338V171.371H516.425V181.529H542.098V192.566H516.425V204.643H544.578V216H503.468ZM593.896 194.485L604.373 202.003C601.121 207.229 597.468 211.068 593.416 213.521C589.417 215.92 584.458 217.12 578.54 217.12C570.009 217.12 563.024 214.454 557.585 209.122C552.146 203.736 549.427 196.698 549.427 188.007C549.427 179.369 552.2 172.358 557.745 166.972C563.344 161.587 570.382 158.894 578.86 158.894C584.831 158.894 590.004 160.254 594.376 162.973C598.748 165.639 601.921 169.185 603.893 173.611L593.096 181.129C589.79 174.304 584.911 170.891 578.46 170.891C573.981 170.891 570.168 172.464 567.023 175.61C563.93 178.756 562.384 182.888 562.384 188.007C562.384 193.019 563.93 197.125 567.023 200.324C570.168 203.523 574.008 205.123 578.54 205.123C582.006 205.123 584.938 204.243 587.338 202.483C589.737 200.724 591.923 198.058 593.896 194.485ZM611.253 216V160.014H624.21V181.449H645.805V160.014H658.762V216H645.805V193.446H624.21V216H611.253Z" class="svg-secondary"/>
</svg>
