<svg width="254" height="254" viewBox="0 0 254 254" fill="none" xmlns="http://www.w3.org/2000/svg">
<path d="M45.4993 214.129C40.4495 223.268 51.8393 229.145 56.5006 220.564C58.4765 216.927 119.036 72.0378 126.375 54.9719L196.993 220.028C201.683 230.038 213.405 222.709 209.077 213.235L133.431 40.8557C129.762 33.0221 122.141 33.0221 118.754 41.1354C118.471 41.695 48.4068 208.867 45.4993 214.129Z" fill="#F0F0F0"/>
<path d="M32.2237 200.239C18.396 182.715 9.79893 161.701 7.40739 139.581C5.01584 117.46 8.92553 95.1182 18.6931 75.0881C28.4607 55.058 43.6953 38.1413 62.6694 26.2563C81.6434 14.3713 103.598 7.9937 126.043 7.8466C148.488 7.69949 170.525 13.7888 189.656 25.424C208.787 37.0592 224.246 53.7748 234.28 73.6751C244.314 93.5755 248.521 115.864 246.425 138.014C244.329 160.164 236.013 181.289 222.42 198.992L222.187 198.817C235.747 181.156 244.043 160.083 246.134 137.987C248.225 115.891 244.028 93.6567 234.018 73.8048C224.009 53.9529 208.587 37.2781 189.503 25.6713C170.419 14.0644 148.435 7.98991 126.045 8.13665C103.654 8.2834 81.7535 14.6455 62.8257 26.5015C43.8979 38.3575 28.7004 55.233 18.9566 75.2143C9.21282 95.1957 5.31265 117.483 7.69837 139.55C10.0841 161.616 18.6602 182.579 32.4543 200.06L32.2237 200.239Z" stroke="#F0F0F0" stroke-width="12.1376" stroke-linejoin="round"/>
<path d="M73.0928 233.435C89.9426 241.685 108.334 246.1 127.127 245.943C145.92 245.787 164.415 241.607 181.123 233.077L181.123 232.72C164.456 241.229 145.871 245.497 127.124 245.653C108.377 245.81 89.9015 241.307 73.0928 233.077L73.0928 233.435Z" stroke="#F0F0F0" stroke-width="12.1376" stroke-linejoin="round"/>
</svg>
