<svg width="400" height="400" viewBox="0 0 400 400" fill="none" xmlns="http://www.w3.org/2000/svg">
<rect width="400" height="400" fill="#0F0F0F"/>
<path d="M165.227 168.164C165.227 169.765 165.7 171.039 166.646 171.985C167.665 172.859 168.83 173.296 170.14 173.296C171.595 173.296 172.796 172.823 173.743 171.876C174.689 170.857 175.162 169.402 175.162 167.509V139.887C175.162 137.121 174.798 135.156 174.07 133.991C173.415 132.826 172.323 132.244 170.795 132.244C168.757 132.244 167.301 133.081 166.428 134.755C165.554 136.429 165.117 138.941 165.117 142.289C161.697 138.504 157.147 135.883 151.47 134.428C145.866 132.972 139.861 132.244 133.455 132.244C126.468 132.244 120.099 133.554 114.349 136.175C108.672 138.722 104.159 142.507 100.811 147.529C97.4627 152.552 95.7886 158.593 95.7886 165.653C95.7886 171.985 97.0987 177.19 99.719 181.266C102.412 185.269 105.906 188.472 110.2 190.874C114.495 193.203 120.063 195.532 126.905 197.861L144.81 203.975C150.706 206.013 155.401 208.015 158.894 209.98C162.461 211.945 165.19 214.42 167.083 217.404C168.975 220.388 169.921 224.137 169.921 228.65C169.921 237.457 167.192 243.935 161.733 248.083C156.274 252.232 149.214 254.307 140.552 254.307C134.656 254.307 128.87 253.324 123.193 251.359C117.588 249.394 113.003 246.883 109.436 243.825C105.869 240.696 104.086 237.602 104.086 234.545V221.553C104.086 219.879 103.577 218.569 102.558 217.622C101.611 216.676 100.447 216.203 99.064 216.203C97.681 216.203 96.5164 216.64 95.5702 217.513C94.6968 218.387 94.2601 219.66 94.2601 221.335V255.617C94.2601 258.674 94.6604 260.785 95.461 261.949C96.2617 263.114 97.6082 263.696 99.5007 263.696C101.175 263.696 102.449 262.532 103.322 260.202C104.195 257.873 104.632 254.598 104.632 250.376C108.49 254.452 113.84 257.691 120.681 260.093C127.523 262.495 134.038 263.696 140.225 263.696C147.649 263.696 154.382 262.495 160.423 260.093C166.464 257.691 171.304 253.834 174.944 248.52C178.583 243.207 180.403 236.438 180.403 228.213C180.403 222.172 179.129 217.077 176.581 212.928C174.034 208.706 170.358 205.176 165.554 202.337C160.823 199.426 154.636 196.66 146.994 194.04L132.145 188.908C124.867 186.361 119.626 184.323 116.423 182.794C113.221 181.266 110.71 179.155 108.89 176.462C107.143 173.769 106.27 169.984 106.27 165.107C106.27 157.829 108.89 152.115 114.131 147.966C119.371 143.744 126.65 141.634 135.967 141.634C140.479 141.634 144.883 142.252 149.177 143.49C153.544 144.727 157.184 146.619 160.095 149.167C163.079 151.642 164.79 154.662 165.227 158.229V168.164Z" fill="white"/>
<path d="M266.873 215.002C273.132 215.002 279.283 213.619 285.324 210.853C291.365 208.087 296.387 204.011 300.391 198.625C297.188 221.043 284.014 241.897 260.868 261.185C259.994 261.986 259.558 262.859 259.558 263.805C259.558 265.043 260.067 266.171 261.086 267.19C262.105 268.282 263.27 268.828 264.58 268.828C265.672 268.828 266.691 268.391 267.637 267.517C276.517 259.511 284.087 251.504 290.346 243.498C296.679 235.491 301.81 226.284 305.741 215.876C309.744 205.394 311.745 193.639 311.745 180.611C311.745 165.617 308.142 153.825 300.937 145.237C293.804 136.575 283.177 132.244 269.056 132.244C260.904 132.244 253.698 133.918 247.439 137.266C241.179 140.615 236.302 145.382 232.809 151.569C229.388 157.683 227.677 164.852 227.677 173.077C227.677 181.302 229.242 188.581 232.372 194.913C235.502 201.246 240.015 206.195 245.91 209.762C251.806 213.255 258.793 215.002 266.873 215.002ZM301.264 173.842C301.264 179.592 299.845 184.941 297.006 189.891C294.24 194.768 290.201 198.698 284.887 201.682C279.647 204.594 273.533 206.049 266.545 206.049C260.14 206.049 254.79 204.521 250.496 201.464C246.274 198.334 243.144 194.258 241.106 189.236C239.141 184.214 238.158 178.718 238.158 172.75C238.158 167 239.359 161.723 241.761 156.919C244.163 152.115 247.693 148.294 252.352 145.455C257.083 142.616 262.651 141.197 269.056 141.197C276.408 141.197 282.485 142.689 287.289 145.673C292.093 148.585 295.623 152.515 297.88 157.465C300.136 162.341 301.264 167.8 301.264 173.842Z" fill="#FF4961"/>
</svg>
