<svg width="2732" height="933" viewBox="0 0 2732 933" fill="none" xmlns="http://www.w3.org/2000/svg">
<path d="M2221.09 397.918C2221.09 331.992 2273.38 278.462 2337.78 278.462C2401.64 278.462 2453.93 331.992 2453.93 397.918C2453.93 463.844 2398.88 516.811 2337.78 516.811C2273.38 516.811 2221.09 463.281 2221.09 397.918ZM2193.57 397.918C2193.57 479.058 2257.97 545.548 2337.78 545.548C2351 545.548 2363.66 543.294 2375.77 539.913L2282.35 659.261C2270.79 674.474 2288.55 692.087 2300.11 677.437L2450.07 490.328C2473.19 454.829 2482 427.219 2482 397.918C2482 316.214 2417.05 250.288 2337.78 250.288C2257.97 250.288 2193.57 316.214 2193.57 397.918Z" fill="#FF4961"/>
<path d="M355.619 483.285C341.09 483.285 327.305 480.491 314.266 474.903C301.599 469.314 290.422 461.863 280.736 452.549C271.422 442.863 263.971 431.686 258.382 419.02C252.794 405.98 250 392.196 250 377.666C250 363.136 252.794 349.352 258.382 336.312C263.971 323.273 271.422 312.096 280.736 302.783C290.422 293.096 301.599 285.459 314.266 279.87C327.305 274.282 341.09 271.488 355.619 271.488H477.445C482.66 271.488 486.572 273.164 489.18 276.517C491.788 279.87 493.092 283.596 493.092 287.694C493.092 291.42 491.788 294.959 489.18 298.312C486.572 301.292 482.66 302.783 477.445 302.783H355.619C345.188 302.783 335.501 304.832 326.56 308.93C317.619 312.655 309.795 317.871 303.089 324.577C296.383 331.283 290.981 339.293 286.883 348.607C283.157 357.548 281.295 367.234 281.295 377.666C281.295 388.098 283.157 397.784 286.883 406.725C290.981 415.667 296.383 423.49 303.089 430.196C309.795 436.902 317.619 442.304 326.56 446.402C335.501 450.128 345.188 451.991 355.619 451.991H402.561C417.091 451.991 430.875 454.785 443.915 460.373C456.954 465.961 468.131 473.599 477.445 483.285C487.131 492.599 494.768 503.776 500.357 516.815C505.945 529.855 508.739 543.639 508.739 558.169C508.739 572.698 505.945 586.483 500.357 599.522C494.768 612.562 487.131 623.925 477.445 633.611C468.131 642.925 456.954 650.376 443.915 655.964C430.875 661.553 417.091 664.347 402.561 664.347H281.295C276.079 664.347 271.981 662.857 269 659.876C266.392 656.523 265.088 652.984 265.088 649.258C265.088 645.16 266.392 641.435 269 638.082C271.981 634.729 276.079 633.052 281.295 633.052H402.561C412.993 633.052 422.679 631.189 431.62 627.464C440.934 623.366 448.944 617.964 455.65 611.258C462.356 604.552 467.572 596.728 471.297 587.787C475.396 578.473 477.445 568.6 477.445 558.169C477.445 547.737 475.396 538.051 471.297 529.109C467.572 519.796 462.356 511.786 455.65 505.08C448.944 498.374 440.934 493.158 431.62 489.432C422.679 485.334 412.993 483.285 402.561 483.285H355.619Z" fill="#F0F0F0"/>
<path d="M766.946 664.347C762.102 664.347 758.191 662.857 755.21 659.876C752.23 656.896 750.74 652.984 750.74 648.141V302.783H625.561C620.718 302.783 616.806 301.292 613.826 298.312C610.845 295.331 609.355 291.42 609.355 286.576C609.355 282.106 610.845 278.38 613.826 275.4C617.179 272.047 621.091 270.37 625.561 270.37H907.771C912.242 270.37 916.154 272.047 919.507 275.4C922.86 278.38 924.536 282.106 924.536 286.576C924.536 291.42 922.86 295.331 919.507 298.312C916.154 301.292 912.242 302.783 907.771 302.783H783.152V648.141C783.152 652.984 781.662 656.896 778.681 659.876C775.701 662.857 771.789 664.347 766.946 664.347Z" fill="#F0F0F0"/>
<path d="M943.672 641.435C944.417 639.944 947.211 633.611 952.054 622.434C956.898 611.258 962.858 597.101 969.937 579.963C977.388 562.453 985.584 542.708 994.526 520.727C1003.47 498.746 1012.59 476.579 1021.91 454.226C1031.22 431.5 1040.35 409.333 1049.29 387.725C1058.23 366.117 1066.06 346.93 1072.76 330.165C1079.84 313.4 1085.43 299.802 1089.53 289.371C1094 278.939 1096.23 273.723 1096.23 273.723C1099.59 265.527 1104.24 261.429 1110.2 261.429C1116.54 261.429 1121.57 265.341 1125.29 273.164L1285.12 643.111C1287.35 647.954 1287.35 652.239 1285.12 655.964C1283.26 659.69 1280.46 662.484 1276.74 664.347C1273.01 665.837 1269.1 666.023 1265 664.906C1261.27 663.788 1258.29 660.807 1256.06 655.964L1111.32 320.665C1109.46 324.763 1106.11 332.773 1101.26 344.695C1096.42 356.244 1090.64 370.215 1083.94 386.607C1077.23 403 1069.78 420.882 1061.59 440.255C1053.39 459.628 1045.19 479.373 1037 499.491C1028.8 519.237 1020.79 538.423 1012.97 557.051C1005.52 575.679 998.624 592.257 992.29 606.787C986.329 621.317 981.3 633.238 977.202 642.552C973.476 651.866 971.427 656.896 971.055 657.641C968.447 662.111 964.907 664.533 960.437 664.906C956.339 665.651 952.613 665.092 949.26 663.229C945.907 661.366 943.486 658.386 941.995 654.288C940.505 650.19 941.064 645.905 943.672 641.435Z" fill="#F0F0F0"/>
<path d="M1420.52 302.783V647.023C1420.52 651.494 1418.84 655.405 1415.49 658.758C1412.14 661.739 1408.23 663.229 1403.76 663.229C1399.66 663.229 1395.93 661.553 1392.58 658.2C1389.23 654.847 1387.55 651.121 1387.55 647.023V292.724C1387.55 286.018 1390.16 280.802 1395.37 277.076C1400.59 273.351 1406.18 271.488 1412.14 271.488H1537.88C1552.41 271.488 1566 274.282 1578.67 279.87C1591.71 285.459 1602.89 293.096 1612.2 302.783C1621.89 312.096 1629.52 323.273 1635.11 336.312C1640.7 349.352 1643.5 363.136 1643.5 377.666C1643.5 392.196 1640.7 405.98 1635.11 419.02C1629.52 431.686 1621.89 442.863 1612.2 452.549C1602.89 461.863 1591.71 469.314 1578.67 474.903C1566 480.491 1552.41 483.285 1537.88 483.285H1500.43L1659.14 636.964C1663.61 639.944 1666.03 643.484 1666.41 647.582C1666.78 651.68 1665.85 655.405 1663.61 658.758C1661.38 661.739 1658.21 663.974 1654.11 665.464C1650.39 666.955 1646.29 666.21 1641.82 663.229L1454.61 481.05C1450.51 478.442 1447.72 475.462 1446.23 472.109C1445.11 468.756 1444.92 465.589 1445.67 462.608C1446.79 459.628 1448.84 457.206 1451.82 455.344C1454.8 453.108 1458.71 451.991 1463.55 451.991H1537.88C1548.31 451.991 1557.99 450.128 1566.94 446.402C1576.25 442.304 1584.26 436.902 1590.96 430.196C1597.67 423.49 1602.89 415.667 1606.61 406.725C1610.71 397.784 1612.76 388.098 1612.76 377.666C1612.76 367.234 1610.71 357.548 1606.61 348.607C1602.89 339.293 1597.67 331.283 1590.96 324.577C1584.26 317.871 1576.25 312.655 1566.94 308.93C1557.99 304.832 1548.31 302.783 1537.88 302.783H1420.52Z" fill="#F0F0F0"/>
<path d="M1924.69 664.347C1919.84 664.347 1915.93 662.857 1912.95 659.876C1909.97 656.896 1908.48 652.984 1908.48 648.141V302.783H1783.3C1778.46 302.783 1774.55 301.292 1771.57 298.312C1768.59 295.331 1767.1 291.42 1767.1 286.576C1767.1 282.106 1768.59 278.38 1771.57 275.4C1774.92 272.047 1778.83 270.37 1783.3 270.37H2065.51C2069.98 270.37 2073.9 272.047 2077.25 275.4C2080.6 278.38 2082.28 282.106 2082.28 286.576C2082.28 291.42 2080.6 295.331 2077.25 298.312C2073.9 301.292 2069.98 302.783 2065.51 302.783H1940.89V648.141C1940.89 652.984 1939.4 656.896 1936.42 659.876C1933.44 662.857 1929.53 664.347 1924.69 664.347Z" fill="#F0F0F0"/>
</svg>
