<svg id="diy-lines" class="line-primary" viewBox="0 0 477 253" fill="none" xmlns="http://www.w3.org/2000/svg">
<path d="M1 19.4641L340.5 1L355.628 10L249.672 15L266.25 24.5L150 30L196.5 56M1 19.4641L83.5 78.6354L186.5 71.4033L181 66L210.5 64.5M1 19.4641L5 167.392L92 252L476 217V186L220 207V172L190.5 175V166.392L212 164.5V132L339.5 123M210.5 64.5L196.5 56M210.5 64.5L212 130.5L211.75 119.5L211.557 111L210.818 78.5L243 77.3204L227 66L256 64.5L266.25 69.4309V82H256L266.25 88.4972L296.5 86L286.5 80.5L285.5 64.5M339.5 123L341.5 148.5M339.5 123L308.056 105V93.7569V74M436.5 134L462.5 146L341.5 156V148.5M436.5 134L391 137V144.5L341.5 148.5M436.5 134L437.5 72L408 73L386.5 63.5L403 62V56L359.5 39H332.5L340.5 44.5L315 45.5L322 50L352 48.5L370.765 59L285.5 64.5M308.056 74L328.5 83.895L391 80.5L367 69.4309L308.056 74ZM285.5 64.5L266.25 54.5L196.5 56" vector-effect="non-scaling-stroke"/>
</svg>
