<svg id="grid-blend-top" viewBox="0 0 1366 819" fill="none" xmlns="http://www.w3.org/2000/svg">
<rect width="91" height="91" />
<rect x="911" width="91" height="91" />
<rect y="91" width="91" height="91" />
<rect x="911" y="91" width="91" height="91" />
<rect y="182" width="91" height="91" />
<rect x="911" y="182" width="91" height="91" />
<rect y="273" width="91" height="91" />
<rect x="911" y="273" width="91" height="91" />
<rect y="364" width="91" height="91" />
<rect x="911" y="364" width="91" height="91" />
<rect y="455" width="91" height="91" />
<rect y="546" width="91" height="91" />
<rect x="911" y="546" width="91" height="91" />
<rect y="637" width="91" height="91" />
<rect y="728" width="91" height="91" />
<rect x="1275" y="728" width="91" height="91" />
<rect x="1184" y="637" width="91" height="91" />
<rect x="91" width="91" height="91" />
<rect x="1002" width="91" height="91" />
<rect x="91" y="91" width="91" height="91" />
<rect x="1002" y="91" width="91" height="91" />
<rect x="91" y="182" width="91" height="91" />
<rect x="1002" y="182" width="91" height="91" />
<rect x="1002" y="273" width="91" height="91" />
<rect x="91" y="364" width="91" height="91" />
<rect x="91" y="455" width="91" height="91" />
<rect x="1002" y="455" width="91" height="91" />
<rect x="91" y="546" width="91" height="91" />
<rect x="91" y="637" width="91" height="91" />
<rect x="182" width="91" height="91" />
<rect x="1093" width="91" height="91" />
<rect x="182" y="91" width="91" height="91" />
<rect x="1093" y="91" width="91" height="91" />
<rect x="182" y="182" width="91" height="91" />
<rect x="1093" y="182" width="91" height="91" />
<rect x="182" y="273" width="91" height="91" />
<rect x="1093" y="273" width="91" height="91" />
<rect x="182" y="364" width="91" height="91" />
<rect x="1093" y="364" width="91" height="91" />
<rect x="182" y="546" width="91" height="91" />
<rect x="273" width="91" height="91" />
<rect x="1184" width="91" height="91" />
<rect x="273" y="91" width="91" height="91" />
<rect x="1184" y="91" width="91" height="91" />
<rect x="273" y="182" width="91" height="91" />
<rect x="273" y="273" width="91" height="91" />
<rect x="1184" y="273" width="91" height="91" />
<rect x="273" y="364" width="91" height="91" />
<rect x="1184" y="364" width="91" height="91" />
<rect x="273" y="455" width="91" height="91" />
<rect x="1184" y="455" width="91" height="91" />
<rect x="273" y="546" width="91" height="91" />
<rect x="364" width="91" height="91" />
<rect x="1275" width="91" height="91" />
<rect x="1275" y="91" width="91" height="91" />
<rect x="364" y="182" width="91" height="91" />
<rect x="1275" y="182" width="91" height="91" />
<rect x="364" y="273" width="91" height="91" />
<rect x="1275" y="273" width="91" height="91" />
<rect x="1275" y="364" width="91" height="91" />
<rect x="364" y="455" width="91" height="91" />
<rect x="1275" y="455" width="91" height="91" />
<rect x="1275" y="546" width="91" height="91" />
<rect x="1275" y="637" width="91" height="91" />
<rect x="455" width="91" height="91" />
<rect x="455" y="91" width="91" height="91" />
<rect x="455" y="182" width="91" height="91" />
<rect x="455" y="364" width="91" height="91" />
<rect x="455" y="455" width="91" height="91" />
<rect x="546" width="91" height="91" />
<rect x="546" y="91" width="91" height="91" />
<rect x="546" y="182" width="91" height="91" />
<rect x="546" y="273" width="91" height="91" />
<rect x="546" y="364" width="91" height="91" />
<rect x="637" width="92" height="91" />
<rect x="637" y="91" width="92" height="91" />
<rect x="637" y="182" width="92" height="91" />
<rect x="637" y="273" width="92" height="91" />
<rect x="637" y="364" width="92" height="91" />
<rect x="637" y="455" width="92" height="91" />
<rect x="729" width="91" height="91" />
<rect x="729" y="91" width="91" height="91" />
<rect x="729" y="182" width="91" height="91" />
<rect x="729" y="273" width="91" height="91" />
<rect x="729" y="455" width="91" height="91" />
<rect x="729" y="546" width="91" height="91" />
<rect x="820" width="91" height="91" />
<rect x="820" y="91" width="91" height="91" />
<rect x="820" y="273" width="91" height="91" />
<rect x="820" y="364" width="91" height="91" />
</svg>
