<svg width="1135" height="458" viewBox="0 0 1135 458" fill="none" xmlns="http://www.w3.org/2000/svg">
<path d="M163.966 186.498C163.966 188.657 164.604 190.375 165.88 191.651C167.254 192.828 168.824 193.417 170.591 193.417C172.554 193.417 174.173 192.779 175.449 191.503C176.725 190.129 177.363 188.166 177.363 185.615V148.367C177.363 144.637 176.872 141.987 175.891 140.417C175.007 138.847 173.535 138.062 171.474 138.062C168.726 138.062 166.763 139.19 165.585 141.448C164.407 143.705 163.819 147.091 163.819 151.606C159.206 146.502 153.071 142.969 145.416 141.006C137.858 139.043 129.761 138.062 121.124 138.062C111.702 138.062 103.114 139.828 95.3599 143.362C87.7043 146.797 81.6191 151.9 77.1042 158.673C72.5894 165.445 70.332 173.591 70.332 183.112C70.332 191.651 72.0987 198.668 75.632 204.165C79.2635 209.563 83.9746 213.881 89.7654 217.12C95.5562 220.261 103.065 223.402 112.291 226.542L136.435 234.787C144.385 237.535 150.716 240.234 155.427 242.884C160.236 245.534 163.917 248.871 166.469 252.895C169.02 256.919 170.296 261.974 170.296 268.059C170.296 279.935 166.616 288.671 159.255 294.265C151.893 299.859 142.373 302.657 130.693 302.657C122.743 302.657 114.941 301.332 107.285 298.682C99.7275 296.032 93.5441 292.646 88.7348 288.523C83.9256 284.303 81.5209 280.132 81.5209 276.009V258.49C81.5209 256.232 80.8339 254.466 79.4598 253.19C78.1839 251.914 76.6135 251.276 74.7487 251.276C72.8838 251.276 71.3135 251.865 70.0375 253.043C68.8598 254.22 68.2709 255.938 68.2709 258.195V304.423C68.2709 308.546 68.8107 311.392 69.8903 312.962C70.97 314.533 72.7857 315.318 75.3376 315.318C77.595 315.318 79.3126 313.748 80.4904 310.607C81.6681 307.466 82.257 303.049 82.257 297.357C87.4589 302.853 94.6728 307.221 103.899 310.46C113.125 313.698 121.909 315.318 130.252 315.318C140.263 315.318 149.342 313.698 157.488 310.46C165.634 307.221 172.161 302.019 177.069 294.854C181.976 287.689 184.43 278.561 184.43 267.47C184.43 259.324 182.712 252.454 179.277 246.859C175.842 241.167 170.885 236.406 164.407 232.579C158.028 228.653 149.685 224.923 139.38 221.39L119.357 214.47C109.542 211.035 102.476 208.287 98.1571 206.226C93.8386 204.165 90.4524 201.318 87.9987 197.687C85.6432 194.055 84.4654 188.952 84.4654 182.376C84.4654 172.561 87.9987 164.856 95.0654 159.262C102.132 153.569 111.947 150.723 124.51 150.723C130.595 150.723 136.533 151.557 142.324 153.225C148.213 154.894 153.12 157.446 157.046 160.881C161.07 164.218 163.377 168.291 163.966 173.101V186.498ZM331.293 210.937C333.158 210.937 334.581 210.348 335.563 209.17C336.643 207.992 337.182 206.569 337.182 204.901C337.182 203.33 336.643 201.956 335.563 200.778C334.581 199.503 333.207 198.865 331.441 198.865H276.674V163.678C276.674 161.519 276.33 159.9 275.643 158.82C274.956 157.642 273.533 157.053 271.374 157.053C268.527 157.053 266.466 158.329 265.19 160.881C264.013 163.335 263.276 167.212 262.982 172.512C262.688 177.812 262.54 186.596 262.54 198.865H240.899C238.936 198.865 237.414 199.453 236.335 200.631C235.255 201.711 234.715 203.036 234.715 204.606C234.715 206.275 235.304 207.747 236.482 209.023C237.66 210.299 239.328 210.937 241.487 210.937H262.54V287.934C262.54 292.744 264.258 297.259 267.693 301.479C271.226 305.699 275.889 309.085 281.679 311.637C287.568 314.091 293.85 315.318 300.524 315.318C307.1 315.318 313.725 314.533 320.399 312.962C327.073 311.49 332.913 309.576 337.918 307.221C343.022 304.767 346.605 302.313 348.666 299.859C349.156 299.172 349.402 298.436 349.402 297.651C349.402 295.983 348.715 294.314 347.341 292.646C345.967 290.977 344.593 290.143 343.218 290.143C342.531 290.143 341.992 290.339 341.599 290.732C336.888 294.265 330.803 297.259 323.343 299.712C315.982 302.068 308.866 303.246 301.996 303.246C294.439 303.246 288.304 301.626 283.593 298.387C278.98 295.05 276.674 289.848 276.674 282.782V210.937H331.293ZM495.677 243.62L484.929 244.356C468.931 245.436 456.172 246.81 446.651 248.479C437.229 250.147 429.279 253.582 422.801 258.784C416.323 263.986 413.085 271.691 413.085 281.898C413.085 292.008 416.176 300.105 422.36 306.19C428.543 312.177 437.131 315.171 448.124 315.171C458.331 315.171 467.753 313.355 476.39 309.723C485.126 306.092 491.898 301.577 496.707 296.179C497.885 303.147 500.191 307.859 503.627 310.312C507.062 312.668 511.282 313.846 516.288 313.846C520.704 313.846 524.925 312.913 528.949 311.048C533.071 309.085 536.703 306.435 539.843 303.098C540.825 302.117 541.316 300.89 541.316 299.418C541.316 297.847 540.776 296.424 539.696 295.148C538.617 293.872 537.341 293.234 535.868 293.234C534.593 293.234 533.415 293.823 532.335 295.001C530.667 296.768 528.409 298.436 525.563 300.007C522.717 301.479 520.017 302.215 517.466 302.215C515.11 302.215 513.245 301.626 511.871 300.448C510.497 299.172 509.81 296.817 509.81 293.382V247.448C509.81 235.474 508.534 225.561 505.982 217.709C503.43 209.759 498.916 203.674 492.438 199.453C486.058 195.233 477.225 193.123 465.938 193.123C455.926 193.123 447.044 194.448 439.29 197.098C431.536 199.748 425.5 203.428 421.182 208.14C416.863 212.851 414.704 218.151 414.704 224.04C414.704 227.18 415.44 229.732 416.912 231.695C418.483 233.658 420.691 234.64 423.537 234.64C426.874 234.64 429.23 232.726 430.604 228.898C431.978 225.07 432.861 219.378 433.254 211.82C438.456 209.465 443.609 207.796 448.712 206.815C453.914 205.735 459.607 205.195 465.79 205.195C476.783 205.195 484.488 208.238 488.904 214.323C493.419 220.408 495.677 229.192 495.677 240.676V243.62ZM495.677 284.99C490.377 290.584 483.555 295.05 475.213 298.387C466.968 301.626 458.478 303.246 449.743 303.246C442.971 303.246 437.524 301.577 433.401 298.24C429.377 294.805 427.365 289.358 427.365 281.898C427.365 275.028 429.721 269.826 434.432 266.293C439.143 262.759 445.474 260.306 453.424 258.932C461.472 257.459 473.544 255.938 489.64 254.368L495.677 253.779V284.99ZM684.793 222.862C684.793 225.316 685.48 227.23 686.854 228.604C688.228 229.88 689.848 230.518 691.713 230.518C693.676 230.518 695.344 229.83 696.718 228.456C698.191 226.984 698.927 224.923 698.927 222.273V201.956C698.927 199.012 697.945 196.803 695.982 195.331C694.019 193.859 690.682 193.123 685.971 193.123C658.686 193.123 639.449 201.711 628.26 218.887L627.671 203.576C627.573 200.828 627.131 198.766 626.346 197.392C625.659 196.018 624.236 195.331 622.076 195.331C621.095 195.331 619.966 195.478 618.69 195.773L593.515 200.778C592.141 201.073 591.061 201.76 590.276 202.84C589.491 203.821 589.098 204.999 589.098 206.373C589.098 207.943 589.589 209.317 590.571 210.495C591.65 211.673 593.122 212.262 594.987 212.262C595.772 212.262 596.361 212.213 596.754 212.115L614.715 208.434V300.743H587.773C585.81 300.743 584.289 301.332 583.209 302.51C582.13 303.687 581.59 305.061 581.59 306.632C581.59 308.3 582.179 309.773 583.357 311.048C584.534 312.226 586.203 312.815 588.362 312.815H678.168C680.033 312.815 681.505 312.226 682.585 311.048C683.665 309.773 684.204 308.349 684.204 306.779C684.204 305.11 683.665 303.687 682.585 302.51C681.603 301.332 680.18 300.743 678.315 300.743H628.849V235.376C632.775 225.561 639.792 218.102 649.901 212.998C660.011 207.796 671.641 205.195 684.793 205.195V222.862ZM851.826 210.937C853.691 210.937 855.114 210.348 856.096 209.17C857.176 207.992 857.715 206.569 857.715 204.901C857.715 203.33 857.176 201.956 856.096 200.778C855.114 199.503 853.74 198.865 851.974 198.865H797.207V163.678C797.207 161.519 796.863 159.9 796.176 158.82C795.489 157.642 794.066 157.053 791.907 157.053C789.06 157.053 786.999 158.329 785.723 160.881C784.546 163.335 783.809 167.212 783.515 172.512C783.221 177.812 783.073 186.596 783.073 198.865H761.432C759.469 198.865 757.947 199.453 756.868 200.631C755.788 201.711 755.248 203.036 755.248 204.606C755.248 206.275 755.837 207.747 757.015 209.023C758.193 210.299 759.861 210.937 762.02 210.937H783.073V287.934C783.073 292.744 784.791 297.259 788.226 301.479C791.76 305.699 796.422 309.085 802.212 311.637C808.101 314.091 814.383 315.318 821.057 315.318C827.633 315.318 834.258 314.533 840.932 312.962C847.606 311.49 853.446 309.576 858.451 307.221C863.555 304.767 867.138 302.313 869.199 299.859C869.69 299.172 869.935 298.436 869.935 297.651C869.935 295.983 869.248 294.314 867.874 292.646C866.5 290.977 865.126 290.143 863.752 290.143C863.064 290.143 862.525 290.339 862.132 290.732C857.421 294.265 851.336 297.259 843.876 299.712C836.515 302.068 829.4 303.246 822.529 303.246C814.972 303.246 808.837 301.626 804.126 298.387C799.513 295.05 797.207 289.848 797.207 282.782V210.937H851.826Z" fill="white"/>
<path d="M986.029 249.656C994.47 249.656 1002.76 247.792 1010.91 244.062C1019.06 240.332 1025.83 234.836 1031.23 227.573C1026.91 257.803 1009.14 285.922 977.932 311.932C976.754 313.011 976.165 314.189 976.165 315.465C976.165 317.134 976.852 318.655 978.226 320.029C979.6 321.501 981.171 322.237 982.937 322.237C984.41 322.237 985.784 321.648 987.06 320.471C999.034 309.674 1009.24 298.878 1017.68 288.082C1026.22 277.285 1033.14 264.87 1038.44 250.834C1043.84 236.701 1046.54 220.85 1046.54 203.281C1046.54 183.063 1041.68 167.163 1031.96 155.581C1022.34 143.901 1008.01 138.062 988.973 138.062C977.981 138.062 968.264 140.319 959.823 144.834C951.383 149.349 944.807 155.777 940.095 164.12C935.482 172.364 933.176 182.032 933.176 193.123C933.176 204.214 935.286 214.029 939.507 222.567C943.727 231.106 949.812 237.781 957.762 242.59C965.712 247.301 975.134 249.656 986.029 249.656ZM1032.4 194.153C1032.4 201.907 1030.49 209.121 1026.66 215.795C1022.93 222.371 1017.49 227.671 1010.32 231.695C1003.25 235.621 995.01 237.584 985.587 237.584C976.95 237.584 969.736 235.523 963.946 231.401C958.253 227.18 954.033 221.684 951.284 214.912C948.634 208.14 947.309 200.729 947.309 192.681C947.309 184.927 948.929 177.812 952.168 171.334C955.407 164.856 960.167 159.703 966.448 155.875C972.828 152.048 980.336 150.134 988.973 150.134C998.886 150.134 1007.08 152.146 1013.56 156.17C1020.04 160.096 1024.8 165.396 1027.84 172.07C1030.88 178.646 1032.4 186.007 1032.4 194.153Z" fill="#FF4961"/>
</svg>
