<svg width="62" height="42" viewBox="0 0 62 42" fill="none" xmlns="http://www.w3.org/2000/svg">
<path d="M60.2167 6.92527C59.8685 5.68313 59.1902 4.55855 58.2539 3.67109C57.2912 2.75635 56.1113 2.10201 54.8255 1.76984C50.0134 0.501476 30.7343 0.501476 30.7343 0.501476C22.6971 0.410033 14.6618 0.812223 6.67392 1.70578C5.38811 2.06249 4.21039 2.73145 3.24551 3.65316C2.29744 4.56535 1.61073 5.69022 1.25201 6.92271C0.390271 11.565 -0.0284184 16.2787 0.00158144 21.0002C-0.0291667 25.7175 0.388495 30.4296 1.25201 35.0777C1.60305 36.3051 2.28719 37.4249 3.23782 38.3294C4.18845 39.2339 5.37225 39.8873 6.67392 40.2332C11.5501 41.499 30.7343 41.499 30.7343 41.499C38.7818 41.5905 46.8273 41.1884 54.8255 40.2947C56.1113 39.9625 57.2912 39.3082 58.2539 38.3934C59.1898 37.5061 59.8673 36.3814 60.2141 35.1392C61.0983 30.4987 61.5283 25.7831 61.4978 21.0592C61.5643 16.3152 61.1349 11.5774 60.2167 6.92271V6.92527ZM24.6052 29.7737V12.2293L40.6455 21.0028L24.6052 29.7737Z" fill="var(--c-text-primary)"/>
</svg>
